{"glyphs":{"0":{"ha":878,"x_min":0,"x_max":0,"o":"m 728 114 b 836 465 800 199 836 317 b 729 818 836 614 800 732 b 440 947 657 904 561 947 b 150 819 318 947 221 904 b 42 465 78 735 42 617 b 149 114 42 315 78 199 b 438 -14 219 29 317 -14 b 728 114 558 -14 656 29 z m 440 194 b 243 465 311 194 243 289 b 439 739 243 642 311 739 b 635 465 565 739 631 642 b 440 194 636 292 568 194 z "},"1":{"ha":653,"x_min":0,"x_max":0,"o":"m 576 0 b 632 49 614 0 632 17 l 632 160 b 576 208 632 192 614 208 l 458 208 b 431 239 436 208 431 215 l 431 875 b 375 931 431 913 413 931 l 292 931 b 260 924 278 931 267 928 b 256 922 258 924 257 924 l 96 849 b 57 790 61 832 57 824 l 57 640 b 110 607 57 601 75 590 l 236 665 l 236 239 b 208 208 236 215 231 208 l 90 208 b 35 160 53 208 35 192 l 35 49 b 90 0 35 17 53 0 l 576 0 z "},"2":{"ha":740,"x_min":0,"x_max":0,"o":"m 638 0 b 693 56 675 0 693 18 l 693 153 b 638 208 693 190 675 208 l 275 208 b 383 292 297 231 333 258 b 513 379 433 324 476 353 b 613 490 549 404 582 442 b 657 654 642 539 657 593 b 350 947 657 832 546 947 b 65 863 254 947 142 914 b 60 804 49 851 47 832 l 101 714 b 176 701 114 688 139 683 b 338 739 231 726 285 739 b 456 625 417 739 456 701 b 307 444 456 560 389 497 b 28 156 188 368 28 279 l 28 56 b 83 0 28 18 46 0 l 638 0 z "},"3":{"ha":701,"x_min":0,"x_max":0,"o":"m 340 -17 b 661 257 542 -17 661 94 b 499 489 661 363 604 451 b 640 710 593 540 640 614 b 336 947 640 853 525 947 b 49 854 226 947 131 917 b 43 796 33 842 31 822 l 82 710 b 133 685 94 681 113 672 b 314 739 200 721 260 739 b 439 664 397 739 439 714 b 261 565 439 599 379 565 l 206 565 b 150 510 168 565 150 547 l 150 426 b 206 371 150 389 168 371 l 340 371 b 460 283 419 371 460 342 b 328 192 460 228 406 192 b 125 244 256 192 188 210 b 74 219 104 257 86 249 l 35 133 b 40 75 22 107 25 88 b 340 -17 118 15 236 -17 z "},"4":{"ha":790,"x_min":0,"x_max":0,"o":"m 625 179 l 714 179 b 768 233 750 179 768 197 l 768 332 b 713 388 768 369 750 388 l 625 388 l 625 875 b 569 931 625 913 607 931 l 417 931 b 368 908 393 931 378 924 l 50 385 b 22 306 32 354 22 328 l 22 233 b 76 179 22 197 40 179 l 431 179 l 431 56 b 486 0 431 18 449 0 l 569 0 b 625 56 607 0 625 18 z m 431 678 l 431 388 l 256 388 z "},"5":{"ha":710,"x_min":0,"x_max":0,"o":"m 328 -17 b 582 65 432 -17 517 11 b 678 294 646 119 678 196 b 590 515 678 389 649 463 b 361 594 531 568 454 594 l 274 594 l 274 736 l 558 736 b 614 792 596 736 614 754 l 614 875 b 558 931 614 913 596 931 l 149 931 b 93 875 111 931 93 913 l 93 456 b 149 400 93 418 111 400 l 263 400 b 476 293 406 400 476 364 b 317 194 476 226 411 194 b 131 253 243 194 181 214 b 79 228 110 268 93 260 l 35 131 b 40 72 22 104 25 85 b 328 -17 118 13 214 -17 z "},"6":{"ha":767,"x_min":0,"x_max":0,"o":"m 388 -17 b 639 81 489 -17 574 15 b 738 325 704 144 738 226 b 646 544 738 413 707 486 b 413 631 585 601 507 631 b 353 626 393 631 374 629 b 564 815 404 686 475 750 b 564 882 588 833 588 856 l 513 942 b 435 942 485 969 469 968 b 33 351 151 738 33 551 b 128 90 33 249 65 161 b 388 -17 190 19 278 -17 z m 394 192 b 235 351 301 192 235 250 b 242 417 235 369 238 392 b 390 450 286 439 336 450 b 536 324 474 450 536 397 b 394 192 536 242 476 192 z "},"7":{"ha":728,"x_min":0,"x_max":0,"o":"m 222 0 b 251 6 235 0 244 1 b 289 56 258 10 271 26 l 690 729 b 697 743 693 733 696 739 b 706 778 703 751 706 763 l 706 875 b 650 931 706 913 688 931 l 81 931 b 25 875 43 931 25 913 l 25 778 b 81 722 25 740 43 722 l 450 722 l 75 88 b 118 0 47 39 69 0 l 222 0 z "},"8":{"ha":800,"x_min":0,"x_max":0,"o":"m 664 61 b 763 257 729 113 763 178 b 624 474 763 350 717 422 b 735 690 697 522 735 594 b 644 885 735 769 704 833 b 400 961 583 936 501 961 b 157 885 299 961 217 936 b 65 690 96 833 65 769 b 176 474 65 593 103 521 b 38 257 83 425 38 353 b 136 61 38 178 71 113 b 400 -17 201 10 290 -17 b 664 61 510 -17 599 10 z m 501 735 b 540 656 528 717 540 690 b 400 553 540 588 493 553 b 260 656 307 553 260 588 b 299 735 260 690 272 717 b 400 760 325 751 358 760 b 501 735 442 760 475 751 z m 279 211 b 232 289 247 228 232 254 b 400 386 232 354 288 386 b 568 289 513 386 568 354 b 522 211 568 254 553 228 b 400 185 490 193 450 185 b 279 211 350 185 310 193 z "},"9":{"ha":767,"x_min":0,"x_max":0,"o":"m 379 947 b 128 851 278 947 193 915 b 29 606 63 786 29 704 b 121 388 29 518 60 444 b 354 300 182 329 260 300 b 414 304 374 300 393 301 b 203 115 363 244 292 181 b 203 49 179 97 179 75 l 254 -11 b 332 -11 282 -39 297 -37 b 733 579 615 193 733 379 b 639 840 733 682 701 769 b 379 947 576 911 489 947 z m 372 739 b 532 579 465 739 532 681 b 525 514 532 561 529 539 b 376 481 481 492 431 481 b 231 607 293 481 231 533 b 372 739 231 689 290 739 z "},"\u0000":{"ha":0,"x_min":0,"x_max":0,"o":""},"\r":{"ha":0,"x_min":0,"x_max":0,"o":""}," ":{"ha":278,"x_min":0,"x_max":0,"o":""},"!":{"ha":333,"x_min":0,"x_max":0,"o":"m 63 383 b 118 328 63 346 81 328 l 215 328 b 271 383 253 328 271 346 l 271 875 b 215 931 271 913 253 931 l 118 931 b 63 875 81 931 63 913 z m 258 22 b 297 115 285 49 297 79 b 167 246 297 186 238 246 b 36 115 96 246 36 186 b 258 22 31 3 185 -64 z "},"\"":{"ha":518,"x_min":0,"x_max":0,"o":"m 296 629 b 328 589 294 608 307 590 l 410 578 b 453 606 433 574 449 583 l 521 904 b 494 942 525 926 517 939 l 361 961 b 324 931 338 964 325 954 l 296 629 z m 25 615 b 57 575 24 594 36 576 l 139 564 b 182 592 163 560 178 569 l 250 890 b 224 928 254 913 246 925 l 90 947 b 53 917 67 950 54 940 l 25 615 z "},"#":{"ha":1110,"x_min":0,"x_max":0,"o":"m 468 381 l 513 549 l 646 549 l 600 381 z m 415 186 l 547 186 l 490 -24 b 531 -93 481 -60 494 -83 l 606 -112 b 674 -72 640 -121 664 -107 l 743 186 l 901 186 b 957 242 939 186 957 204 l 957 325 b 901 381 957 363 939 381 l 796 381 l 840 549 l 981 549 b 1036 604 1018 549 1036 567 l 1036 688 b 981 743 1036 725 1018 743 l 893 743 l 950 954 b 910 1021 960 989 946 1011 l 836 1042 b 768 1001 800 1051 778 1038 l 699 743 l 565 743 l 622 954 b 582 1024 632 992 619 1014 l 510 1042 b 440 1001 474 1051 450 1039 l 371 743 l 208 743 b 153 688 171 743 153 725 l 153 604 b 208 549 153 567 171 549 l 318 549 l 272 381 l 129 381 b 74 325 92 381 74 363 l 74 242 b 129 186 74 204 92 186 l 221 186 l 164 -24 b 203 -90 154 -57 168 -79 l 276 -112 b 346 -72 313 -124 336 -110 z "},"$":{"ha":703,"x_min":0,"x_max":0,"o":"m 406 -139 b 461 -83 443 -139 461 -121 l 461 -7 b 675 264 599 25 675 121 b 449 547 675 385 600 479 b 263 694 306 610 263 651 b 354 760 263 733 297 760 b 521 714 397 760 453 744 b 582 733 550 701 569 708 l 618 813 b 596 881 631 844 628 860 b 461 935 561 903 517 921 l 461 1014 b 406 1069 461 1051 443 1069 l 322 1069 b 267 1014 285 1069 267 1051 l 267 938 b 61 681 135 908 61 813 b 285 397 61 557 136 463 b 474 243 431 332 474 289 b 379 171 474 194 442 171 b 135 247 308 171 228 196 b 74 228 101 264 89 257 l 33 144 b 56 76 18 110 24 100 b 267 -8 113 36 182 7 l 267 -83 b 322 -139 267 -121 285 -139 l 406 -139 z "},"%":{"ha":1389,"x_min":0,"x_max":0,"o":"m 1042 878 b 1021 954 1061 911 1054 936 l 960 986 b 883 965 928 1003 901 996 l 317 0 b 338 -76 297 -33 304 -58 l 399 -108 b 475 -87 431 -125 457 -118 z m 526 481 b 600 676 575 532 600 597 b 526 872 600 756 575 821 b 328 949 478 924 411 949 b 129 872 244 949 178 924 b 56 676 81 821 56 756 b 129 481 56 597 81 532 b 328 403 178 429 244 403 b 526 481 411 403 478 429 z m 328 561 b 247 590 294 561 268 571 b 215 676 226 608 215 638 b 247 763 215 715 226 744 b 328 790 268 781 294 790 b 442 676 394 790 442 754 b 328 561 442 597 396 561 z m 1260 61 b 1333 257 1308 113 1333 178 b 1260 453 1333 336 1308 401 b 1061 529 1211 504 1144 529 b 863 453 978 529 911 504 b 789 257 814 401 789 336 b 863 61 789 178 814 113 b 1061 -17 911 10 978 -17 b 1260 61 1144 -17 1211 10 z m 1061 142 b 981 171 1028 142 1001 151 b 949 257 960 189 949 218 b 981 343 949 296 960 325 b 1061 371 1001 361 1028 371 b 1175 257 1128 371 1175 335 b 1061 142 1175 178 1129 142 z "},"&":{"ha":861,"x_min":0,"x_max":0,"o":"m 743 371 l 799 371 b 854 426 836 371 854 389 l 854 503 b 799 558 854 540 836 558 l 743 558 l 743 600 b 688 656 743 638 725 656 l 604 656 b 549 600 567 656 549 638 l 549 558 l 394 558 b 256 657 301 558 256 592 b 386 760 256 718 304 760 b 540 726 442 760 493 749 b 596 742 567 714 585 719 l 635 814 b 629 872 649 840 647 860 b 386 947 564 922 483 947 b 154 872 290 947 214 922 b 65 682 94 822 65 758 b 192 465 65 583 107 511 b 28 238 82 415 28 339 b 317 -17 28 89 132 -17 b 549 85 400 -17 492 19 l 549 0 b 604 -56 549 -37 567 -56 l 688 -56 b 743 0 725 -56 743 -37 z m 356 185 b 218 269 267 185 218 215 b 339 371 218 326 265 371 l 549 371 l 549 369 b 356 185 549 257 472 185 z "},"'":{"ha":247,"x_min":0,"x_max":0,"o":"m 25 615 b 57 575 24 594 36 576 l 139 564 b 182 592 163 560 178 569 l 250 890 b 224 928 254 913 246 925 l 90 947 b 53 917 67 950 54 940 l 25 615 z "},"(":{"ha":358,"x_min":0,"x_max":0,"o":"m 268 682 b 376 950 289 761 325 851 b 328 1006 393 983 368 1006 l 244 1006 b 168 950 210 1006 185 988 b 168 -83 7 599 7 268 b 244 -139 185 -121 210 -139 l 328 -139 b 376 -83 368 -139 393 -117 b 268 186 325 15 289 106 b 268 682 224 346 224 521 z "},")":{"ha":358,"x_min":0,"x_max":0,"o":"m 92 186 b -18 -83 69 106 33 15 b 31 -139 -35 -117 -10 -139 l 114 -139 b 190 -83 149 -139 174 -121 b 190 950 351 268 351 599 b 114 1006 174 988 149 1006 l 31 1006 b -18 950 -10 1006 -35 983 b 92 682 33 851 69 761 b 92 186 135 521 135 346 z "},"*":{"ha":647,"x_min":0,"x_max":0,"o":"m 399 411 b 446 403 413 393 428 390 l 524 461 b 531 510 542 475 544 492 l 472 586 b 485 624 460 604 464 617 l 579 653 b 601 696 600 658 608 678 l 569 786 b 525 808 561 808 546 815 l 436 776 b 403 800 414 769 403 776 l 404 896 b 371 931 404 919 393 931 l 274 931 b 239 896 250 931 239 919 l 240 800 b 208 776 240 776 229 769 l 117 810 b 74 788 99 817 79 808 l 44 694 b 68 651 38 672 46 658 l 160 624 b 172 586 181 617 185 604 l 113 507 b 121 460 100 489 103 474 l 200 404 b 247 413 219 392 235 394 l 303 492 b 342 492 314 508 331 508 l 399 411 z "},"+":{"ha":694,"x_min":0,"x_max":0,"o":"m 438 378 l 579 378 b 635 433 617 378 635 396 l 635 503 b 579 558 635 540 617 558 l 438 558 l 438 715 b 382 771 438 753 419 771 l 313 771 b 257 715 275 771 257 753 l 257 558 l 115 558 b 60 503 78 558 60 540 l 60 433 b 115 378 60 396 78 378 l 257 378 l 257 222 b 313 167 257 185 275 167 l 382 167 b 438 222 419 167 438 185 z "},",":{"ha":294,"x_min":0,"x_max":0,"o":"m 267 51 b 143 211 267 156 215 211 b 28 96 81 211 28 158 b 140 -17 28 31 69 -17 l 139 -25 b 54 -90 133 -64 114 -83 b 19 -131 31 -93 19 -107 l 19 -162 b 54 -196 19 -185 31 -196 b 267 51 188 -196 267 -106 z "},"-":{"ha":458,"x_min":0,"x_max":0,"o":"m 76 467 b 21 411 39 467 21 449 l 21 342 b 76 286 21 304 39 286 l 382 286 b 438 342 419 286 438 304 l 438 411 b 382 467 438 449 419 467 z "},".":{"ha":293,"x_min":0,"x_max":0,"o":"m 231 19 b 231 186 278 67 278 140 b 28 103 161 264 22 201 b 231 19 22 1 161 -60 z "},"/":{"ha":694,"x_min":0,"x_max":0,"o":"m 713 885 b 692 961 731 917 724 942 l 614 1007 b 538 986 582 1026 557 1019 l -18 -7 b 3 -83 -36 -39 -29 -64 l 81 -129 b 157 -108 113 -149 139 -142 z "},":":{"ha":293,"x_min":0,"x_max":0,"o":"m 231 440 b 231 607 278 488 278 561 b 63 607 183 653 108 653 b 63 440 17 561 17 488 b 231 440 108 393 183 393 z m 231 19 b 231 186 278 67 278 140 b 28 103 161 264 22 201 b 231 19 22 1 161 -60 z "},";":{"ha":294,"x_min":0,"x_max":0,"o":"m 231 510 b 231 676 278 557 278 631 b 63 676 183 722 108 722 b 63 510 17 631 17 557 b 231 510 108 463 183 463 z m 267 51 b 143 211 267 156 215 211 b 28 96 81 211 28 158 b 140 -17 28 31 69 -17 l 139 -25 b 54 -90 133 -64 114 -83 b 19 -131 31 -93 19 -107 l 19 -162 b 54 -196 19 -185 31 -196 b 267 51 188 -196 267 -106 z "},"<":{"ha":694,"x_min":0,"x_max":0,"o":"m 621 292 b 565 347 615 324 603 331 l 308 465 l 565 583 b 621 653 603 600 621 624 l 621 736 b 565 778 621 775 599 794 l 143 569 b 88 514 104 551 94 547 l 88 422 b 89 418 89 419 89 418 l 89 414 b 90 410 90 413 90 411 b 92 407 90 408 90 408 b 93 404 92 406 92 404 b 94 401 93 403 93 403 l 94 400 l 94 399 b 143 361 101 386 118 374 l 565 153 b 621 194 599 136 621 156 z "},"=":{"ha":694,"x_min":0,"x_max":0,"o":"m 129 694 b 74 639 92 694 74 676 l 74 569 b 129 514 74 532 92 514 l 565 514 b 621 569 603 514 621 532 l 621 639 b 565 694 621 676 603 694 z m 129 417 b 74 361 92 417 74 399 l 74 292 b 129 236 74 254 92 236 l 565 236 b 621 292 603 236 621 254 l 621 361 b 565 417 621 399 603 417 z "},">":{"ha":694,"x_min":0,"x_max":0,"o":"m 565 361 b 614 399 590 374 607 386 l 614 400 l 614 401 b 615 404 615 403 615 403 b 617 407 617 404 617 406 b 619 413 618 408 618 411 l 619 414 l 619 418 b 621 422 619 419 621 424 l 621 514 b 565 569 614 547 604 551 l 143 778 b 88 736 110 794 88 775 l 88 653 b 143 583 88 624 106 600 l 400 465 l 143 347 b 88 292 106 331 93 324 l 88 194 b 143 153 88 156 110 136 z "},"?":{"ha":715,"x_min":0,"x_max":0,"o":"m 436 674 b 365 563 436 631 414 596 b 214 478 317 528 285 511 b 203 421 190 465 186 447 l 253 343 b 319 328 265 322 290 315 b 338 338 324 329 329 333 b 439 394 382 361 415 379 b 526 460 461 408 490 431 b 631 674 599 518 631 586 b 546 890 631 764 603 836 b 317 971 489 944 413 971 b 57 888 224 971 124 939 b 51 829 42 875 39 856 l 90 742 b 142 717 104 713 121 704 b 315 775 211 756 269 775 b 436 674 396 775 436 742 z m 376 22 b 415 115 403 49 415 79 b 285 246 415 186 356 246 b 154 115 214 246 154 186 b 376 22 149 3 303 -64 z "},"@":{"ha":1410,"x_min":0,"x_max":0,"o":"m 768 -181 b 824 -132 807 -181 824 -169 l 824 -65 b 768 -17 824 -28 807 -17 b 218 463 392 -17 218 158 b 344 807 218 603 260 718 b 699 940 428 896 546 940 b 1063 807 854 940 975 896 b 1192 463 1149 718 1192 603 b 1090 279 1192 340 1158 279 b 1001 397 1035 279 1001 321 l 1001 514 b 699 818 1001 713 888 818 b 454 735 606 818 524 790 b 449 676 435 721 433 701 l 489 610 b 540 585 506 583 522 575 b 676 638 599 619 644 638 b 821 522 767 638 821 596 l 821 504 b 656 540 764 528 708 540 b 414 328 493 540 414 451 b 478 174 414 265 435 214 b 642 113 521 133 575 113 b 856 232 731 113 822 156 b 1083 113 900 153 976 113 b 1347 463 1249 113 1347 231 b 1169 928 1347 656 1288 810 b 700 1104 1051 1046 894 1104 b 238 929 507 1104 353 1046 b 63 463 121 811 63 656 b 247 -12 63 258 124 101 b 768 -181 369 -125 543 -181 z m 676 272 b 594 333 631 272 594 296 b 676 394 594 374 622 394 b 821 367 725 394 772 385 l 821 361 b 676 272 821 307 749 272 z "},"A":{"ha":939,"x_min":0,"x_max":0,"o":"m 336 350 l 428 647 l 564 350 z m 283 176 l 643 176 l 704 43 b 799 -12 732 -17 744 -22 l 874 1 b 913 82 925 11 936 32 l 532 875 b 514 917 525 888 517 911 b 479 931 507 926 500 931 l 360 931 b 293 875 322 931 310 921 l 25 57 b 64 -24 7 7 14 -12 l 146 -40 b 233 15 196 -50 217 -40 z "},"B":{"ha":811,"x_min":0,"x_max":0,"o":"m 397 -28 b 783 260 654 -28 783 68 b 581 492 783 375 714 458 b 714 704 657 529 714 610 b 382 944 714 858 589 957 l 139 931 b 83 875 101 928 83 910 l 83 28 b 138 -28 83 -10 101 -28 l 397 -28 z m 340 750 b 513 667 464 760 513 732 b 361 575 513 606 463 575 l 285 575 l 285 746 l 340 750 z m 285 381 l 403 381 b 582 272 522 381 582 344 b 431 167 582 200 538 167 l 285 167 z "},"C":{"ha":840,"x_min":0,"x_max":0,"o":"m 500 192 b 240 465 333 192 240 303 b 500 739 240 626 335 739 b 703 689 563 739 629 722 b 763 710 732 676 753 683 l 804 813 b 796 864 814 836 811 854 b 500 947 706 919 607 947 b 165 815 360 947 249 903 b 39 465 81 728 39 611 b 164 115 39 319 81 203 b 497 -17 247 28 358 -17 b 796 67 604 -17 703 11 b 804 118 811 76 814 94 l 763 221 b 703 242 753 247 732 254 b 500 192 629 208 563 192 z "},"D":{"ha":903,"x_min":0,"x_max":0,"o":"m 229 10 l 233 10 l 356 22 b 867 486 632 47 867 182 b 731 824 867 640 821 753 b 358 931 639 894 515 931 l 139 931 b 83 875 101 931 83 913 l 83 56 b 139 0 83 17 101 -4 z m 364 722 b 582 668 453 722 525 704 b 665 486 638 631 665 571 b 579 310 665 411 636 353 b 361 231 521 267 449 240 l 285 224 l 285 722 l 364 722 z "},"E":{"ha":731,"x_min":0,"x_max":0,"o":"m 633 0 b 688 54 669 0 688 18 l 688 139 b 632 194 688 176 669 194 l 268 194 l 275 363 l 578 383 b 632 438 614 386 632 404 l 632 522 b 576 578 632 563 614 581 l 281 558 l 288 736 l 633 736 b 688 790 669 736 688 754 l 688 875 b 632 931 688 913 669 931 l 153 931 b 97 875 117 931 99 913 l 69 56 b 125 0 68 18 88 0 z "},"F":{"ha":711,"x_min":0,"x_max":0,"o":"m 278 328 l 576 328 b 631 382 613 328 631 346 l 631 467 b 575 522 631 504 613 522 l 278 522 l 278 736 l 633 736 b 688 790 669 736 688 754 l 688 875 b 632 931 688 913 669 931 l 139 931 b 83 875 101 931 83 913 l 83 28 b 139 -28 83 -10 101 -28 l 222 -28 b 278 28 260 -28 278 -10 z "},"G":{"ha":924,"x_min":0,"x_max":0,"o":"m 849 488 b 793 543 849 525 831 544 l 503 529 b 447 474 465 528 447 510 l 447 382 b 501 328 447 344 467 326 l 647 335 l 647 214 b 524 194 611 201 569 194 b 240 479 339 194 240 307 b 507 739 240 633 336 739 b 717 689 571 739 640 722 b 776 710 746 676 767 683 l 818 813 b 810 864 828 836 825 854 b 507 947 719 919 619 947 b 167 819 365 947 251 904 b 39 479 82 733 39 619 b 161 131 39 333 79 217 b 488 0 242 43 350 0 b 647 36 546 0 599 13 l 647 -24 b 701 -81 647 -61 665 -81 l 792 -81 b 849 -28 829 -81 849 -62 z "},"H":{"ha":922,"x_min":0,"x_max":0,"o":"m 783 -28 b 839 28 821 -28 839 -10 l 839 875 b 783 931 839 913 821 931 l 693 931 b 638 875 656 931 638 913 l 638 581 l 285 556 l 285 903 b 229 958 285 940 267 958 l 139 958 b 83 903 101 958 83 940 l 83 56 b 139 0 83 18 101 0 l 229 0 b 285 56 267 0 285 18 l 285 354 l 638 379 l 638 28 b 693 -28 638 -10 656 -28 l 783 -28 z "},"I":{"ha":368,"x_min":0,"x_max":0,"o":"m 285 903 b 229 958 285 940 267 958 l 139 958 b 83 903 101 958 83 940 l 83 28 b 139 -28 83 -10 101 -28 l 229 -28 b 285 28 267 -28 285 -10 z "},"J":{"ha":796,"x_min":0,"x_max":0,"o":"m 289 -17 b 615 281 485 -17 615 82 l 615 758 l 725 764 b 779 818 761 765 779 783 l 779 903 b 724 958 779 940 761 960 l 149 931 b 93 875 111 929 93 911 l 93 790 b 147 736 93 753 113 735 l 414 749 l 414 392 b 286 192 414 246 369 192 b 125 235 238 192 183 206 b 65 214 96 249 76 242 l 24 111 b 32 60 14 86 17 69 b 289 -17 121 8 207 -17 z "},"K":{"ha":857,"x_min":0,"x_max":0,"o":"m 782 1 b 821 82 836 14 849 40 l 551 497 b 532 528 544 508 538 518 l 803 796 b 794 874 828 819 825 846 l 733 929 b 654 924 707 953 681 950 l 285 558 l 285 847 b 229 903 285 885 267 903 l 139 903 b 83 847 101 903 83 885 l 83 56 b 139 0 83 18 101 0 l 229 0 b 285 56 267 0 285 18 l 285 285 l 393 392 l 626 43 b 665 -8 644 18 656 0 b 714 -12 675 -18 692 -17 z "},"L":{"ha":679,"x_min":0,"x_max":0,"o":"m 606 1 b 660 56 640 0 660 18 l 660 140 b 604 196 660 175 642 193 l 285 214 l 285 875 b 229 931 285 913 267 931 l 139 931 b 83 875 101 931 83 913 l 83 82 b 139 28 83 46 101 28 l 606 1 z "},"M":{"ha":1061,"x_min":0,"x_max":0,"o":"m 285 581 l 463 314 b 499 292 472 299 483 292 l 569 292 b 606 313 585 292 596 299 l 776 564 l 776 28 b 832 -28 776 -10 794 -28 l 922 -28 b 978 28 960 -28 978 -10 l 978 875 b 922 931 978 913 960 931 l 832 931 b 779 897 811 931 793 919 l 540 547 l 278 939 b 229 958 269 951 253 958 l 139 958 b 83 903 101 958 83 940 l 83 56 b 139 0 83 18 101 0 l 229 0 b 285 56 267 0 285 18 z "},"N":{"ha":943,"x_min":0,"x_max":0,"o":"m 285 546 l 635 24 b 642 15 636 22 640 17 b 686 0 651 6 667 0 l 776 0 b 832 56 811 0 829 18 l 888 875 b 832 931 890 913 872 931 l 742 931 b 686 875 707 931 689 913 l 649 326 l 278 881 l 276 883 l 272 888 l 267 893 l 265 894 l 263 894 l 261 896 l 260 897 b 229 903 253 901 243 903 l 139 903 b 83 847 101 903 83 885 l 83 28 b 139 -28 83 -10 101 -28 l 229 -28 b 285 28 267 -28 285 -10 z "},"O":{"ha":1025,"x_min":0,"x_max":0,"o":"m 856 104 b 986 465 942 194 985 314 b 856 825 985 614 940 735 b 514 961 769 915 656 961 b 169 825 371 961 256 915 b 39 465 82 735 39 614 b 168 106 39 315 82 196 b 511 -31 254 15 368 -31 b 856 104 654 -31 768 14 z m 514 178 b 240 465 338 178 240 293 b 513 753 240 636 339 753 b 785 465 683 753 781 636 b 514 178 781 293 685 178 z "},"P":{"ha":800,"x_min":0,"x_max":0,"o":"m 229 -28 b 285 28 267 -28 285 -10 l 285 210 l 356 217 b 654 322 478 229 578 264 b 769 575 731 381 769 465 b 358 931 769 821 613 931 l 139 931 b 83 875 101 931 83 913 l 83 28 b 139 -28 83 -10 101 -28 l 229 -28 z m 364 722 b 568 575 500 722 568 674 b 361 425 568 488 479 436 l 285 418 l 285 722 l 364 722 z "},"Q":{"ha":1017,"x_min":0,"x_max":0,"o":"m 774 -110 b 813 -29 825 -99 836 -75 l 747 93 b 982 493 896 169 982 315 b 851 819 982 625 939 733 b 510 947 764 904 650 947 b 167 819 368 947 254 904 b 35 493 79 733 35 625 b 167 168 35 361 79 253 b 510 39 254 82 368 39 b 563 42 521 39 539 40 l 625 -68 b 665 -124 643 -99 656 -117 b 713 -124 674 -129 689 -129 z m 308 668 b 508 739 357 715 424 739 b 708 667 593 739 660 715 b 781 493 757 618 781 561 b 708 319 781 425 757 368 b 508 247 660 271 593 247 b 308 319 424 247 357 271 b 236 493 260 367 236 425 b 308 668 236 561 260 619 z "},"R":{"ha":825,"x_min":0,"x_max":0,"o":"m 746 -26 b 785 54 794 -17 808 11 l 636 325 b 769 596 725 382 769 472 b 358 931 769 819 625 931 l 139 931 b 83 875 101 931 83 913 l 83 56 b 139 0 83 18 101 0 l 229 0 b 285 56 267 0 285 18 l 285 261 l 358 261 b 451 267 394 261 425 263 l 597 15 b 638 -40 615 -15 628 -33 b 685 -40 646 -46 661 -46 z m 364 722 b 568 596 500 722 568 681 b 364 469 568 511 500 469 l 285 469 l 285 722 l 364 722 z "},"S":{"ha":703,"x_min":0,"x_max":0,"o":"m 474 243 b 372 178 474 200 440 178 b 135 247 299 178 219 201 b 74 228 101 264 89 257 l 33 144 b 56 76 18 110 24 100 b 364 -17 135 19 258 -17 b 675 264 558 -17 675 88 b 263 694 675 526 263 564 b 356 753 263 733 293 753 b 518 708 397 753 451 738 b 579 728 547 696 567 703 l 618 813 b 596 881 631 844 628 860 b 356 947 535 919 435 947 b 61 681 172 947 61 842 b 474 243 61 407 474 382 z "},"T":{"ha":839,"x_min":0,"x_max":0,"o":"m 521 722 l 765 722 b 819 776 801 722 819 740 l 819 875 b 764 931 819 913 801 931 l 75 931 b 19 875 38 931 19 913 l 19 776 b 74 722 19 740 38 722 l 319 722 l 319 56 b 375 0 319 18 338 0 l 465 0 b 521 56 503 0 521 18 z "},"U":{"ha":914,"x_min":0,"x_max":0,"o":"m 629 83 b 685 28 629 46 647 28 l 775 28 b 831 83 813 28 831 46 l 831 847 b 775 903 831 885 813 903 l 685 903 b 629 847 647 903 629 885 l 629 392 b 567 240 629 329 608 278 b 418 183 525 203 475 183 b 276 378 324 183 276 239 l 276 875 b 221 931 276 913 258 931 l 131 931 b 75 875 93 931 75 913 l 75 294 b 351 -17 75 93 186 -17 b 629 128 475 -17 568 32 l 629 83 z "},"V":{"ha":882,"x_min":0,"x_max":0,"o":"m 550 0 b 617 56 589 0 604 10 l 857 874 b 818 954 874 924 867 942 l 736 978 b 649 922 688 993 664 979 l 479 299 l 222 888 b 128 943 196 947 182 954 l 64 929 b 25 849 13 918 3 899 l 378 56 b 444 0 400 7 407 0 z "},"W":{"ha":1313,"x_min":0,"x_max":0,"o":"m 488 0 b 554 56 526 0 543 10 l 664 489 l 801 56 b 868 0 817 10 829 0 l 967 0 b 1033 56 1006 0 1018 10 l 1288 874 b 1249 954 1304 924 1299 943 l 1174 971 b 1086 915 1124 982 1103 972 l 907 317 l 754 783 b 688 839 739 829 726 839 l 603 839 b 536 783 564 839 547 829 l 426 335 l 226 888 b 139 943 206 943 189 953 l 64 929 b 25 849 14 919 4 899 l 336 56 b 403 0 354 7 365 0 z "},"X":{"ha":888,"x_min":0,"x_max":0,"o":"m 444 296 l 656 10 b 733 -1 676 -19 703 -24 l 806 51 b 818 131 836 74 840 100 l 582 451 l 822 829 b 804 906 840 858 835 885 l 721 961 b 642 947 689 983 663 979 l 444 636 l 232 924 b 154 935 210 953 183 957 l 82 882 b 69 804 53 861 49 835 l 308 479 l 67 99 b 83 21 47 67 53 42 l 168 -35 b 246 -17 199 -56 225 -49 z "},"Y":{"ha":789,"x_min":0,"x_max":0,"o":"m 457 0 b 513 56 494 0 513 18 l 513 304 l 765 874 b 726 954 788 924 778 943 l 651 971 b 564 915 603 982 590 971 l 403 563 l 219 888 b 181 942 201 917 189 935 b 132 943 172 947 156 947 l 64 929 b 25 849 13 918 -1 899 l 311 322 l 311 56 b 367 0 311 18 329 0 l 457 0 z "},"Z":{"ha":750,"x_min":0,"x_max":0,"o":"m 657 0 b 713 56 694 0 713 18 l 713 153 b 657 208 713 190 694 208 l 297 208 l 668 729 b 678 747 674 736 676 742 b 685 778 682 757 685 767 l 685 875 b 629 931 685 913 667 931 l 107 931 b 51 875 69 931 51 913 l 51 778 b 107 722 51 740 69 722 l 424 722 l 53 197 l 49 192 b 38 153 42 182 38 169 l 38 56 b 93 0 38 18 56 0 l 657 0 z "},"[":{"ha":354,"x_min":0,"x_max":0,"o":"m 240 801 b 268 832 240 825 246 832 l 317 832 b 372 881 354 832 372 849 l 372 957 b 317 1006 372 989 354 1006 l 200 1006 b 60 856 100 1006 60 961 l 60 11 b 200 -139 60 -94 100 -139 l 317 -139 b 372 -90 354 -139 372 -122 l 372 -14 b 317 35 372 18 354 35 l 268 35 b 240 65 246 35 240 42 l 240 801 z "},"\\":{"ha":694,"x_min":0,"x_max":0,"o":"m 538 -108 b 614 -129 556 -142 582 -149 l 692 -83 b 713 -7 724 -64 731 -39 l 157 986 b 81 1007 138 1019 113 1026 l 3 961 b -18 885 -29 942 -36 917 l 538 -108 z "},"]":{"ha":354,"x_min":0,"x_max":0,"o":"m 114 65 b 86 35 114 42 108 35 l 38 35 b -18 -14 0 35 -18 18 l -18 -90 b 38 -139 -18 -122 0 -139 l 154 -139 b 294 11 254 -139 294 -94 l 294 856 b 154 1006 294 961 254 1006 l 38 1006 b -18 957 0 1006 -18 989 l -18 881 b 38 832 -18 849 0 832 l 86 832 b 114 801 108 832 114 825 z "},"^":{"ha":694,"x_min":0,"x_max":0,"o":"m 347 710 l 435 521 b 504 465 451 483 475 465 l 588 465 b 629 521 626 465 644 488 l 465 875 b 396 931 449 913 425 931 l 299 931 b 229 875 269 931 246 913 l 65 521 b 107 465 50 488 68 465 l 190 465 b 260 521 219 465 243 483 z "},"_":{"ha":747,"x_min":0,"x_max":0,"o":"m -18 -224 b 17 -257 -18 -244 -4 -258 l 735 -228 b 769 -192 758 -226 769 -214 l 769 -81 b 735 -47 769 -60 756 -46 l 17 -78 b -18 -114 -7 -79 -18 -92 l -18 -224 z "},"`":{"ha":694,"x_min":0,"x_max":0,"o":"m 485 789 b 513 844 519 789 528 807 l 446 992 b 369 1038 432 1022 407 1038 l 229 1038 b 214 982 192 1038 190 1014 l 322 844 b 406 789 351 807 379 789 z "},"a":{"ha":706,"x_min":0,"x_max":0,"o":"m 613 -42 b 654 0 640 -42 654 -28 l 654 407 b 338 725 654 603 532 725 b 65 642 226 725 136 697 b 60 583 47 629 46 610 l 100 503 b 151 478 115 474 132 465 b 315 531 208 513 264 531 b 460 403 404 531 453 488 b 294 439 403 426 347 439 b 25 213 113 439 25 344 b 93 49 25 147 47 92 b 267 -17 138 6 196 -17 b 460 60 343 -17 407 8 l 460 0 b 501 -42 460 -28 474 -42 l 613 -42 z m 315 157 b 219 218 261 157 219 181 b 315 279 219 258 251 279 b 460 251 364 279 411 269 l 460 246 b 315 157 460 192 388 157 z "},"b":{"ha":774,"x_min":0,"x_max":0,"o":"m 396 200 b 257 228 346 200 300 210 l 257 325 b 411 510 257 443 313 510 b 550 356 494 510 550 446 b 396 200 550 256 489 200 z m 410 0 b 650 99 506 0 586 33 b 744 356 713 164 744 249 b 660 613 744 461 717 547 b 451 711 603 678 533 711 b 257 632 372 711 307 685 l 257 944 b 201 1000 257 982 239 1000 l 118 1000 b 63 944 81 1000 63 982 l 63 28 b 118 -28 63 -10 81 -28 l 201 -28 b 257 26 239 -28 257 -10 b 410 0 308 8 358 0 z "},"c":{"ha":672,"x_min":0,"x_max":0,"o":"m 224 338 b 375 493 224 439 279 493 b 549 440 429 493 488 475 b 600 465 569 428 586 436 l 639 553 b 633 611 651 579 649 599 b 374 694 567 663 467 694 b 124 597 269 694 186 663 b 29 338 61 532 29 444 b 124 81 29 231 61 144 b 374 -17 186 15 269 -17 b 633 67 467 -17 567 15 b 639 125 649 79 651 99 l 600 213 b 549 238 586 242 569 250 b 375 185 488 203 429 185 b 224 338 274 185 224 236 z "},"d":{"ha":774,"x_min":0,"x_max":0,"o":"m 656 -28 b 711 28 693 -28 711 -10 l 711 944 b 656 1000 711 982 693 1000 l 572 1000 b 517 944 535 1000 517 982 l 517 694 b 378 711 471 706 424 711 b 129 614 278 711 194 679 b 29 356 63 549 29 463 b 114 99 29 250 57 164 b 322 0 171 33 240 0 b 517 79 401 0 467 26 l 517 28 b 572 -28 517 -10 535 -28 l 656 -28 z m 363 201 b 224 356 279 201 224 265 b 378 511 224 456 285 511 b 517 490 429 511 475 504 l 517 386 b 363 201 517 268 461 201 z "},"e":{"ha":700,"x_min":0,"x_max":0,"o":"m 393 -17 b 653 67 486 -17 586 15 b 658 125 674 90 671 92 l 631 197 b 579 222 621 224 600 235 b 419 164 510 183 457 164 b 236 268 329 164 268 199 l 624 313 b 678 397 669 318 678 338 b 596 626 678 493 650 569 b 378 711 540 683 468 711 b 121 608 267 711 181 676 b 29 347 60 539 29 451 b 129 85 29 239 63 151 b 393 -17 194 17 283 -17 z m 364 531 b 478 447 424 531 465 497 l 228 418 b 364 531 243 493 289 531 z "},"f":{"ha":567,"x_min":0,"x_max":0,"o":"m 351 482 l 501 492 b 549 539 529 493 549 513 l 549 650 b 510 693 549 679 539 694 l 351 683 b 444 828 351 789 367 833 l 485 825 b 529 857 511 824 525 835 l 547 950 b 499 1013 554 994 539 1008 l 458 1015 b 240 943 368 1022 296 997 b 157 717 185 889 157 813 l 157 671 l 67 665 b 19 618 39 664 19 644 l 19 507 b 58 464 19 478 29 463 l 157 469 l 157 42 b 199 0 157 14 171 0 l 310 0 b 351 42 338 0 351 14 z "},"g":{"ha":772,"x_min":0,"x_max":0,"o":"m 361 229 b 222 356 278 229 222 282 b 376 511 222 456 283 511 b 515 490 428 511 474 504 l 515 414 b 361 229 515 296 460 229 z m 385 -292 b 710 13 579 -292 710 -194 l 710 708 b 654 764 710 746 692 764 l 571 764 b 515 708 533 764 515 746 l 515 694 b 376 711 469 706 424 711 b 128 614 276 711 193 679 b 28 356 61 549 28 463 b 113 119 28 258 56 179 b 321 28 169 58 239 28 b 515 107 400 28 465 54 l 515 32 b 382 -90 515 -50 471 -90 b 186 -46 306 -90 240 -75 b 135 -71 165 -33 147 -42 l 101 -154 b 107 -212 89 -183 86 -189 b 385 -292 172 -265 265 -292 z "},"h":{"ha":763,"x_min":0,"x_max":0,"o":"m 654 -28 b 710 28 692 -28 710 -10 l 710 422 b 475 711 710 615 618 711 b 257 590 393 711 307 668 l 257 917 b 201 972 257 954 239 972 l 118 972 b 63 917 81 972 63 954 l 63 56 b 118 0 63 18 81 0 l 201 0 b 257 56 239 0 257 18 l 257 325 b 408 510 257 449 314 510 b 515 360 479 510 515 460 l 515 28 b 571 -28 515 -10 533 -28 l 654 -28 z "},"i":{"ha":319,"x_min":0,"x_max":0,"o":"m 243 799 b 243 965 289 846 289 919 b 76 965 197 1011 122 1011 b 76 799 31 919 31 846 b 243 799 122 751 197 751 z m 257 611 b 201 667 257 649 239 667 l 118 667 b 63 611 81 667 63 649 l 63 56 b 118 0 63 18 81 0 l 201 0 b 257 56 239 0 257 18 z "},"j":{"ha":317,"x_min":0,"x_max":0,"o":"m 240 771 b 240 938 286 818 286 892 b 74 938 194 983 119 983 b 74 771 28 892 28 818 b 240 771 119 724 194 724 z m -25 -308 b 254 -4 164 -308 254 -197 l 254 597 b 213 639 254 625 240 639 l 101 639 b 60 597 74 639 60 625 l 60 29 b -24 -107 60 -75 33 -107 b -83 -99 -33 -107 -54 -104 b -128 -131 -104 -94 -119 -106 l -167 -233 b -129 -293 -179 -267 -168 -283 b -25 -308 -92 -303 -57 -308 z "},"k":{"ha":700,"x_min":0,"x_max":0,"o":"m 635 -1 b 672 76 685 8 697 35 l 472 424 l 650 588 b 642 661 674 608 671 632 l 578 724 b 503 719 556 746 531 744 l 257 493 l 257 917 b 201 972 257 954 239 972 l 118 972 b 63 917 81 972 63 954 l 63 56 b 118 0 63 18 81 0 l 201 0 b 257 56 239 0 257 18 l 257 226 l 335 297 l 490 39 b 574 -14 524 -17 529 -24 z "},"l":{"ha":326,"x_min":0,"x_max":0,"o":"m 264 944 b 208 1000 264 982 246 1000 l 118 1000 b 63 944 81 1000 63 982 l 63 56 b 118 0 63 18 81 0 l 208 0 b 264 56 246 0 264 18 z "},"m":{"ha":1174,"x_min":0,"x_max":0,"o":"m 689 308 b 819 494 689 438 729 494 b 926 343 890 494 926 444 l 926 56 b 982 0 926 18 944 0 l 1065 0 b 1121 56 1103 0 1121 18 l 1121 406 b 886 694 1121 599 1029 694 b 667 567 788 694 714 651 b 454 711 631 663 560 711 b 257 597 369 711 304 674 l 257 694 b 201 750 257 732 239 750 l 118 750 b 63 694 81 750 63 732 l 63 56 b 118 0 63 18 81 0 l 201 0 b 257 56 239 0 257 18 l 257 325 b 388 511 257 454 297 511 b 494 360 458 511 494 461 l 494 28 b 550 -28 494 -10 513 -28 l 633 -28 b 689 28 671 -28 689 -10 z "},"n":{"ha":763,"x_min":0,"x_max":0,"o":"m 257 325 b 408 510 257 449 314 510 b 515 360 479 510 515 460 l 515 56 b 571 0 515 18 533 0 l 654 0 b 710 56 692 0 710 18 l 710 422 b 475 711 710 615 618 711 b 257 590 393 711 307 668 l 257 694 b 201 750 257 732 239 750 l 118 750 b 63 694 81 750 63 732 l 63 28 b 118 -28 63 -10 81 -28 l 201 -28 b 257 28 239 -28 257 -10 z "},"o":{"ha":756,"x_min":0,"x_max":0,"o":"m 632 86 b 726 347 694 154 726 240 b 632 610 726 454 694 542 b 378 711 569 678 485 711 b 124 610 271 711 186 678 b 29 347 61 542 29 454 b 124 86 29 240 61 154 b 378 -17 186 18 271 -17 b 632 86 485 -17 569 18 z m 267 225 b 224 347 238 251 224 292 b 267 471 224 403 238 444 b 378 510 294 497 332 510 b 490 471 424 510 461 497 b 532 347 518 444 532 403 b 490 225 532 292 518 251 b 378 185 461 199 424 185 b 267 225 332 185 294 199 z "},"p":{"ha":774,"x_min":0,"x_max":0,"o":"m 396 183 b 257 204 344 183 299 190 l 257 308 b 411 493 257 426 313 493 b 550 339 494 493 550 429 b 396 183 550 239 489 183 z m 257 0 b 396 -17 303 -11 349 -17 b 646 82 496 -17 579 17 b 744 339 711 147 744 232 b 660 596 744 444 717 531 b 451 694 603 661 533 694 b 257 615 372 694 307 668 l 257 667 b 201 722 257 704 239 722 l 118 722 b 63 667 81 722 63 704 l 63 -236 b 118 -292 63 -274 81 -292 l 201 -292 b 257 -236 239 -292 257 -274 z "},"q":{"ha":774,"x_min":0,"x_max":0,"o":"m 656 -292 b 711 -236 693 -292 711 -274 l 711 681 b 656 736 711 718 693 736 l 572 736 b 517 685 536 736 518 719 b 364 711 465 703 415 711 b 125 614 268 711 188 679 b 29 356 61 549 29 463 b 114 99 29 250 57 164 b 322 0 171 33 240 0 b 517 79 401 0 467 26 l 517 -236 b 572 -292 517 -274 535 -292 l 656 -292 z m 363 201 b 224 356 279 201 224 265 b 378 511 224 456 285 511 b 517 483 428 511 474 501 l 517 386 b 363 201 517 268 461 201 z "},"r":{"ha":546,"x_min":0,"x_max":0,"o":"m 257 325 b 392 496 257 435 313 496 b 481 485 417 496 446 492 b 518 507 504 479 517 486 l 532 667 b 519 693 533 678 529 686 b 439 711 500 706 474 711 b 257 593 372 711 301 667 l 257 708 b 201 764 257 746 239 764 l 118 764 b 63 708 81 764 63 746 l 63 56 b 118 0 63 18 81 0 l 201 0 b 257 56 239 0 257 18 z "},"s":{"ha":594,"x_min":0,"x_max":0,"o":"m 43 488 b 382 204 43 228 382 303 b 308 167 382 179 357 167 b 119 219 247 167 185 185 b 68 194 99 231 78 218 l 40 117 b 46 58 32 93 24 78 b 297 -17 108 8 192 -17 b 489 43 371 -17 435 3 b 569 228 543 83 569 144 b 231 497 569 479 231 397 b 285 535 231 522 249 535 b 458 492 328 535 386 521 b 510 517 482 482 499 490 l 539 589 b 533 647 551 615 549 635 b 304 711 476 690 400 711 b 43 488 143 711 43 619 z "},"t":{"ha":642,"x_min":0,"x_max":0,"o":"m 613 44 b 618 103 629 57 631 76 l 582 183 b 531 208 569 213 551 221 b 424 168 488 182 453 168 b 329 286 361 168 329 207 l 329 419 l 521 408 b 568 456 549 407 568 428 l 568 567 b 529 610 568 594 556 608 l 329 622 l 329 792 b 288 833 329 819 315 833 l 176 833 b 135 792 149 833 135 819 l 135 633 l 63 638 b 15 590 35 639 15 618 l 15 479 b 54 436 15 451 28 438 l 135 432 l 135 251 b 374 -31 135 67 219 -31 b 613 44 467 -31 547 -6 z "},"u":{"ha":763,"x_min":0,"x_max":0,"o":"m 506 56 b 561 0 506 18 524 0 l 644 0 b 700 56 682 0 700 18 l 700 694 b 644 750 700 732 682 750 l 561 750 b 506 694 524 750 506 732 l 506 369 b 354 185 506 246 449 185 b 247 335 283 185 247 235 l 247 639 b 192 694 247 676 229 694 l 108 694 b 53 639 71 694 53 676 l 53 272 b 288 -17 53 79 144 -17 b 506 104 369 -17 456 26 l 506 56 z "},"v":{"ha":714,"x_min":0,"x_max":0,"o":"m 440 0 b 504 53 478 0 489 8 l 694 635 b 657 711 711 681 706 699 l 578 735 b 496 681 532 747 514 736 l 367 272 l 201 632 b 118 686 174 692 167 701 l 53 658 b 15 582 1 636 -3 631 l 271 53 b 335 0 293 7 300 0 z "},"w":{"ha":1043,"x_min":0,"x_max":0,"o":"m 413 0 b 476 53 450 0 465 10 l 538 307 l 626 53 b 690 0 643 8 656 0 l 796 0 b 860 53 833 0 849 8 l 1022 635 b 985 711 1038 681 1031 699 l 906 735 b 824 681 860 750 836 736 l 719 260 l 615 569 b 549 625 599 615 586 625 l 485 625 b 418 569 446 625 429 615 l 351 256 l 201 632 b 118 686 178 692 164 703 l 53 658 b 15 582 1 636 -3 632 l 243 53 b 307 0 261 8 272 0 z "},"x":{"ha":740,"x_min":0,"x_max":0,"o":"m 686 21 b 706 94 718 43 725 68 l 517 344 l 708 536 b 700 611 732 560 729 585 l 631 678 b 556 672 607 701 582 700 l 392 508 l 231 721 b 157 739 208 751 183 757 l 86 689 b 67 615 54 667 47 642 l 253 369 l 25 140 b 33 64 3 117 6 92 l 103 -3 b 178 6 125 -25 150 -22 l 378 206 l 542 -11 b 615 -29 564 -42 589 -47 z "},"y":{"ha":763,"x_min":0,"x_max":0,"o":"m 375 -292 b 700 13 569 -292 700 -194 l 700 639 b 644 694 700 676 682 694 l 561 694 b 506 639 524 694 506 676 l 506 397 b 354 213 506 274 449 213 b 247 363 283 213 247 263 l 247 667 b 192 722 247 704 229 722 l 108 722 b 53 667 71 722 53 704 l 53 300 b 288 11 53 107 144 11 b 506 132 369 11 456 54 l 506 32 b 372 -90 506 -50 461 -90 b 176 -32 313 -90 247 -71 b 125 -71 150 -19 142 -28 l 92 -154 b 97 -212 79 -183 76 -189 b 375 -292 163 -265 256 -292 z "},"z":{"ha":649,"x_min":0,"x_max":0,"o":"m 563 0 b 618 56 600 0 618 18 l 618 139 b 563 194 618 176 600 194 l 285 194 l 585 507 b 593 517 586 508 592 515 b 599 528 596 521 597 524 b 600 529 600 528 600 528 l 600 531 b 603 539 601 532 603 538 b 604 556 604 542 604 547 l 604 639 b 549 694 604 676 586 694 l 97 694 b 42 639 60 694 42 676 l 42 556 b 97 500 42 518 60 500 l 336 500 l 50 197 b 35 147 35 182 31 165 l 35 56 b 90 0 35 18 53 0 l 563 0 z "},"{":{"ha":476,"x_min":0,"x_max":0,"o":"m 457 -21 b 401 28 457 11 439 28 l 353 28 b 325 58 331 28 325 35 l 325 297 b 238 431 325 368 308 393 b 325 563 308 465 325 492 l 325 801 b 353 832 325 825 331 832 l 401 832 b 457 881 439 832 457 849 l 457 957 b 401 1006 457 989 439 1006 l 285 1006 b 144 856 185 1006 144 961 l 144 547 b 117 517 144 524 139 517 l 68 517 b 13 468 31 517 13 500 l 13 392 b 68 343 13 360 31 343 l 117 343 b 144 313 139 343 144 336 l 144 4 b 285 -146 144 -101 185 -146 l 401 -146 b 457 -97 439 -146 457 -129 z "},"|":{"ha":308,"x_min":0,"x_max":0,"o":"m 251 982 b 196 1038 251 1019 233 1038 l 113 1038 b 57 982 75 1038 57 1019 l 57 -83 b 113 -139 57 -121 75 -139 l 196 -139 b 251 -83 233 -139 251 -121 z "},"}":{"ha":476,"x_min":0,"x_max":0,"o":"m 13 -97 b 68 -146 13 -129 31 -146 l 185 -146 b 325 4 285 -146 325 -101 l 325 313 b 353 343 325 336 331 343 l 401 343 b 457 392 439 343 457 360 l 457 468 b 401 517 457 500 439 517 l 353 517 b 325 547 331 517 325 524 l 325 856 b 185 1006 325 961 285 1006 l 68 1006 b 13 957 31 1006 13 989 l 13 881 b 68 832 13 849 31 832 l 117 832 b 144 801 139 832 144 825 l 144 563 b 232 431 144 507 160 465 b 144 297 160 393 144 353 l 144 58 b 117 28 144 35 139 28 l 68 28 b 13 -21 31 28 13 11 l 13 -97 z "},"~":{"ha":694,"x_min":0,"x_max":0,"o":"m 456 353 b 579 371 499 353 539 358 b 621 431 607 379 621 399 l 621 519 b 567 553 621 551 603 563 b 446 533 521 540 481 533 b 347 546 424 533 390 538 b 239 558 303 554 267 558 b 115 540 196 558 156 553 b 74 481 88 532 74 513 l 74 392 b 128 358 74 360 92 349 b 249 378 174 371 214 378 b 351 365 272 378 306 374 b 456 353 397 357 432 353 z "}," ":{"ha":278,"x_min":0,"x_max":0,"o":""},"¡":{"ha":333,"x_min":0,"x_max":0,"o":"m 75 617 b 36 524 49 590 36 560 b 167 393 36 453 96 393 b 297 524 238 393 297 453 b 75 617 303 636 149 703 z m 271 256 b 215 311 271 293 253 311 l 118 311 b 63 256 81 311 63 293 l 63 -236 b 118 -292 63 -274 81 -292 l 215 -292 b 271 -236 253 -292 271 -274 z "},"¢":{"ha":679,"x_min":0,"x_max":0,"o":"m 464 -8 b 636 67 535 6 592 31 b 642 125 651 79 654 99 l 603 213 b 551 238 589 242 572 250 b 378 185 490 203 432 185 b 226 338 276 185 226 236 b 378 493 226 439 282 493 b 551 440 432 493 490 475 b 603 465 572 428 589 436 l 642 553 b 636 611 654 579 651 599 b 464 686 592 647 535 672 l 464 814 b 408 869 464 851 446 869 l 325 869 b 269 814 288 869 269 851 l 269 681 b 32 338 121 640 32 514 b 269 -3 32 161 121 38 l 269 -111 b 325 -167 269 -149 288 -167 l 408 -167 b 464 -111 446 -167 464 -149 z "},"£":{"ha":824,"x_min":0,"x_max":0,"o":"m 697 0 b 753 56 735 1 753 19 l 753 140 b 699 194 753 178 733 196 l 404 186 l 404 363 l 597 363 b 653 411 636 363 653 374 l 653 508 b 597 557 653 546 636 557 l 404 557 b 532 739 408 690 453 739 b 693 696 581 739 635 725 b 753 717 722 682 742 689 l 794 819 b 786 871 804 844 801 861 b 529 947 697 922 611 947 b 203 650 333 947 203 849 l 203 557 l 94 557 b 39 508 56 557 39 546 l 39 411 b 94 363 39 374 56 363 l 203 363 l 203 181 l 93 178 b 39 124 57 176 39 158 l 39 39 b 94 -17 39 1 57 -18 z "},"¤":{"ha":726,"x_min":0,"x_max":0,"o":"m 364 329 b 232 465 286 329 232 372 b 364 600 232 558 286 600 b 499 465 443 600 499 558 b 364 329 499 372 443 329 z m 221 199 b 507 199 304 153 424 153 l 568 138 b 642 133 594 111 618 110 l 678 169 b 669 242 700 190 697 214 l 610 301 b 650 465 636 347 650 403 b 611 628 650 526 638 581 l 669 686 b 678 758 697 714 700 738 l 642 794 b 568 790 618 818 594 817 l 508 731 b 219 731 426 776 301 776 l 160 790 b 86 794 133 817 110 818 l 50 758 b 58 686 28 738 31 714 l 117 628 b 78 465 90 581 78 526 b 118 301 78 403 92 347 l 58 242 b 50 169 31 214 28 190 l 86 133 b 160 138 110 110 133 111 z "},"¥":{"ha":789,"x_min":0,"x_max":0,"o":"m 513 204 l 679 204 b 735 253 718 204 735 215 l 735 294 b 679 343 735 332 718 343 l 529 343 l 561 413 l 679 413 b 735 461 718 413 735 424 l 735 503 b 679 551 735 540 718 551 l 622 551 l 765 874 b 726 954 788 924 778 943 l 651 971 b 564 915 603 982 590 971 l 403 563 l 219 888 b 181 942 201 917 189 935 b 132 943 172 947 156 947 l 64 929 b 25 849 13 918 -1 899 l 186 551 l 144 551 b 89 503 106 551 89 540 l 89 461 b 144 413 89 424 106 413 l 263 413 l 300 343 l 144 343 b 89 294 106 343 89 332 l 89 253 b 144 204 89 215 106 204 l 311 204 l 311 56 b 367 0 311 18 329 0 l 457 0 b 513 56 494 0 513 18 z "},"¦":{"ha":308,"x_min":0,"x_max":0,"o":"m 251 982 b 196 1038 251 1019 233 1038 l 113 1038 b 57 982 75 1038 57 1019 l 57 621 b 113 565 57 583 75 565 l 196 565 b 251 621 233 565 251 583 z m 251 278 b 196 333 251 315 233 333 l 113 333 b 57 278 75 333 57 315 l 57 -83 b 113 -139 57 -121 75 -139 l 196 -139 b 251 -83 233 -139 251 -121 z "},"§":{"ha":649,"x_min":0,"x_max":0,"o":"m 235 586 b 276 631 235 615 249 631 b 368 608 307 631 338 624 b 414 553 399 593 414 574 b 372 508 414 524 400 508 b 281 532 342 508 311 517 b 235 586 250 547 235 565 z m 328 79 b 572 278 485 79 572 167 b 525 424 572 343 557 392 b 586 556 565 463 586 507 b 374 761 586 654 533 704 l 308 785 b 249 842 268 799 249 818 b 306 879 249 867 268 879 b 489 814 350 879 411 857 b 540 839 510 803 531 813 l 572 918 b 567 976 585 944 582 964 b 321 1060 499 1032 417 1060 b 76 861 164 1060 76 972 b 124 715 76 796 92 747 b 63 583 83 676 63 632 b 275 378 63 485 115 435 l 340 354 b 400 297 381 340 400 321 b 343 260 400 272 381 260 b 160 325 299 260 238 282 b 108 300 139 336 118 326 l 76 221 b 82 163 64 194 67 175 b 328 79 150 107 232 79 z "},"¨":{"ha":694,"x_min":0,"x_max":0,"o":"m 278 835 b 308 910 299 856 308 881 b 201 1017 308 967 258 1017 b 94 910 144 1017 94 967 b 278 835 89 818 217 765 z m 569 835 b 600 910 590 856 600 881 b 493 1017 600 967 550 1017 b 386 910 436 1017 386 967 b 569 835 381 818 508 765 z "},"©":{"ha":1424,"x_min":0,"x_max":0,"o":"m 1182 -3 b 1361 463 1300 114 1360 269 b 1185 928 1363 656 1303 810 b 714 1104 1065 1046 908 1104 b 242 929 518 1104 360 1046 b 63 463 122 811 63 656 b 240 -3 63 269 122 114 b 711 -176 358 -118 515 -176 b 1182 -3 907 -176 1064 -118 z m 714 -12 b 347 118 556 -12 433 31 b 218 463 261 206 218 319 b 347 807 218 603 261 718 b 713 940 433 896 556 940 b 1079 807 869 940 992 896 b 1206 463 1167 717 1208 603 b 1075 118 1204 319 1160 206 b 714 -12 990 31 869 -12 z m 586 463 b 731 610 586 558 638 610 b 894 560 782 610 838 593 b 943 583 915 549 931 557 l 981 667 b 975 722 993 690 990 710 b 729 801 910 775 828 801 b 492 708 631 801 551 771 b 401 463 432 646 401 564 b 492 218 401 360 432 278 b 729 126 551 157 631 126 b 975 206 828 126 910 153 b 981 261 990 218 993 236 l 943 343 b 894 367 931 371 915 379 b 731 317 838 333 782 317 b 586 463 635 317 586 365 z "},"ª":{"ha":706,"x_min":0,"x_max":0,"o":"m 322 515 b 247 561 279 515 247 533 b 322 606 247 590 272 606 b 435 586 360 606 397 599 l 435 582 b 322 515 435 542 379 515 z m 435 418 b 468 388 435 397 446 388 l 554 388 b 586 418 575 388 586 397 l 586 703 b 340 939 586 858 496 939 b 128 876 253 939 182 918 b 124 833 114 867 113 853 l 154 772 b 194 754 167 751 179 746 b 322 792 235 779 278 792 b 435 708 397 792 435 764 l 435 703 b 306 726 399 718 356 726 b 96 557 165 726 96 656 b 285 385 96 457 174 385 b 435 442 344 385 394 404 l 435 418 z "},"«":{"ha":832,"x_min":0,"x_max":0,"o":"m 53 440 b 29 388 32 424 29 415 l 29 308 b 53 256 29 281 32 274 l 292 60 b 357 64 319 38 335 38 l 410 125 b 401 183 425 144 422 164 l 204 349 l 451 556 b 460 614 474 574 476 593 l 407 675 b 342 679 388 699 365 700 l 53 440 z m 694 17 b 760 21 718 -4 740 -3 l 813 82 b 804 140 829 103 826 122 l 565 340 l 763 506 b 771 564 783 525 786 544 l 718 625 b 653 629 696 651 681 651 l 414 433 b 390 381 393 415 390 408 l 390 301 b 414 249 390 274 393 265 z "},"¬":{"ha":694,"x_min":0,"x_max":0,"o":"m 565 267 b 621 322 603 267 621 285 l 621 563 b 565 618 621 600 603 618 l 129 618 b 74 563 92 618 74 600 l 74 493 b 129 438 74 456 92 438 l 440 438 l 440 322 b 496 267 440 285 458 267 l 565 267 z "},"­":{"ha":0,"x_min":0,"x_max":0,"o":""},"®":{"ha":819,"x_min":0,"x_max":0,"o":"m 414 275 b 674 371 521 275 608 307 b 771 625 739 435 771 519 b 674 881 772 731 739 815 b 417 978 608 946 522 978 b 158 882 310 978 224 946 b 60 625 93 817 60 732 b 157 371 60 519 92 435 b 414 275 222 307 307 275 z m 417 357 b 138 625 238 357 138 464 b 415 894 138 785 238 894 b 622 819 503 894 572 869 b 693 625 672 768 696 704 b 417 357 693 465 590 357 z m 413 747 b 479 699 457 747 479 731 b 413 651 479 667 457 651 l 367 651 l 367 747 l 413 747 z m 367 583 l 415 583 l 482 457 l 490 450 l 533 450 b 560 483 563 450 572 461 l 499 596 b 567 699 544 613 567 647 b 407 815 567 786 508 815 l 307 815 b 283 794 292 815 283 808 l 283 472 b 307 450 283 457 292 450 l 343 450 b 367 472 358 450 367 457 z "},"¯":{"ha":694,"x_min":0,"x_max":0,"o":"m 188 949 b 132 893 150 949 132 931 l 132 844 b 188 789 132 807 150 789 l 507 789 b 563 844 544 789 563 807 l 563 893 b 507 949 563 931 544 949 z "},"°":{"ha":694,"x_min":0,"x_max":0,"o":"m 511 561 b 572 722 551 603 572 657 b 511 885 572 788 551 842 b 347 947 471 926 415 947 b 183 885 279 947 224 926 b 122 722 143 842 122 788 b 183 561 122 657 143 603 b 347 499 224 519 279 499 b 511 561 415 499 471 519 z m 283 653 b 258 722 267 668 258 690 b 283 792 258 754 267 776 b 414 792 315 821 379 821 b 439 722 431 776 439 754 b 414 653 439 690 431 668 b 283 653 379 624 315 624 z "},"±":{"ha":694,"x_min":0,"x_max":0,"o":"m 579 128 b 635 183 617 128 635 146 l 635 253 b 579 308 635 290 617 308 l 438 308 l 438 447 l 579 447 b 635 503 617 447 635 465 l 635 572 b 579 628 635 610 617 628 l 438 628 l 438 785 b 382 840 438 822 419 840 l 313 840 b 257 785 275 840 257 822 l 257 628 l 115 628 b 60 572 78 628 60 610 l 60 503 b 115 447 60 465 78 447 l 257 447 l 257 308 l 115 308 b 60 253 78 308 60 290 l 60 183 b 115 128 60 146 78 128 l 579 128 z "},"²":{"ha":449,"x_min":0,"x_max":0,"o":"m 376 432 b 407 463 397 432 407 442 l 407 540 b 376 571 407 561 397 571 l 208 571 b 264 610 218 578 236 592 b 326 657 290 628 311 644 b 388 792 354 682 388 732 b 219 949 388 888 326 949 b 67 899 161 949 110 932 b 63 867 57 892 56 881 l 92 797 b 126 788 99 782 110 779 b 213 810 156 803 185 810 b 260 776 244 810 260 799 b 151 665 260 739 206 696 b 42 540 96 635 42 585 l 42 463 b 72 432 42 442 51 432 l 376 432 z "},"³":{"ha":457,"x_min":0,"x_max":0,"o":"m 224 418 b 400 569 335 418 400 481 b 310 697 400 626 367 675 b 389 814 363 725 389 764 b 221 947 389 893 325 947 b 63 896 161 947 108 931 b 60 864 56 890 54 879 l 81 806 b 110 792 88 788 97 783 b 208 822 147 813 179 822 b 261 789 243 822 261 811 b 179 749 261 763 233 749 l 163 749 b 132 718 142 749 132 739 l 132 654 b 163 624 132 633 142 624 l 196 624 b 272 583 247 624 272 610 b 217 543 272 560 250 543 b 106 572 176 543 139 553 b 76 558 93 579 83 575 l 56 501 b 58 469 49 486 50 476 b 224 418 104 435 158 418 z "},"´":{"ha":694,"x_min":0,"x_max":0,"o":"m 493 982 b 478 1038 517 1014 515 1038 l 338 1038 b 261 992 300 1038 275 1022 l 194 844 b 222 789 179 807 188 789 l 301 789 b 385 844 328 789 356 807 z "},"µ":{"ha":763,"x_min":0,"x_max":0,"o":"m 247 -14 b 288 -17 264 -15 278 -17 b 506 104 369 -17 456 26 l 506 56 b 561 0 506 18 524 0 l 644 0 b 700 56 682 0 700 18 l 700 694 b 644 750 700 732 682 750 l 561 750 b 506 694 524 750 506 732 l 506 369 b 354 185 506 246 449 185 b 247 335 283 185 247 235 l 247 639 b 192 694 247 676 229 694 l 108 694 b 53 639 71 694 53 676 l 53 -236 b 108 -292 53 -274 71 -292 l 192 -292 b 247 -236 229 -292 247 -274 z "},"¶":{"ha":774,"x_min":0,"x_max":0,"o":"m 385 217 b 428 256 418 217 428 226 l 428 892 b 385 931 428 921 418 931 b 133 833 281 931 196 899 b 38 574 69 768 38 682 b 133 314 38 465 69 379 b 385 217 196 249 281 217 z m 383 -1 b 222 35 336 -1 282 11 b 163 14 193 47 172 40 l 121 -89 b 138 -144 110 -115 115 -133 b 386 -210 224 -187 307 -210 b 706 88 579 -210 706 -111 l 706 875 b 650 931 706 913 688 931 l 567 931 b 511 875 529 931 511 913 l 511 199 b 383 -1 511 53 467 -1 z "},"·":{"ha":694,"x_min":0,"x_max":0,"o":"m 435 510 b 474 603 461 536 474 567 b 343 733 474 674 414 733 b 213 603 272 733 213 674 b 435 510 207 490 361 424 z "},"¸":{"ha":694,"x_min":0,"x_max":0,"o":"m 357 -374 b 568 -211 497 -374 568 -319 b 403 -61 568 -121 501 -61 b 367 -64 396 -61 383 -62 l 385 26 l 314 26 l 268 -151 b 294 -175 264 -167 272 -175 b 358 -169 306 -175 340 -169 b 429 -207 399 -169 429 -185 b 358 -242 429 -231 406 -242 b 272 -217 335 -242 306 -233 b 242 -232 260 -210 250 -214 l 213 -300 b 215 -335 206 -317 206 -328 b 357 -374 256 -361 303 -374 z "},"¹":{"ha":411,"x_min":0,"x_max":0,"o":"m 339 432 b 369 458 360 432 369 440 l 369 543 b 339 571 369 561 360 571 l 285 571 b 269 588 272 571 269 575 l 269 900 b 239 931 269 921 260 931 l 172 931 b 164 929 168 931 165 931 b 156 928 160 929 157 929 l 63 896 b 42 864 49 892 42 881 l 42 776 b 69 757 42 756 51 750 l 142 782 l 142 588 b 126 571 142 576 136 571 l 72 571 b 42 543 51 571 42 561 l 42 458 b 72 432 42 440 51 432 l 339 432 z "},"º":{"ha":603,"x_min":0,"x_max":0,"o":"m 500 472 b 574 668 549 524 574 589 b 500 864 574 747 549 813 b 301 940 451 915 385 940 b 103 864 218 940 151 915 b 29 668 54 813 29 747 b 103 472 29 589 54 524 b 301 394 151 421 218 394 b 500 472 385 394 451 421 z m 301 546 b 182 668 231 546 182 585 b 301 789 182 751 231 789 b 422 668 374 789 422 751 b 301 546 422 585 374 546 z "},"»":{"ha":832,"x_min":0,"x_max":0,"o":"m 490 679 b 425 675 467 700 444 699 l 372 614 b 381 556 356 593 358 574 l 628 349 l 431 183 b 422 125 410 164 407 144 l 475 64 b 540 60 497 38 513 38 l 779 256 b 803 308 800 274 803 281 l 803 388 b 779 440 803 415 800 424 l 490 679 z m 442 381 b 418 433 442 408 439 415 l 179 629 b 114 625 151 651 136 651 l 61 564 b 69 506 46 544 49 525 l 267 340 l 28 140 b 19 82 6 122 3 103 l 72 21 b 138 17 92 -3 114 -4 l 418 249 b 442 301 439 265 442 274 z "},"¼":{"ha":1043,"x_min":0,"x_max":0,"o":"m 829 840 b 808 917 849 872 842 897 l 788 929 b 711 908 756 949 731 942 l 221 82 b 242 6 203 53 210 26 l 263 -8 b 339 13 293 -29 318 -22 z m 339 432 b 369 458 360 432 369 440 l 369 543 b 339 571 369 561 360 571 l 285 571 b 269 588 272 571 269 575 l 269 900 b 239 931 269 921 260 931 l 172 931 b 164 929 168 931 165 931 b 156 928 160 929 157 929 l 63 896 b 42 864 49 892 42 881 l 42 776 b 69 757 42 756 51 750 l 142 782 l 142 588 b 126 571 142 576 136 571 l 72 571 b 42 543 51 571 42 561 l 42 458 b 72 432 42 440 51 432 l 339 432 z m 924 85 l 972 85 b 1001 114 992 85 1001 94 l 1001 186 b 971 217 1001 207 992 217 l 924 217 l 924 468 b 893 499 924 489 914 499 l 801 499 b 775 486 789 499 779 494 l 579 197 b 564 154 569 182 564 168 l 564 114 b 593 85 564 94 574 85 l 803 85 l 803 31 b 833 0 803 10 813 0 l 893 0 b 924 31 914 0 924 10 z m 803 344 l 803 217 l 719 217 z "},"½":{"ha":1063,"x_min":0,"x_max":0,"o":"m 829 840 b 808 917 849 872 842 897 l 788 929 b 711 908 756 949 731 942 l 221 82 b 242 6 203 53 210 26 l 263 -8 b 339 13 293 -29 318 -22 z m 339 432 b 369 458 360 432 369 440 l 369 543 b 339 571 369 561 360 571 l 285 571 b 269 588 272 571 269 575 l 269 900 b 239 931 269 921 260 931 l 172 931 b 164 929 168 931 165 931 b 156 928 160 929 157 929 l 63 896 b 42 864 49 892 42 881 l 42 776 b 69 757 42 756 51 750 l 142 782 l 142 588 b 126 571 142 576 136 571 l 72 571 b 42 543 51 571 42 561 l 42 458 b 72 432 42 440 51 432 l 339 432 z m 990 0 b 1021 31 1011 0 1021 10 l 1021 108 b 990 139 1021 129 1011 139 l 822 139 b 878 178 832 146 850 160 b 940 225 904 196 925 213 b 1001 360 968 250 1001 300 b 833 517 1001 456 940 517 b 681 467 775 517 724 500 b 676 435 671 460 669 449 l 706 365 b 740 356 713 350 724 347 b 826 378 769 371 799 378 b 874 344 858 378 874 367 b 765 233 874 307 819 264 b 656 108 710 203 656 153 l 656 31 b 686 0 656 10 665 0 l 990 0 z "},"¾":{"ha":1028,"x_min":0,"x_max":0,"o":"m 814 840 b 793 917 833 872 826 897 l 772 929 b 696 908 740 949 715 942 l 206 82 b 226 6 188 53 194 26 l 247 -8 b 324 13 278 -29 303 -22 z m 224 418 b 400 569 335 418 400 481 b 310 697 400 626 367 675 b 389 814 363 725 389 764 b 221 947 389 893 325 947 b 63 896 161 947 108 931 b 60 864 56 890 54 879 l 81 806 b 110 792 88 788 97 783 b 208 822 147 813 179 822 b 261 789 243 822 261 811 b 179 749 261 763 233 749 l 163 749 b 132 718 142 749 132 739 l 132 654 b 163 624 132 633 142 624 l 196 624 b 272 583 247 624 272 610 b 217 543 272 560 250 543 b 106 572 176 543 139 553 b 76 558 93 579 83 575 l 56 501 b 58 469 49 486 50 476 b 224 418 104 435 158 418 z m 908 85 l 957 85 b 986 114 976 85 986 94 l 986 186 b 956 217 986 207 976 217 l 908 217 l 908 468 b 878 499 908 489 899 499 l 786 499 b 760 486 774 499 764 494 l 564 197 b 549 154 554 182 549 168 l 549 114 b 578 85 549 94 558 85 l 788 85 l 788 31 b 818 0 788 10 797 0 l 878 0 b 908 31 899 0 908 10 z m 788 344 l 788 217 l 704 217 z "},"¿":{"ha":660,"x_min":0,"x_max":0,"o":"m 311 640 b 272 547 285 614 272 583 b 403 417 272 476 332 417 b 533 547 474 417 533 476 b 311 640 539 660 385 726 z m 251 -11 b 322 101 251 32 274 67 b 474 185 371 135 403 151 b 485 242 499 197 503 215 l 435 319 b 368 335 422 340 397 347 b 350 325 364 333 358 329 b 250 269 306 301 272 283 b 161 204 226 254 197 233 b 57 -11 89 146 57 76 b 143 -228 57 -101 86 -174 b 371 -308 200 -282 275 -308 b 631 -225 464 -308 564 -276 b 636 -167 646 -212 649 -193 l 597 -79 b 546 -54 583 -50 567 -42 b 372 -112 476 -93 418 -112 b 251 -11 292 -112 251 -79 z "},"À":{"ha":939,"x_min":0,"x_max":0,"o":"m 454 1039 b 482 1094 489 1039 497 1057 l 415 1242 b 339 1288 401 1272 376 1288 l 199 1288 b 183 1232 161 1288 160 1264 l 292 1094 b 375 1039 321 1057 349 1039 z m 336 350 l 428 647 l 564 350 z m 283 176 l 643 176 l 704 43 b 799 -12 732 -17 744 -22 l 874 1 b 913 82 925 11 936 32 l 532 875 b 514 917 525 888 517 911 b 479 931 507 926 500 931 l 360 931 b 293 875 322 931 310 921 l 25 57 b 64 -24 7 7 14 -12 l 146 -40 b 233 15 196 -50 217 -40 z "},"Á":{"ha":939,"x_min":0,"x_max":0,"o":"m 643 1232 b 628 1288 667 1264 665 1288 l 488 1288 b 411 1242 450 1288 425 1272 l 344 1094 b 372 1039 329 1057 338 1039 l 451 1039 b 535 1094 478 1039 506 1057 z m 336 350 l 428 647 l 564 350 z m 283 176 l 643 176 l 704 43 b 799 -12 732 -17 744 -22 l 874 1 b 913 82 925 11 936 32 l 532 875 b 514 917 525 888 517 911 b 479 931 507 926 500 931 l 360 931 b 293 875 322 931 310 921 l 25 57 b 64 -24 7 7 14 -12 l 146 -40 b 233 15 196 -50 217 -40 z "},"Â":{"ha":939,"x_min":0,"x_max":0,"o":"m 336 1288 b 260 1242 304 1288 279 1272 l 165 1094 b 193 1039 144 1065 156 1039 l 260 1039 b 328 1071 288 1039 310 1050 l 401 1164 l 474 1071 b 542 1039 492 1050 514 1039 l 607 1039 b 635 1094 644 1039 656 1065 l 540 1242 b 464 1288 521 1272 496 1288 z m 336 350 l 428 647 l 564 350 z m 283 176 l 643 176 l 704 43 b 799 -12 732 -17 744 -22 l 874 1 b 913 82 925 11 936 32 l 532 875 b 514 917 525 888 517 911 b 479 931 507 926 500 931 l 360 931 b 293 875 322 931 310 921 l 25 57 b 64 -24 7 7 14 -12 l 146 -40 b 233 15 196 -50 217 -40 z "},"Ã":{"ha":939,"x_min":0,"x_max":0,"o":"m 494 1039 b 589 1057 525 1039 557 1044 b 631 1117 617 1067 631 1088 l 631 1185 b 576 1218 631 1221 613 1232 b 485 1199 542 1206 511 1199 b 413 1211 469 1199 444 1203 b 333 1224 381 1219 354 1224 b 239 1206 303 1224 271 1218 b 197 1146 211 1196 197 1175 l 197 1078 b 251 1044 197 1042 215 1031 b 343 1064 286 1057 317 1064 b 419 1051 361 1064 386 1060 b 494 1039 451 1043 476 1039 z m 336 350 l 428 647 l 564 350 z m 283 176 l 643 176 l 704 43 b 799 -12 732 -17 744 -22 l 874 1 b 913 82 925 11 936 32 l 532 875 b 514 917 525 888 517 911 b 479 931 507 926 500 931 l 360 931 b 293 875 322 931 310 921 l 25 57 b 64 -24 7 7 14 -12 l 146 -40 b 233 15 196 -50 217 -40 z "},"Ä":{"ha":939,"x_min":0,"x_max":0,"o":"m 331 1085 b 361 1160 351 1106 361 1131 b 254 1267 361 1217 311 1267 b 147 1160 197 1267 147 1217 b 331 1085 142 1068 269 1015 z m 622 1085 b 653 1160 643 1106 653 1131 b 546 1267 653 1217 603 1267 b 439 1160 489 1267 439 1217 b 622 1085 433 1068 561 1015 z m 336 350 l 428 647 l 564 350 z m 283 176 l 643 176 l 704 43 b 799 -12 732 -17 744 -22 l 874 1 b 913 82 925 11 936 32 l 532 875 b 514 917 525 888 517 911 b 479 931 507 926 500 931 l 360 931 b 293 875 322 931 310 921 l 25 57 b 64 -24 7 7 14 -12 l 146 -40 b 233 15 196 -50 217 -40 z "},"Å":{"ha":939,"x_min":0,"x_max":0,"o":"m 365 947 b 346 988 353 957 346 969 b 410 1040 346 1019 375 1040 b 476 988 449 1040 476 1021 b 365 947 476 936 406 917 z m 336 350 l 428 647 l 564 350 z m 283 176 l 643 176 l 704 43 b 799 -12 732 -17 744 -22 l 874 1 b 913 82 925 11 936 32 l 544 849 b 614 988 590 881 614 928 b 411 1165 614 1094 529 1165 b 208 988 293 1165 208 1094 b 283 844 208 925 233 876 l 25 57 b 64 -24 7 7 14 -12 l 146 -40 b 233 15 196 -50 217 -40 z "},"Æ":{"ha":1239,"x_min":0,"x_max":0,"o":"m 393 350 l 592 761 l 592 350 z m 310 176 l 592 176 l 592 56 b 647 0 592 18 610 0 l 1128 0 b 1182 54 1164 0 1182 18 l 1182 139 b 1126 194 1182 176 1164 194 l 786 194 l 786 363 l 1085 383 b 1139 438 1121 386 1139 404 l 1139 522 b 1083 578 1139 563 1121 581 l 786 557 l 786 736 l 1142 736 b 1196 790 1178 736 1196 754 l 1196 875 b 1140 931 1196 913 1178 931 l 499 931 b 432 875 464 931 458 925 l 25 57 b 64 -24 1 8 13 -8 l 142 -44 b 229 11 188 -57 201 -46 z "},"Ç":{"ha":840,"x_min":0,"x_max":0,"o":"m 494 -374 b 706 -211 635 -374 706 -319 b 540 -61 706 -121 639 -61 b 504 -64 533 -61 521 -62 l 514 -17 b 796 67 615 -14 708 14 b 804 118 811 76 814 94 l 763 221 b 703 242 753 247 732 254 b 500 192 629 208 563 192 b 240 465 333 192 240 303 b 500 739 240 626 335 739 b 703 689 563 739 629 722 b 763 710 732 676 753 683 l 804 813 b 796 864 814 836 811 854 b 500 947 706 919 607 947 b 165 815 360 947 249 903 b 39 465 81 728 39 611 b 149 133 39 329 75 218 b 442 -14 221 47 318 -1 l 406 -151 b 432 -175 401 -167 410 -175 b 496 -169 443 -175 478 -169 b 567 -207 536 -169 567 -185 b 496 -242 567 -231 543 -242 b 410 -217 472 -242 443 -233 b 379 -232 397 -210 388 -214 l 350 -300 b 353 -335 343 -317 343 -328 b 494 -374 393 -361 440 -374 z "},"È":{"ha":731,"x_min":0,"x_max":0,"o":"m 475 1039 b 503 1094 510 1039 518 1057 l 436 1242 b 360 1288 422 1272 397 1288 l 219 1288 b 204 1232 182 1288 181 1264 l 313 1094 b 396 1039 342 1057 369 1039 z m 633 0 b 688 54 669 0 688 18 l 688 139 b 632 194 688 176 669 194 l 268 194 l 275 363 l 578 383 b 632 438 614 386 632 404 l 632 522 b 576 578 632 563 614 581 l 281 558 l 288 736 l 633 736 b 688 790 669 736 688 754 l 688 875 b 632 931 688 913 669 931 l 153 931 b 97 875 117 931 99 913 l 69 56 b 125 0 68 18 88 0 z "},"É":{"ha":731,"x_min":0,"x_max":0,"o":"m 594 1232 b 579 1288 618 1264 617 1288 l 439 1288 b 363 1242 401 1288 376 1272 l 296 1094 b 324 1039 281 1057 289 1039 l 403 1039 b 486 1094 429 1039 457 1057 z m 633 0 b 688 54 669 0 688 18 l 688 139 b 632 194 688 176 669 194 l 268 194 l 275 363 l 578 383 b 632 438 614 386 632 404 l 632 522 b 576 578 632 563 614 581 l 281 558 l 288 736 l 633 736 b 688 790 669 736 688 754 l 688 875 b 632 931 688 913 669 931 l 153 931 b 97 875 117 931 99 913 l 69 56 b 125 0 68 18 88 0 z "},"Ê":{"ha":731,"x_min":0,"x_max":0,"o":"m 329 1288 b 253 1242 297 1288 272 1272 l 158 1094 b 186 1039 138 1065 149 1039 l 253 1039 b 321 1071 281 1039 303 1050 l 394 1164 l 467 1071 b 535 1039 485 1050 507 1039 l 600 1039 b 628 1094 638 1039 649 1065 l 533 1242 b 457 1288 514 1272 489 1288 z m 633 0 b 688 54 669 0 688 18 l 688 139 b 632 194 688 176 669 194 l 268 194 l 275 363 l 578 383 b 632 438 614 386 632 404 l 632 522 b 576 578 632 563 614 581 l 281 558 l 288 736 l 633 736 b 688 790 669 736 688 754 l 688 875 b 632 931 688 913 669 931 l 153 931 b 97 875 117 931 99 913 l 69 56 b 125 0 68 18 88 0 z "},"Ë":{"ha":731,"x_min":0,"x_max":0,"o":"m 324 1085 b 354 1160 344 1106 354 1131 b 247 1267 354 1217 307 1267 b 140 1160 188 1267 140 1217 b 324 1085 135 1068 263 1015 z m 615 1085 b 646 1160 636 1106 646 1131 b 539 1267 646 1217 599 1267 b 432 1160 479 1267 432 1217 b 615 1085 426 1068 554 1015 z m 633 0 b 688 54 669 0 688 18 l 688 139 b 632 194 688 176 669 194 l 268 194 l 275 363 l 578 383 b 632 438 614 386 632 404 l 632 522 b 576 578 632 563 614 581 l 281 558 l 288 736 l 633 736 b 688 790 669 736 688 754 l 688 875 b 632 931 688 913 669 931 l 153 931 b 97 875 117 931 99 913 l 69 56 b 125 0 68 18 88 0 z "},"Ì":{"ha":368,"x_min":0,"x_max":0,"o":"m 238 1039 b 265 1094 272 1039 281 1057 l 199 1242 b 122 1288 185 1272 160 1288 l -18 1288 b -33 1232 -56 1288 -57 1264 l 75 1094 b 158 1039 104 1057 132 1039 z m 285 903 b 229 958 285 940 267 958 l 139 958 b 83 903 101 958 83 940 l 83 28 b 139 -28 83 -10 101 -28 l 229 -28 b 285 28 267 -28 285 -10 z "},"Í":{"ha":368,"x_min":0,"x_max":0,"o":"m 413 1232 b 397 1288 436 1264 435 1288 l 257 1288 b 181 1242 219 1288 194 1272 l 114 1094 b 142 1039 99 1057 107 1039 l 221 1039 b 304 1094 247 1039 275 1057 z m 285 903 b 229 958 285 940 267 958 l 139 958 b 83 903 101 958 83 940 l 83 28 b 139 -28 83 -10 101 -28 l 229 -28 b 285 28 267 -28 285 -10 z "},"Î":{"ha":368,"x_min":0,"x_max":0,"o":"m 119 1288 b 43 1242 88 1288 63 1272 l -51 1094 b -24 1039 -72 1065 -61 1039 l 43 1039 b 111 1071 71 1039 93 1050 l 185 1164 l 257 1071 b 325 1039 275 1050 297 1039 l 390 1039 b 418 1094 428 1039 439 1065 l 324 1242 b 247 1288 304 1272 279 1288 z m 285 903 b 229 958 285 940 267 958 l 139 958 b 83 903 101 958 83 940 l 83 28 b 139 -28 83 -10 101 -28 l 229 -28 b 285 28 267 -28 285 -10 z "},"Ï":{"ha":368,"x_min":0,"x_max":0,"o":"m 114 1085 b 144 1160 135 1106 144 1131 b 38 1267 144 1217 94 1267 b -69 1160 -19 1267 -69 1217 b 114 1085 -75 1068 53 1015 z m 406 1085 b 436 1160 426 1106 436 1131 b 329 1267 436 1217 386 1267 b 222 1160 272 1267 222 1217 b 406 1085 217 1068 344 1015 z m 285 903 b 229 958 285 940 267 958 l 139 958 b 83 903 101 958 83 940 l 83 28 b 139 -28 83 -10 101 -28 l 229 -28 b 285 28 267 -28 285 -10 z "},"Ð":{"ha":975,"x_min":0,"x_max":0,"o":"m 301 10 l 306 10 l 428 22 b 939 486 704 47 939 182 b 803 824 939 640 893 753 b 431 931 711 894 588 931 l 211 931 b 156 875 174 931 156 913 l 156 571 l 76 571 b 21 515 39 571 21 553 l 21 431 b 75 376 21 394 39 376 l 156 376 l 156 56 b 211 0 156 17 174 -4 z m 501 376 b 556 431 538 376 556 394 l 556 515 b 500 571 556 553 538 571 l 357 571 l 357 722 l 436 722 b 654 668 525 722 597 704 b 738 486 710 631 738 571 b 651 310 738 411 708 353 b 433 231 593 267 521 240 l 357 224 l 357 376 l 501 376 z "},"Ñ":{"ha":943,"x_min":0,"x_max":0,"o":"m 553 1039 b 647 1057 583 1039 615 1044 b 689 1117 675 1067 689 1088 l 689 1185 b 635 1218 689 1221 671 1232 b 543 1199 600 1206 569 1199 b 471 1211 528 1199 503 1203 b 392 1224 439 1219 413 1224 b 297 1206 361 1224 329 1218 b 256 1146 269 1196 256 1175 l 256 1078 b 310 1044 256 1042 274 1031 b 401 1064 344 1057 375 1064 b 478 1051 419 1064 444 1060 b 553 1039 510 1043 535 1039 z m 285 546 l 635 24 b 642 15 636 22 640 17 b 686 0 651 6 667 0 l 776 0 b 832 56 811 0 829 18 l 888 875 b 832 931 890 913 872 931 l 742 931 b 686 875 707 931 689 913 l 649 326 l 278 881 l 276 883 l 272 888 l 267 893 l 265 894 l 263 894 l 261 896 l 260 897 b 229 903 253 901 243 903 l 139 903 b 83 847 101 903 83 885 l 83 28 b 139 -28 83 -10 101 -28 l 229 -28 b 285 28 267 -28 285 -10 z "},"Ò":{"ha":1025,"x_min":0,"x_max":0,"o":"m 567 1039 b 594 1094 601 1039 610 1057 l 528 1242 b 451 1288 514 1272 489 1288 l 311 1288 b 296 1232 274 1288 272 1264 l 404 1094 b 488 1039 433 1057 461 1039 z m 856 104 b 986 465 942 194 985 314 b 856 825 985 614 940 735 b 514 961 769 915 656 961 b 169 825 371 961 256 915 b 39 465 82 735 39 614 b 168 106 39 315 82 196 b 511 -31 254 15 368 -31 b 856 104 654 -31 768 14 z m 514 178 b 240 465 338 178 240 293 b 513 753 240 636 339 753 b 785 465 683 753 781 636 b 514 178 781 293 685 178 z "},"Ó":{"ha":1025,"x_min":0,"x_max":0,"o":"m 728 1232 b 713 1288 751 1264 750 1288 l 572 1288 b 496 1242 535 1288 510 1272 l 429 1094 b 457 1039 414 1057 422 1039 l 536 1039 b 619 1094 563 1039 590 1057 z m 856 104 b 986 465 942 194 985 314 b 856 825 985 614 940 735 b 514 961 769 915 656 961 b 169 825 371 961 256 915 b 39 465 82 735 39 614 b 168 106 39 315 82 196 b 511 -31 254 15 368 -31 b 856 104 654 -31 768 14 z m 514 178 b 240 465 338 178 240 293 b 513 753 240 636 339 753 b 785 465 683 753 781 636 b 514 178 781 293 685 178 z "},"Ô":{"ha":1025,"x_min":0,"x_max":0,"o":"m 449 1288 b 372 1242 417 1288 392 1272 l 278 1094 b 306 1039 257 1065 268 1039 l 372 1039 b 440 1071 400 1039 422 1050 l 514 1164 l 586 1071 b 654 1039 604 1050 626 1039 l 719 1039 b 747 1094 757 1039 768 1065 l 653 1242 b 576 1288 633 1272 608 1288 z m 856 104 b 986 465 942 194 985 314 b 856 825 985 614 940 735 b 514 961 769 915 656 961 b 169 825 371 961 256 915 b 39 465 82 735 39 614 b 168 106 39 315 82 196 b 511 -31 254 15 368 -31 b 856 104 654 -31 768 14 z m 514 178 b 240 465 338 178 240 293 b 513 753 240 636 339 753 b 785 465 683 753 781 636 b 514 178 781 293 685 178 z "},"Õ":{"ha":1025,"x_min":0,"x_max":0,"o":"m 593 1039 b 688 1057 624 1039 656 1044 b 729 1117 715 1067 729 1088 l 729 1185 b 675 1218 729 1221 711 1232 b 583 1199 640 1206 610 1199 b 511 1211 568 1199 543 1203 b 432 1224 479 1219 453 1224 b 338 1206 401 1224 369 1218 b 296 1146 310 1196 296 1175 l 296 1078 b 350 1044 296 1042 314 1031 b 442 1064 385 1057 415 1064 b 518 1051 460 1064 485 1060 b 593 1039 550 1043 575 1039 z m 856 104 b 986 465 942 194 985 314 b 856 825 985 614 940 735 b 514 961 769 915 656 961 b 169 825 371 961 256 915 b 39 465 82 735 39 614 b 168 106 39 315 82 196 b 511 -31 254 15 368 -31 b 856 104 654 -31 768 14 z m 514 178 b 240 465 338 178 240 293 b 513 753 240 636 339 753 b 785 465 683 753 781 636 b 514 178 781 293 685 178 z "},"Ö":{"ha":1025,"x_min":0,"x_max":0,"o":"m 443 1085 b 474 1160 464 1106 474 1131 b 367 1267 474 1217 426 1267 b 260 1160 307 1267 260 1217 b 443 1085 254 1068 382 1015 z m 735 1085 b 765 1160 756 1106 765 1131 b 658 1267 765 1217 718 1267 b 551 1160 599 1267 551 1217 b 735 1085 546 1068 674 1015 z m 856 104 b 986 465 942 194 985 314 b 856 825 985 614 940 735 b 514 961 769 915 656 961 b 169 825 371 961 256 915 b 39 465 82 735 39 614 b 168 106 39 315 82 196 b 511 -31 254 15 368 -31 b 856 104 654 -31 768 14 z m 514 178 b 240 465 338 178 240 293 b 513 753 240 636 339 753 b 785 465 683 753 781 636 b 514 178 781 293 685 178 z "},"×":{"ha":694,"x_min":0,"x_max":0,"o":"m 346 339 l 478 208 b 556 207 504 182 529 182 l 606 258 b 606 336 632 285 632 310 l 474 467 l 603 597 b 604 675 629 624 629 649 l 556 724 b 475 724 529 750 503 750 l 346 594 l 217 724 b 139 724 190 749 164 749 l 89 675 b 89 596 64 649 64 622 l 218 467 l 89 336 b 88 258 63 310 63 285 l 136 207 b 217 208 163 181 189 181 z "},"Ø":{"ha":1025,"x_min":0,"x_max":0,"o":"m 233 465 b 513 760 233 639 335 760 b 585 753 536 760 560 757 l 275 294 b 233 465 247 342 233 399 z m 514 171 b 442 178 490 171 467 174 l 750 633 b 792 465 776 586 790 531 b 514 171 788 289 690 171 z m 322 3 b 511 -31 379 -19 443 -31 b 856 104 654 -31 768 14 b 986 465 942 194 985 314 b 869 810 985 606 946 719 l 918 882 b 897 958 939 911 932 938 l 819 1007 b 743 986 790 1025 764 1018 l 703 928 b 514 961 647 950 585 961 b 169 825 371 961 256 915 b 39 465 82 735 39 614 b 156 118 39 322 78 207 l 107 47 b 128 -29 86 17 93 -8 l 206 -78 b 282 -57 235 -96 261 -89 z "},"Ù":{"ha":914,"x_min":0,"x_max":0,"o":"m 511 1039 b 539 1094 546 1039 554 1057 l 472 1242 b 396 1288 458 1272 433 1288 l 256 1288 b 240 1232 218 1288 217 1264 l 349 1094 b 432 1039 378 1057 406 1039 z m 629 83 b 685 28 629 46 647 28 l 775 28 b 831 83 813 28 831 46 l 831 847 b 775 903 831 885 813 903 l 685 903 b 629 847 647 903 629 885 l 629 392 b 567 240 629 329 608 278 b 418 183 525 203 475 183 b 276 378 324 183 276 239 l 276 875 b 221 931 276 913 258 931 l 131 931 b 75 875 93 931 75 913 l 75 294 b 351 -17 75 93 186 -17 b 629 128 475 -17 568 32 l 629 83 z "},"Ú":{"ha":914,"x_min":0,"x_max":0,"o":"m 686 1232 b 671 1288 710 1264 708 1288 l 531 1288 b 454 1242 493 1288 468 1272 l 388 1094 b 415 1039 372 1057 381 1039 l 494 1039 b 578 1094 521 1039 549 1057 z m 629 83 b 685 28 629 46 647 28 l 775 28 b 831 83 813 28 831 46 l 831 847 b 775 903 831 885 813 903 l 685 903 b 629 847 647 903 629 885 l 629 392 b 567 240 629 329 608 278 b 418 183 525 203 475 183 b 276 378 324 183 276 239 l 276 875 b 221 931 276 913 258 931 l 131 931 b 75 875 93 931 75 913 l 75 294 b 351 -17 75 93 186 -17 b 629 128 475 -17 568 32 l 629 83 z "},"Û":{"ha":914,"x_min":0,"x_max":0,"o":"m 393 1288 b 317 1242 361 1288 336 1272 l 222 1094 b 250 1039 201 1065 213 1039 l 317 1039 b 385 1071 344 1039 367 1050 l 458 1164 l 531 1071 b 599 1039 549 1050 571 1039 l 664 1039 b 692 1094 701 1039 713 1065 l 597 1242 b 521 1288 578 1272 553 1288 z m 629 83 b 685 28 629 46 647 28 l 775 28 b 831 83 813 28 831 46 l 831 847 b 775 903 831 885 813 903 l 685 903 b 629 847 647 903 629 885 l 629 392 b 567 240 629 329 608 278 b 418 183 525 203 475 183 b 276 378 324 183 276 239 l 276 875 b 221 931 276 913 258 931 l 131 931 b 75 875 93 931 75 913 l 75 294 b 351 -17 75 93 186 -17 b 629 128 475 -17 568 32 l 629 83 z "},"Ü":{"ha":914,"x_min":0,"x_max":0,"o":"m 388 1085 b 418 1160 408 1106 418 1131 b 311 1267 418 1217 371 1267 b 204 1160 251 1267 204 1217 b 388 1085 199 1068 326 1015 z m 679 1085 b 710 1160 700 1106 710 1131 b 603 1267 710 1217 663 1267 b 496 1160 543 1267 496 1217 b 679 1085 490 1068 618 1015 z m 629 83 b 685 28 629 46 647 28 l 775 28 b 831 83 813 28 831 46 l 831 847 b 775 903 831 885 813 903 l 685 903 b 629 847 647 903 629 885 l 629 392 b 567 240 629 329 608 278 b 418 183 525 203 475 183 b 276 378 324 183 276 239 l 276 875 b 221 931 276 913 258 931 l 131 931 b 75 875 93 931 75 913 l 75 294 b 351 -17 75 93 186 -17 b 629 128 475 -17 568 32 l 629 83 z "},"Ý":{"ha":789,"x_min":0,"x_max":0,"o":"m 596 1232 b 581 1288 619 1264 618 1288 l 440 1288 b 364 1242 403 1288 378 1272 l 297 1094 b 325 1039 282 1057 290 1039 l 404 1039 b 488 1094 431 1039 458 1057 z m 457 0 b 513 56 494 0 513 18 l 513 304 l 765 874 b 726 954 788 924 778 943 l 651 971 b 564 915 603 982 590 971 l 403 563 l 219 888 b 181 942 201 917 189 935 b 132 943 172 947 156 947 l 64 929 b 25 849 13 918 -1 899 l 311 322 l 311 56 b 367 0 311 18 329 0 l 457 0 z "},"Þ":{"ha":800,"x_min":0,"x_max":0,"o":"m 229 -28 b 285 28 267 -28 285 -10 l 285 99 l 356 106 b 654 211 478 118 578 153 b 769 464 731 269 769 354 b 358 819 769 710 613 819 l 285 819 l 285 903 b 229 958 285 940 267 958 l 139 958 b 83 903 101 958 83 940 l 83 28 b 139 -28 83 -10 101 -28 l 229 -28 z m 364 611 b 568 464 500 611 568 563 b 361 314 568 376 479 325 l 285 307 l 285 611 l 364 611 z "},"ß":{"ha":964,"x_min":0,"x_max":0,"o":"m 440 500 b 547 307 440 407 488 340 b 744 188 635 258 744 235 b 682 150 744 163 724 150 b 590 174 649 150 621 157 b 564 186 578 179 569 183 b 513 214 551 192 518 210 b 461 189 492 226 475 218 l 429 124 b 435 65 417 97 418 78 b 667 -17 503 11 579 -17 b 939 201 838 -17 939 68 b 832 394 939 294 892 361 b 667 474 771 428 708 449 b 665 582 625 499 625 521 b 754 803 704 643 754 726 b 458 1017 754 932 654 1017 b 157 717 265 1017 157 910 l 157 671 l 67 665 b 19 618 39 664 19 644 l 19 507 b 58 464 19 478 29 463 l 157 469 l 157 42 b 199 0 157 14 171 0 l 310 0 b 351 42 338 0 351 14 l 351 683 b 458 815 351 782 376 815 b 546 757 517 815 546 796 b 440 500 550 717 436 597 z "},"à":{"ha":706,"x_min":0,"x_max":0,"o":"m 435 789 b 463 844 469 789 478 807 l 396 992 b 319 1038 382 1022 357 1038 l 179 1038 b 164 982 142 1038 140 1014 l 272 844 b 356 789 301 807 329 789 z m 613 -42 b 654 0 640 -42 654 -28 l 654 407 b 338 725 654 603 532 725 b 65 642 226 725 136 697 b 60 583 47 629 46 610 l 100 503 b 151 478 115 474 132 465 b 315 531 208 513 264 531 b 460 403 404 531 453 488 b 294 439 403 426 347 439 b 25 213 113 439 25 344 b 93 49 25 147 47 92 b 267 -17 138 6 196 -17 b 460 60 343 -17 407 8 l 460 0 b 501 -42 460 -28 474 -42 l 613 -42 z m 315 157 b 219 218 261 157 219 181 b 315 279 219 258 251 279 b 460 251 364 279 411 269 l 460 246 b 315 157 460 192 388 157 z "},"á":{"ha":706,"x_min":0,"x_max":0,"o":"m 554 982 b 539 1038 578 1014 576 1038 l 399 1038 b 322 992 361 1038 336 1022 l 256 844 b 283 789 240 807 249 789 l 363 789 b 446 844 389 789 417 807 z m 613 -42 b 654 0 640 -42 654 -28 l 654 407 b 338 725 654 603 532 725 b 65 642 226 725 136 697 b 60 583 47 629 46 610 l 100 503 b 151 478 115 474 132 465 b 315 531 208 513 264 531 b 460 403 404 531 453 488 b 294 439 403 426 347 439 b 25 213 113 439 25 344 b 93 49 25 147 47 92 b 267 -17 138 6 196 -17 b 460 60 343 -17 407 8 l 460 0 b 501 -42 460 -28 474 -42 l 613 -42 z m 315 157 b 219 218 261 157 219 181 b 315 279 219 258 251 279 b 460 251 364 279 411 269 l 460 246 b 315 157 460 192 388 157 z "},"â":{"ha":706,"x_min":0,"x_max":0,"o":"m 289 1038 b 213 992 257 1038 232 1022 l 118 844 b 146 789 97 815 108 789 l 213 789 b 281 821 240 789 263 800 l 354 914 l 426 821 b 494 789 444 800 467 789 l 560 789 b 588 844 597 789 608 815 l 493 992 b 417 1038 474 1022 449 1038 z m 613 -42 b 654 0 640 -42 654 -28 l 654 407 b 338 725 654 603 532 725 b 65 642 226 725 136 697 b 60 583 47 629 46 610 l 100 503 b 151 478 115 474 132 465 b 315 531 208 513 264 531 b 460 403 404 531 453 488 b 294 439 403 426 347 439 b 25 213 113 439 25 344 b 93 49 25 147 47 92 b 267 -17 138 6 196 -17 b 460 60 343 -17 407 8 l 460 0 b 501 -42 460 -28 474 -42 l 613 -42 z m 315 157 b 219 218 261 157 219 181 b 315 279 219 258 251 279 b 460 251 364 279 411 269 l 460 246 b 315 157 460 192 388 157 z "},"ã":{"ha":706,"x_min":0,"x_max":0,"o":"m 433 789 b 528 807 464 789 496 794 b 569 867 556 817 569 838 l 569 935 b 515 968 569 971 551 982 b 424 949 481 956 450 949 b 351 961 408 949 383 953 b 272 974 319 969 293 974 b 178 956 242 974 210 968 b 136 896 150 946 136 925 l 136 828 b 190 794 136 792 154 781 b 282 814 225 807 256 814 b 358 801 300 814 325 810 b 433 789 390 793 415 789 z m 613 -42 b 654 0 640 -42 654 -28 l 654 407 b 338 725 654 603 532 725 b 65 642 226 725 136 697 b 60 583 47 629 46 610 l 100 503 b 151 478 115 474 132 465 b 315 531 208 513 264 531 b 460 403 404 531 453 488 b 294 439 403 426 347 439 b 25 213 113 439 25 344 b 93 49 25 147 47 92 b 267 -17 138 6 196 -17 b 460 60 343 -17 407 8 l 460 0 b 501 -42 460 -28 474 -42 l 613 -42 z m 315 157 b 219 218 261 157 219 181 b 315 279 219 258 251 279 b 460 251 364 279 411 269 l 460 246 b 315 157 460 192 388 157 z "},"ä":{"ha":706,"x_min":0,"x_max":0,"o":"m 283 835 b 314 910 304 856 314 881 b 207 1017 314 967 264 1017 b 100 910 150 1017 100 967 b 283 835 94 818 222 765 z m 575 835 b 606 910 596 856 606 881 b 499 1017 606 967 556 1017 b 392 910 442 1017 392 967 b 575 835 386 818 514 765 z m 613 -42 b 654 0 640 -42 654 -28 l 654 407 b 338 725 654 603 532 725 b 65 642 226 725 136 697 b 60 583 47 629 46 610 l 100 503 b 151 478 115 474 132 465 b 315 531 208 513 264 531 b 460 403 404 531 453 488 b 294 439 403 426 347 439 b 25 213 113 439 25 344 b 93 49 25 147 47 92 b 267 -17 138 6 196 -17 b 460 60 343 -17 407 8 l 460 0 b 501 -42 460 -28 474 -42 l 613 -42 z m 315 157 b 219 218 261 157 219 181 b 315 279 219 258 251 279 b 460 251 364 279 411 269 l 460 246 b 315 157 460 192 388 157 z "},"å":{"ha":706,"x_min":0,"x_max":0,"o":"m 492 813 b 546 936 528 843 546 885 b 353 1106 546 1038 465 1106 b 160 936 240 1106 160 1038 b 214 813 160 885 178 843 b 353 767 250 782 296 767 b 492 813 410 767 456 782 z m 307 896 b 288 936 294 906 288 918 b 351 989 288 968 317 989 b 418 936 390 989 418 969 b 307 896 418 885 347 865 z m 613 -42 b 654 0 640 -42 654 -28 l 654 407 b 338 725 654 603 532 725 b 65 642 226 725 136 697 b 60 583 47 629 46 610 l 100 503 b 151 478 115 474 132 465 b 315 531 208 513 264 531 b 460 403 404 531 453 488 b 294 439 403 426 347 439 b 25 213 113 439 25 344 b 93 49 25 147 47 92 b 267 -17 138 6 196 -17 b 460 60 343 -17 407 8 l 460 0 b 501 -42 460 -28 474 -42 l 613 -42 z m 315 157 b 219 218 261 157 219 181 b 315 279 219 258 251 279 b 460 251 364 279 411 269 l 460 246 b 315 157 460 192 388 157 z "},"æ":{"ha":1131,"x_min":0,"x_max":0,"o":"m 794 531 b 908 447 854 531 896 497 l 658 418 b 794 531 674 493 719 531 z m 824 -17 b 1083 67 917 -17 1017 15 b 1089 125 1104 90 1101 92 l 1061 197 b 1010 222 1051 224 1031 235 b 850 164 940 183 888 164 b 667 268 760 164 699 199 l 1054 313 b 1108 397 1100 318 1108 338 b 1026 626 1108 493 1081 569 b 808 711 971 683 899 711 b 578 633 715 711 639 685 b 338 725 524 694 444 725 b 65 642 226 725 136 697 b 60 583 47 629 46 610 l 100 503 b 151 478 115 474 132 465 b 315 531 208 513 264 531 b 460 415 406 531 460 489 l 460 403 b 294 439 403 426 347 439 b 25 213 113 439 25 344 b 93 49 25 147 47 92 b 267 -17 138 6 196 -17 b 544 100 385 -17 478 22 b 824 -17 613 22 706 -17 z m 315 157 b 219 218 261 157 219 181 b 315 279 219 258 251 279 b 460 251 364 279 411 269 l 460 246 b 315 157 460 192 388 157 z "},"ç":{"ha":672,"x_min":0,"x_max":0,"o":"m 357 -374 b 568 -211 497 -374 568 -319 b 403 -61 568 -121 501 -61 b 367 -64 396 -61 383 -62 l 376 -17 b 633 67 465 -17 567 15 b 639 125 649 79 651 99 l 600 213 b 549 238 586 242 569 250 b 375 185 488 203 429 185 b 224 338 274 185 224 236 b 375 493 224 439 279 493 b 549 440 429 493 488 475 b 600 465 569 428 586 436 l 639 553 b 633 611 651 579 649 599 b 374 694 567 663 467 694 b 124 597 269 694 186 663 b 29 338 61 532 29 444 b 304 -11 29 149 136 17 l 268 -151 b 294 -175 264 -167 272 -175 b 358 -169 306 -175 340 -169 b 429 -207 399 -169 429 -185 b 358 -242 429 -231 406 -242 b 272 -217 335 -242 306 -233 b 242 -232 260 -210 250 -214 l 213 -300 b 215 -335 206 -317 206 -328 b 357 -374 256 -361 303 -374 z "},"è":{"ha":700,"x_min":0,"x_max":0,"o":"m 422 789 b 450 844 457 789 465 807 l 383 992 b 307 1038 369 1022 344 1038 l 167 1038 b 151 982 129 1038 128 1014 l 260 844 b 343 789 289 807 317 789 z m 393 -17 b 653 67 486 -17 586 15 b 658 125 674 90 671 92 l 631 197 b 579 222 621 224 600 235 b 419 164 510 183 457 164 b 236 268 329 164 268 199 l 624 313 b 678 397 669 318 678 338 b 596 626 678 493 650 569 b 378 711 540 683 468 711 b 121 608 267 711 181 676 b 29 347 60 539 29 451 b 129 85 29 239 63 151 b 393 -17 194 17 283 -17 z m 364 531 b 478 447 424 531 465 497 l 228 418 b 364 531 243 493 289 531 z "},"é":{"ha":700,"x_min":0,"x_max":0,"o":"m 583 982 b 568 1038 607 1014 606 1038 l 428 1038 b 351 992 390 1038 365 1022 l 285 844 b 313 789 269 807 278 789 l 392 789 b 475 844 418 789 446 807 z m 393 -17 b 653 67 486 -17 586 15 b 658 125 674 90 671 92 l 631 197 b 579 222 621 224 600 235 b 419 164 510 183 457 164 b 236 268 329 164 268 199 l 624 313 b 678 397 669 318 678 338 b 596 626 678 493 650 569 b 378 711 540 683 468 711 b 121 608 267 711 181 676 b 29 347 60 539 29 451 b 129 85 29 239 63 151 b 393 -17 194 17 283 -17 z m 364 531 b 478 447 424 531 465 497 l 228 418 b 364 531 243 493 289 531 z "},"ê":{"ha":700,"x_min":0,"x_max":0,"o":"m 318 1038 b 242 992 286 1038 261 1022 l 147 844 b 175 789 126 815 138 789 l 242 789 b 310 821 269 789 292 800 l 383 914 l 456 821 b 524 789 474 800 496 789 l 589 789 b 617 844 626 789 638 815 l 522 992 b 446 1038 503 1022 478 1038 z m 393 -17 b 653 67 486 -17 586 15 b 658 125 674 90 671 92 l 631 197 b 579 222 621 224 600 235 b 419 164 510 183 457 164 b 236 268 329 164 268 199 l 624 313 b 678 397 669 318 678 338 b 596 626 678 493 650 569 b 378 711 540 683 468 711 b 121 608 267 711 181 676 b 29 347 60 539 29 451 b 129 85 29 239 63 151 b 393 -17 194 17 283 -17 z m 364 531 b 478 447 424 531 465 497 l 228 418 b 364 531 243 493 289 531 z "},"ë":{"ha":700,"x_min":0,"x_max":0,"o":"m 326 835 b 357 910 347 856 357 881 b 250 1017 357 967 310 1017 b 143 910 190 1017 143 967 b 326 835 138 818 265 765 z m 618 835 b 649 910 639 856 649 881 b 542 1017 649 967 601 1017 b 435 910 482 1017 435 967 b 618 835 429 818 557 765 z m 393 -17 b 653 67 486 -17 586 15 b 658 125 674 90 671 92 l 631 197 b 579 222 621 224 600 235 b 419 164 510 183 457 164 b 236 268 329 164 268 199 l 624 313 b 678 397 669 318 678 338 b 596 626 678 493 650 569 b 378 711 540 683 468 711 b 121 608 267 711 181 676 b 29 347 60 539 29 451 b 129 85 29 239 63 151 b 393 -17 194 17 283 -17 z m 364 531 b 478 447 424 531 465 497 l 228 418 b 364 531 243 493 289 531 z "},"ì":{"ha":319,"x_min":0,"x_max":0,"o":"m 200 789 b 228 844 235 789 243 807 l 161 992 b 85 1038 147 1022 122 1038 l -56 1038 b -71 982 -93 1038 -94 1014 l 38 844 b 121 789 67 807 94 789 z m 257 611 b 201 667 257 649 239 667 l 118 667 b 63 611 81 667 63 649 l 63 56 b 118 0 63 18 81 0 l 201 0 b 257 56 239 0 257 18 z "},"í":{"ha":319,"x_min":0,"x_max":0,"o":"m 389 982 b 374 1038 413 1014 411 1038 l 233 1038 b 157 992 196 1038 171 1022 l 90 844 b 118 789 75 807 83 789 l 197 789 b 281 844 224 789 251 807 z m 257 611 b 201 667 257 649 239 667 l 118 667 b 63 611 81 667 63 649 l 63 56 b 118 0 63 18 81 0 l 201 0 b 257 56 239 0 257 18 z "},"î":{"ha":319,"x_min":0,"x_max":0,"o":"m 96 1038 b 19 992 64 1038 39 1022 l -75 844 b -47 789 -96 815 -85 789 l 19 789 b 88 821 47 789 69 800 l 161 914 l 233 821 b 301 789 251 800 274 789 l 367 789 b 394 844 404 789 415 815 l 300 992 b 224 1038 281 1022 256 1038 z m 257 611 b 201 667 257 649 239 667 l 118 667 b 63 611 81 667 63 649 l 63 56 b 118 0 63 18 81 0 l 201 0 b 257 56 239 0 257 18 z "},"ï":{"ha":319,"x_min":0,"x_max":0,"o":"m 90 835 b 121 910 111 856 121 881 b 14 1017 121 967 74 1017 b -93 910 -46 1017 -93 967 b 90 835 -99 818 29 765 z m 382 835 b 413 910 403 856 413 881 b 306 1017 413 967 365 1017 b 199 910 246 1017 199 967 b 382 835 193 818 321 765 z m 257 611 b 201 667 257 649 239 667 l 118 667 b 63 611 81 667 63 649 l 63 56 b 118 0 63 18 81 0 l 201 0 b 257 56 239 0 257 18 z "},"ð":{"ha":767,"x_min":0,"x_max":0,"o":"m 379 -15 b 733 379 606 -15 733 136 b 575 836 733 547 681 700 l 624 869 b 646 918 650 886 657 903 l 594 993 b 536 1010 574 1021 564 1026 l 461 958 b 415 997 451 968 436 981 b 338 997 382 1021 371 1019 l 279 957 b 279 890 251 938 251 915 b 313 858 286 883 297 874 l 258 822 b 236 774 232 806 225 789 l 288 699 b 346 682 308 671 318 665 l 417 731 b 475 628 438 699 457 664 b 354 644 433 639 393 644 b 117 554 254 644 175 614 b 29 318 58 493 29 414 b 128 79 29 222 63 142 b 379 -15 193 17 278 -15 z m 372 193 b 231 317 290 193 231 240 b 376 450 231 399 282 450 b 532 414 435 450 486 438 l 532 407 b 372 193 532 264 479 193 z "},"ñ":{"ha":763,"x_min":0,"x_max":0,"o":"m 490 789 b 585 807 521 789 553 794 b 626 867 613 817 626 838 l 626 935 b 572 968 626 971 608 982 b 481 949 538 956 507 949 b 408 961 465 949 440 953 b 329 974 376 969 350 974 b 235 956 299 974 267 968 b 193 896 207 946 193 925 l 193 828 b 247 794 193 792 211 781 b 339 814 282 807 313 814 b 415 801 357 814 382 810 b 490 789 447 793 472 789 z m 257 325 b 408 510 257 449 314 510 b 515 360 479 510 515 460 l 515 56 b 571 0 515 18 533 0 l 654 0 b 710 56 692 0 710 18 l 710 422 b 475 711 710 615 618 711 b 257 590 393 711 307 668 l 257 694 b 201 750 257 732 239 750 l 118 750 b 63 694 81 750 63 732 l 63 28 b 118 -28 63 -10 81 -28 l 201 -28 b 257 28 239 -28 257 -10 z "},"ò":{"ha":756,"x_min":0,"x_max":0,"o":"m 418 789 b 446 844 453 789 461 807 l 379 992 b 303 1038 365 1022 340 1038 l 163 1038 b 147 982 125 1038 124 1014 l 256 844 b 339 789 285 807 313 789 z m 632 86 b 726 347 694 154 726 240 b 632 610 726 454 694 542 b 378 711 569 678 485 711 b 124 610 271 711 186 678 b 29 347 61 542 29 454 b 124 86 29 240 61 154 b 378 -17 186 18 271 -17 b 632 86 485 -17 569 18 z m 267 225 b 224 347 238 251 224 292 b 267 471 224 403 238 444 b 378 510 294 497 332 510 b 490 471 424 510 461 497 b 532 347 518 444 532 403 b 490 225 532 292 518 251 b 378 185 461 199 424 185 b 267 225 332 185 294 199 z "},"ó":{"ha":756,"x_min":0,"x_max":0,"o":"m 593 982 b 578 1038 617 1014 615 1038 l 438 1038 b 361 992 400 1038 375 1022 l 294 844 b 322 789 279 807 288 789 l 401 789 b 485 844 428 789 456 807 z m 632 86 b 726 347 694 154 726 240 b 632 610 726 454 694 542 b 378 711 569 678 485 711 b 124 610 271 711 186 678 b 29 347 61 542 29 454 b 124 86 29 240 61 154 b 378 -17 186 18 271 -17 b 632 86 485 -17 569 18 z m 267 225 b 224 347 238 251 224 292 b 267 471 224 403 238 444 b 378 510 294 497 332 510 b 490 471 424 510 461 497 b 532 347 518 444 532 403 b 490 225 532 292 518 251 b 378 185 461 199 424 185 b 267 225 332 185 294 199 z "},"ô":{"ha":756,"x_min":0,"x_max":0,"o":"m 314 1038 b 238 992 282 1038 257 1022 l 143 844 b 171 789 122 815 133 789 l 238 789 b 306 821 265 789 288 800 l 379 914 l 451 821 b 519 789 469 800 492 789 l 585 789 b 613 844 622 789 633 815 l 518 992 b 442 1038 499 1022 474 1038 z m 632 86 b 726 347 694 154 726 240 b 632 610 726 454 694 542 b 378 711 569 678 485 711 b 124 610 271 711 186 678 b 29 347 61 542 29 454 b 124 86 29 240 61 154 b 378 -17 186 18 271 -17 b 632 86 485 -17 569 18 z m 267 225 b 224 347 238 251 224 292 b 267 471 224 403 238 444 b 378 510 294 497 332 510 b 490 471 424 510 461 497 b 532 347 518 444 532 403 b 490 225 532 292 518 251 b 378 185 461 199 424 185 b 267 225 332 185 294 199 z "},"õ":{"ha":756,"x_min":0,"x_max":0,"o":"m 458 789 b 553 807 489 789 521 794 b 594 867 581 817 594 838 l 594 935 b 540 968 594 971 576 982 b 449 949 506 956 475 949 b 376 961 433 949 408 953 b 297 974 344 969 318 974 b 203 956 267 974 235 968 b 161 896 175 946 161 925 l 161 828 b 215 794 161 792 179 781 b 307 814 250 807 281 814 b 383 801 325 814 350 810 b 458 789 415 793 440 789 z m 632 86 b 726 347 694 154 726 240 b 632 610 726 454 694 542 b 378 711 569 678 485 711 b 124 610 271 711 186 678 b 29 347 61 542 29 454 b 124 86 29 240 61 154 b 378 -17 186 18 271 -17 b 632 86 485 -17 569 18 z m 267 225 b 224 347 238 251 224 292 b 267 471 224 403 238 444 b 378 510 294 497 332 510 b 490 471 424 510 461 497 b 532 347 518 444 532 403 b 490 225 532 292 518 251 b 378 185 461 199 424 185 b 267 225 332 185 294 199 z "},"ö":{"ha":756,"x_min":0,"x_max":0,"o":"m 308 835 b 339 910 329 856 339 881 b 232 1017 339 967 289 1017 b 125 910 175 1017 125 967 b 308 835 119 818 247 765 z m 600 835 b 631 910 621 856 631 881 b 524 1017 631 967 581 1017 b 417 910 467 1017 417 967 b 600 835 411 818 539 765 z m 632 86 b 726 347 694 154 726 240 b 632 610 726 454 694 542 b 378 711 569 678 485 711 b 124 610 271 711 186 678 b 29 347 61 542 29 454 b 124 86 29 240 61 154 b 378 -17 186 18 271 -17 b 632 86 485 -17 569 18 z m 267 225 b 224 347 238 251 224 292 b 267 471 224 403 238 444 b 378 510 294 497 332 510 b 490 471 424 510 461 497 b 532 347 518 444 532 403 b 490 225 532 292 518 251 b 378 185 461 199 424 185 b 267 225 332 185 294 199 z "},"÷":{"ha":694,"x_min":0,"x_max":0,"o":"m 436 649 b 475 742 463 675 475 706 b 344 872 475 813 415 872 b 214 742 274 872 214 813 b 436 649 208 629 363 563 z m 129 558 b 74 503 92 558 74 540 l 74 433 b 129 378 74 396 92 378 l 565 378 b 621 433 603 378 621 396 l 621 503 b 565 558 621 540 603 558 z m 436 93 b 475 186 463 119 475 150 b 344 317 475 257 415 317 b 214 186 274 317 214 257 b 436 93 208 74 363 7 z "},"ø":{"ha":756,"x_min":0,"x_max":0,"o":"m 210 347 b 378 524 210 468 278 524 l 393 524 l 226 257 b 210 347 215 281 210 310 z m 363 171 l 529 438 b 546 347 540 414 546 385 b 378 171 546 226 478 171 z m 256 1 b 378 -17 296 -11 338 -17 b 632 86 485 -17 569 18 b 726 347 694 154 726 240 b 633 607 726 453 696 539 l 675 672 b 654 749 696 704 689 729 l 613 772 b 536 751 582 790 557 783 l 499 693 b 378 711 460 706 419 711 b 124 610 271 711 186 678 b 29 347 61 542 29 454 b 121 89 29 240 60 154 l 81 24 b 101 -53 61 -7 68 -32 l 143 -78 b 219 -57 172 -96 199 -89 z "},"ù":{"ha":763,"x_min":0,"x_max":0,"o":"m 407 789 b 435 844 442 789 450 807 l 368 992 b 292 1038 354 1022 329 1038 l 151 1038 b 136 982 114 1038 113 1014 l 244 844 b 328 789 274 807 301 789 z m 506 56 b 561 0 506 18 524 0 l 644 0 b 700 56 682 0 700 18 l 700 694 b 644 750 700 732 682 750 l 561 750 b 506 694 524 750 506 732 l 506 369 b 354 185 506 246 449 185 b 247 335 283 185 247 235 l 247 639 b 192 694 247 676 229 694 l 108 694 b 53 639 71 694 53 676 l 53 272 b 288 -17 53 79 144 -17 b 506 104 369 -17 456 26 l 506 56 z "},"ú":{"ha":763,"x_min":0,"x_max":0,"o":"m 582 982 b 567 1038 606 1014 604 1038 l 426 1038 b 350 992 389 1038 364 1022 l 283 844 b 311 789 268 807 276 789 l 390 789 b 474 844 417 789 444 807 z m 506 56 b 561 0 506 18 524 0 l 644 0 b 700 56 682 0 700 18 l 700 694 b 644 750 700 732 682 750 l 561 750 b 506 694 524 750 506 732 l 506 369 b 354 185 506 246 449 185 b 247 335 283 185 247 235 l 247 639 b 192 694 247 676 229 694 l 108 694 b 53 639 71 694 53 676 l 53 272 b 288 -17 53 79 144 -17 b 506 104 369 -17 456 26 l 506 56 z "},"û":{"ha":763,"x_min":0,"x_max":0,"o":"m 317 1038 b 240 992 285 1038 260 1022 l 146 844 b 174 789 125 815 136 789 l 240 789 b 308 821 268 789 290 800 l 382 914 l 454 821 b 522 789 472 800 494 789 l 588 789 b 615 844 625 789 636 815 l 521 992 b 444 1038 501 1022 476 1038 z m 506 56 b 561 0 506 18 524 0 l 644 0 b 700 56 682 0 700 18 l 700 694 b 644 750 700 732 682 750 l 561 750 b 506 694 524 750 506 732 l 506 369 b 354 185 506 246 449 185 b 247 335 283 185 247 235 l 247 639 b 192 694 247 676 229 694 l 108 694 b 53 639 71 694 53 676 l 53 272 b 288 -17 53 79 144 -17 b 506 104 369 -17 456 26 l 506 56 z "},"ü":{"ha":763,"x_min":0,"x_max":0,"o":"m 311 835 b 342 910 332 856 342 881 b 235 1017 342 967 292 1017 b 128 910 178 1017 128 967 b 311 835 122 818 250 765 z m 603 835 b 633 910 624 856 633 881 b 526 1017 633 967 583 1017 b 419 910 469 1017 419 967 b 603 835 414 818 542 765 z m 506 56 b 561 0 506 18 524 0 l 644 0 b 700 56 682 0 700 18 l 700 694 b 644 750 700 732 682 750 l 561 750 b 506 694 524 750 506 732 l 506 369 b 354 185 506 246 449 185 b 247 335 283 185 247 235 l 247 639 b 192 694 247 676 229 694 l 108 694 b 53 639 71 694 53 676 l 53 272 b 288 -17 53 79 144 -17 b 506 104 369 -17 456 26 l 506 56 z "},"ý":{"ha":763,"x_min":0,"x_max":0,"o":"m 624 982 b 608 1038 647 1014 646 1038 l 468 1038 b 392 992 431 1038 406 1022 l 325 844 b 353 789 310 807 318 789 l 432 789 b 515 844 458 789 486 807 z m 375 -292 b 700 13 569 -292 700 -194 l 700 639 b 644 694 700 676 682 694 l 561 694 b 506 639 524 694 506 676 l 506 397 b 354 213 506 274 449 213 b 247 363 283 213 247 263 l 247 667 b 192 722 247 704 229 722 l 108 722 b 53 667 71 722 53 704 l 53 300 b 288 11 53 107 144 11 b 506 132 369 11 456 54 l 506 32 b 372 -90 506 -50 461 -90 b 176 -32 313 -90 247 -71 b 125 -71 150 -19 142 -28 l 92 -154 b 97 -212 79 -183 76 -189 b 375 -292 163 -265 256 -292 z "},"þ":{"ha":774,"x_min":0,"x_max":0,"o":"m 396 183 b 257 204 344 183 299 190 l 257 308 b 411 493 257 426 313 493 b 550 339 494 493 550 429 b 396 183 550 239 489 183 z m 257 0 b 396 -17 303 -11 349 -17 b 646 82 496 -17 579 17 b 744 339 711 147 744 232 b 660 596 744 444 717 531 b 451 694 603 661 533 694 b 257 615 372 694 307 668 l 257 944 b 201 1000 257 982 239 1000 l 118 1000 b 63 944 81 1000 63 982 l 63 -236 b 118 -292 63 -274 81 -292 l 201 -292 b 257 -236 239 -292 257 -274 z "},"ÿ":{"ha":763,"x_min":0,"x_max":0,"o":"m 339 835 b 369 910 360 856 369 881 b 263 1017 369 967 319 1017 b 156 910 206 1017 156 967 b 339 835 150 818 278 765 z m 631 835 b 661 910 651 856 661 881 b 554 1017 661 967 611 1017 b 447 910 497 1017 447 967 b 631 835 442 818 569 765 z m 375 -292 b 700 13 569 -292 700 -194 l 700 639 b 644 694 700 676 682 694 l 561 694 b 506 639 524 694 506 676 l 506 397 b 354 213 506 274 449 213 b 247 363 283 213 247 263 l 247 667 b 192 722 247 704 229 722 l 108 722 b 53 667 71 722 53 704 l 53 300 b 288 11 53 107 144 11 b 506 132 369 11 456 54 l 506 32 b 372 -90 506 -50 461 -90 b 176 -32 313 -90 247 -71 b 125 -71 150 -19 142 -28 l 92 -154 b 97 -212 79 -183 76 -189 b 375 -292 163 -265 256 -292 z "},"Ā":{"ha":939,"x_min":0,"x_max":0,"o":"m 250 1199 b 194 1143 213 1199 194 1181 l 194 1094 b 250 1039 194 1057 213 1039 l 569 1039 b 625 1094 607 1039 625 1057 l 625 1143 b 569 1199 625 1181 607 1199 z m 336 350 l 428 647 l 564 350 z m 283 176 l 643 176 l 704 43 b 799 -12 732 -17 744 -22 l 874 1 b 913 82 925 11 936 32 l 532 875 b 514 917 525 888 517 911 b 479 931 507 926 500 931 l 360 931 b 293 875 322 931 310 921 l 25 57 b 64 -24 7 7 14 -12 l 146 -40 b 233 15 196 -50 217 -40 z "},"ā":{"ha":706,"x_min":0,"x_max":0,"o":"m 186 949 b 131 893 149 949 131 931 l 131 844 b 186 789 131 807 149 789 l 506 789 b 561 844 543 789 561 807 l 561 893 b 506 949 561 931 543 949 z m 613 -42 b 654 0 640 -42 654 -28 l 654 407 b 338 725 654 603 532 725 b 65 642 226 725 136 697 b 60 583 47 629 46 610 l 100 503 b 151 478 115 474 132 465 b 315 531 208 513 264 531 b 460 403 404 531 453 488 b 294 439 403 426 347 439 b 25 213 113 439 25 344 b 93 49 25 147 47 92 b 267 -17 138 6 196 -17 b 460 60 343 -17 407 8 l 460 0 b 501 -42 460 -28 474 -42 l 613 -42 z m 315 157 b 219 218 261 157 219 181 b 315 279 219 258 251 279 b 460 251 364 279 411 269 l 460 246 b 315 157 460 192 388 157 z "},"Ă":{"ha":939,"x_min":0,"x_max":0,"o":"m 331 1240 b 269 1288 326 1272 306 1288 l 253 1288 b 185 1218 207 1288 185 1264 b 414 1039 185 1108 269 1039 b 643 1218 558 1039 643 1108 b 575 1288 643 1264 621 1288 l 558 1288 b 497 1240 522 1288 501 1272 b 414 1171 490 1194 463 1171 b 331 1240 365 1171 338 1194 z m 336 350 l 428 647 l 564 350 z m 283 176 l 643 176 l 704 43 b 799 -12 732 -17 744 -22 l 874 1 b 913 82 925 11 936 32 l 532 875 b 514 917 525 888 517 911 b 479 931 507 926 500 931 l 360 931 b 293 875 322 931 310 921 l 25 57 b 64 -24 7 7 14 -12 l 146 -40 b 233 15 196 -50 217 -40 z "},"ă":{"ha":706,"x_min":0,"x_max":0,"o":"m 269 990 b 208 1038 265 1022 244 1038 l 192 1038 b 124 968 146 1038 124 1014 b 353 789 124 858 208 789 b 582 968 497 789 582 858 b 514 1038 582 1014 560 1038 l 497 1038 b 436 990 461 1038 440 1022 b 353 921 429 944 401 921 b 269 990 304 921 276 944 z m 613 -42 b 654 0 640 -42 654 -28 l 654 407 b 338 725 654 603 532 725 b 65 642 226 725 136 697 b 60 583 47 629 46 610 l 100 503 b 151 478 115 474 132 465 b 315 531 208 513 264 531 b 460 403 404 531 453 488 b 294 439 403 426 347 439 b 25 213 113 439 25 344 b 93 49 25 147 47 92 b 267 -17 138 6 196 -17 b 460 60 343 -17 407 8 l 460 0 b 501 -42 460 -28 474 -42 l 613 -42 z m 315 157 b 219 218 261 157 219 181 b 315 279 219 258 251 279 b 460 251 364 279 411 269 l 460 246 b 315 157 460 192 388 157 z "},"Ą":{"ha":939,"x_min":0,"x_max":0,"o":"m 799 -292 b 935 -260 844 -292 890 -281 b 950 -218 950 -253 954 -239 l 931 -133 b 900 -118 926 -118 911 -111 b 832 -137 876 -131 854 -137 b 769 -87 803 -137 769 -122 b 849 -4 769 -49 799 -15 l 874 1 b 913 82 925 13 935 32 l 532 875 b 465 931 508 925 500 931 l 360 931 b 293 875 322 931 310 921 l 25 57 b 64 -24 7 7 14 -12 l 146 -40 b 233 15 196 -50 217 -40 l 283 176 l 653 176 l 732 14 b 626 -147 661 -26 626 -81 b 799 -292 626 -240 704 -292 z m 333 350 l 428 649 l 567 350 z "},"ą":{"ha":706,"x_min":0,"x_max":0,"o":"m 671 -315 b 674 -281 678 -310 679 -299 l 653 -199 b 622 -183 649 -183 633 -178 b 551 -203 599 -196 575 -203 b 493 -153 522 -203 493 -185 b 613 -65 493 -103 536 -65 b 654 -24 640 -65 654 -51 l 654 407 b 338 725 654 603 532 725 b 65 642 226 725 136 697 b 60 583 47 629 46 610 l 100 503 b 151 478 115 474 132 465 b 315 531 208 513 264 531 b 460 403 404 531 453 488 b 294 439 403 426 347 439 b 25 213 113 439 25 344 b 93 49 25 147 47 92 b 267 -17 138 6 196 -17 b 460 60 343 -17 407 8 l 460 -24 b 464 -44 460 -32 461 -39 b 350 -210 396 -78 350 -137 b 514 -357 350 -310 429 -357 b 671 -315 579 -357 632 -343 z m 315 157 b 219 218 261 157 219 181 b 315 279 219 258 251 279 b 460 251 364 279 411 269 l 460 246 b 315 157 460 192 388 157 z "},"Ć":{"ha":840,"x_min":0,"x_max":0,"o":"m 706 1232 b 690 1288 729 1264 728 1288 l 550 1288 b 474 1242 513 1288 488 1272 l 407 1094 b 435 1039 392 1057 400 1039 l 514 1039 b 597 1094 540 1039 568 1057 z m 500 192 b 240 465 333 192 240 303 b 500 739 240 626 335 739 b 703 689 563 739 629 722 b 763 710 732 676 753 683 l 804 813 b 796 864 814 836 811 854 b 500 947 706 919 607 947 b 165 815 360 947 249 903 b 39 465 81 728 39 611 b 164 115 39 319 81 203 b 497 -17 247 28 358 -17 b 796 67 604 -17 703 11 b 804 118 811 76 814 94 l 763 221 b 703 242 753 247 732 254 b 500 192 629 208 563 192 z "},"ć":{"ha":672,"x_min":0,"x_max":0,"o":"m 593 982 b 578 1038 617 1014 615 1038 l 438 1038 b 361 992 400 1038 375 1022 l 294 844 b 322 789 279 807 288 789 l 401 789 b 485 844 428 789 456 807 z m 224 338 b 375 493 224 439 279 493 b 549 440 429 493 488 475 b 600 465 569 428 586 436 l 639 553 b 633 611 651 579 649 599 b 374 694 567 663 467 694 b 124 597 269 694 186 663 b 29 338 61 532 29 444 b 124 81 29 231 61 144 b 374 -17 186 15 269 -17 b 633 67 467 -17 567 15 b 639 125 649 79 651 99 l 600 213 b 549 238 586 242 569 250 b 375 185 488 203 429 185 b 224 338 274 185 224 236 z "},"Ĉ":{"ha":840,"x_min":0,"x_max":0,"o":"m 426 1288 b 350 1242 394 1288 369 1272 l 256 1094 b 283 1039 235 1065 246 1039 l 350 1039 b 418 1071 378 1039 400 1050 l 492 1164 l 564 1071 b 632 1039 582 1050 604 1039 l 697 1039 b 725 1094 735 1039 746 1065 l 631 1242 b 554 1288 611 1272 586 1288 z m 500 192 b 240 465 333 192 240 303 b 500 739 240 626 335 739 b 703 689 563 739 629 722 b 763 710 732 676 753 683 l 804 813 b 796 864 814 836 811 854 b 500 947 706 919 607 947 b 165 815 360 947 249 903 b 39 465 81 728 39 611 b 164 115 39 319 81 203 b 497 -17 247 28 358 -17 b 796 67 604 -17 703 11 b 804 118 811 76 814 94 l 763 221 b 703 242 753 247 732 254 b 500 192 629 208 563 192 z "},"ĉ":{"ha":672,"x_min":0,"x_max":0,"o":"m 314 1038 b 238 992 282 1038 257 1022 l 143 844 b 171 789 122 815 133 789 l 238 789 b 306 821 265 789 288 800 l 379 914 l 451 821 b 519 789 469 800 492 789 l 585 789 b 613 844 622 789 633 815 l 518 992 b 442 1038 499 1022 474 1038 z m 224 338 b 375 493 224 439 279 493 b 549 440 429 493 488 475 b 600 465 569 428 586 436 l 639 553 b 633 611 651 579 649 599 b 374 694 567 663 467 694 b 124 597 269 694 186 663 b 29 338 61 532 29 444 b 124 81 29 231 61 144 b 374 -17 186 15 269 -17 b 633 67 467 -17 567 15 b 639 125 649 79 651 99 l 600 213 b 549 238 586 242 569 250 b 375 185 488 203 429 185 b 224 338 274 185 224 236 z "},"Ċ":{"ha":840,"x_min":0,"x_max":0,"o":"m 582 1071 b 621 1164 608 1097 621 1128 b 490 1294 621 1235 561 1294 b 360 1164 419 1294 360 1235 b 582 1071 354 1051 508 985 z m 500 192 b 240 465 333 192 240 303 b 500 739 240 626 335 739 b 703 689 563 739 629 722 b 763 710 732 676 753 683 l 804 813 b 796 864 814 836 811 854 b 500 947 706 919 607 947 b 165 815 360 947 249 903 b 39 465 81 728 39 611 b 164 115 39 319 81 203 b 497 -17 247 28 358 -17 b 796 67 604 -17 703 11 b 804 118 811 76 814 94 l 763 221 b 703 242 753 247 732 254 b 500 192 629 208 563 192 z "},"ċ":{"ha":672,"x_min":0,"x_max":0,"o":"m 469 821 b 508 914 496 847 508 878 b 378 1044 508 985 449 1044 b 247 914 307 1044 247 985 b 469 821 242 801 396 735 z m 224 338 b 375 493 224 439 279 493 b 549 440 429 493 488 475 b 600 465 569 428 586 436 l 639 553 b 633 611 651 579 649 599 b 374 694 567 663 467 694 b 124 597 269 694 186 663 b 29 338 61 532 29 444 b 124 81 29 231 61 144 b 374 -17 186 15 269 -17 b 633 67 467 -17 567 15 b 639 125 649 79 651 99 l 600 213 b 549 238 586 242 569 250 b 375 185 488 203 429 185 b 224 338 274 185 224 236 z "},"Č":{"ha":840,"x_min":0,"x_max":0,"o":"m 554 1039 b 631 1085 586 1039 611 1054 l 725 1232 b 697 1288 746 1264 735 1288 l 631 1288 b 563 1256 603 1288 581 1276 l 489 1163 l 417 1256 b 349 1288 399 1276 376 1288 l 283 1288 b 256 1232 246 1288 235 1264 l 350 1085 b 426 1039 369 1054 394 1039 z m 500 192 b 240 465 333 192 240 303 b 500 739 240 626 335 739 b 703 689 563 739 629 722 b 763 710 732 676 753 683 l 804 813 b 796 864 814 836 811 854 b 500 947 706 919 607 947 b 165 815 360 947 249 903 b 39 465 81 728 39 611 b 164 115 39 319 81 203 b 497 -17 247 28 358 -17 b 796 67 604 -17 703 11 b 804 118 811 76 814 94 l 763 221 b 703 242 753 247 732 254 b 500 192 629 208 563 192 z "},"č":{"ha":672,"x_min":0,"x_max":0,"o":"m 428 789 b 504 835 460 789 485 804 l 599 982 b 571 1038 619 1014 608 1038 l 504 1038 b 436 1006 476 1038 454 1026 l 363 913 l 290 1006 b 222 1038 272 1026 250 1038 l 157 1038 b 129 982 119 1038 108 1014 l 224 835 b 300 789 243 804 268 789 z m 224 338 b 375 493 224 439 279 493 b 549 440 429 493 488 475 b 600 465 569 428 586 436 l 639 553 b 633 611 651 579 649 599 b 374 694 567 663 467 694 b 124 597 269 694 186 663 b 29 338 61 532 29 444 b 124 81 29 231 61 144 b 374 -17 186 15 269 -17 b 633 67 467 -17 567 15 b 639 125 649 79 651 99 l 600 213 b 549 238 586 242 569 250 b 375 185 488 203 429 185 b 224 338 274 185 224 236 z "},"Ď":{"ha":903,"x_min":0,"x_max":0,"o":"m 488 1039 b 564 1085 519 1039 544 1054 l 658 1232 b 631 1288 679 1264 668 1288 l 564 1288 b 496 1256 536 1288 514 1276 l 422 1163 l 350 1256 b 282 1288 332 1276 310 1288 l 217 1288 b 189 1232 179 1288 168 1264 l 283 1085 b 360 1039 303 1054 328 1039 z m 229 10 l 233 10 l 356 22 b 867 486 632 47 867 182 b 731 824 867 640 821 753 b 358 931 639 894 515 931 l 139 931 b 83 875 101 931 83 913 l 83 56 b 139 0 83 17 101 -4 z m 364 722 b 582 668 453 722 525 704 b 665 486 638 631 665 571 b 579 310 665 411 636 353 b 361 231 521 267 449 240 l 285 224 l 285 722 l 364 722 z "},"ď":{"ha":774,"x_min":0,"x_max":0,"o":"m 985 944 b 956 1000 996 989 990 1000 l 829 1000 b 781 954 790 1000 781 992 l 781 807 b 822 751 781 764 789 751 l 881 751 b 950 807 921 751 939 763 z m 656 -28 b 711 28 693 -28 711 -10 l 711 944 b 656 1000 711 982 693 1000 l 572 1000 b 517 944 535 1000 517 982 l 517 694 b 378 711 471 706 424 711 b 129 614 278 711 194 679 b 29 356 63 549 29 463 b 114 99 29 250 57 164 b 322 0 171 33 240 0 b 517 79 401 0 467 26 l 517 28 b 572 -28 517 -10 535 -28 l 656 -28 z m 363 201 b 224 356 279 201 224 265 b 378 511 224 456 285 511 b 517 490 429 511 475 504 l 517 386 b 363 201 517 268 461 201 z "},"Đ":{"ha":975,"x_min":0,"x_max":0,"o":"m 301 10 l 306 10 l 428 22 b 939 486 704 47 939 182 b 803 824 939 640 893 753 b 431 931 711 894 588 931 l 211 931 b 156 875 174 931 156 913 l 156 571 l 76 571 b 21 515 39 571 21 553 l 21 431 b 75 376 21 394 39 376 l 156 376 l 156 56 b 211 0 156 17 174 -4 z m 501 376 b 556 431 538 376 556 394 l 556 515 b 500 571 556 553 538 571 l 357 571 l 357 722 l 436 722 b 654 668 525 722 597 704 b 738 486 710 631 738 571 b 651 310 738 411 708 353 b 433 231 593 267 521 240 l 357 224 l 357 376 l 501 376 z "},"đ":{"ha":774,"x_min":0,"x_max":0,"o":"m 656 -56 b 711 0 693 -56 711 -37 l 711 771 l 739 771 b 794 826 776 771 794 789 l 794 875 b 739 931 794 913 776 931 l 711 931 l 711 982 b 656 1038 711 1019 693 1038 l 572 1038 b 517 982 535 1038 517 1019 l 517 931 l 364 931 b 308 875 326 931 308 913 l 308 826 b 364 771 308 789 326 771 l 517 771 l 517 694 b 378 711 471 706 424 711 b 129 614 278 711 194 679 b 29 356 63 549 29 463 b 114 99 29 250 57 164 b 322 0 171 33 240 0 b 517 79 401 0 467 26 l 517 0 b 572 -56 517 -37 535 -56 l 656 -56 z m 363 201 b 224 356 279 201 224 265 b 378 511 224 456 285 511 b 517 490 429 511 475 504 l 517 386 b 363 201 517 268 461 201 z "},"Ē":{"ha":731,"x_min":0,"x_max":0,"o":"m 226 1199 b 171 1143 189 1199 171 1181 l 171 1094 b 226 1039 171 1057 189 1039 l 546 1039 b 601 1094 583 1039 601 1057 l 601 1143 b 546 1199 601 1181 583 1199 z m 633 0 b 688 54 669 0 688 18 l 688 139 b 632 194 688 176 669 194 l 268 194 l 275 363 l 578 383 b 632 438 614 386 632 404 l 632 522 b 576 578 632 563 614 581 l 281 558 l 288 736 l 633 736 b 688 790 669 736 688 754 l 688 875 b 632 931 688 913 669 931 l 153 931 b 97 875 117 931 99 913 l 69 56 b 125 0 68 18 88 0 z "},"ē":{"ha":700,"x_min":0,"x_max":0,"o":"m 208 949 b 153 893 171 949 153 931 l 153 844 b 208 789 153 807 171 789 l 528 789 b 583 844 565 789 583 807 l 583 893 b 528 949 583 931 565 949 z m 393 -17 b 653 67 486 -17 586 15 b 658 125 674 90 671 92 l 631 197 b 579 222 621 224 600 235 b 419 164 510 183 457 164 b 236 268 329 164 268 199 l 624 313 b 678 397 669 318 678 338 b 596 626 678 493 650 569 b 378 711 540 683 468 711 b 121 608 267 711 181 676 b 29 347 60 539 29 451 b 129 85 29 239 63 151 b 393 -17 194 17 283 -17 z m 364 531 b 478 447 424 531 465 497 l 228 418 b 364 531 243 493 289 531 z "},"Ĕ":{"ha":731,"x_min":0,"x_max":0,"o":"m 310 1240 b 249 1288 306 1272 285 1288 l 232 1288 b 164 1218 186 1288 164 1264 b 393 1039 164 1108 249 1039 b 622 1218 538 1039 622 1108 b 554 1288 622 1264 600 1288 l 538 1288 b 476 1240 501 1288 481 1272 b 393 1171 469 1194 442 1171 b 310 1240 344 1171 317 1194 z m 633 0 b 688 54 669 0 688 18 l 688 139 b 632 194 688 176 669 194 l 268 194 l 275 363 l 578 383 b 632 438 614 386 632 404 l 632 522 b 576 578 632 563 614 581 l 281 558 l 288 736 l 633 736 b 688 790 669 736 688 754 l 688 875 b 632 931 688 913 669 931 l 153 931 b 97 875 117 931 99 913 l 69 56 b 125 0 68 18 88 0 z "},"ĕ":{"ha":700,"x_min":0,"x_max":0,"o":"m 285 990 b 224 1038 281 1022 260 1038 l 207 1038 b 139 968 161 1038 139 1014 b 368 789 139 858 224 789 b 597 968 513 789 597 858 b 529 1038 597 1014 575 1038 l 513 1038 b 451 990 476 1038 456 1022 b 368 921 444 944 417 921 b 285 990 319 921 292 944 z m 393 -17 b 653 67 486 -17 586 15 b 658 125 674 90 671 92 l 631 197 b 579 222 621 224 600 235 b 419 164 510 183 457 164 b 236 268 329 164 268 199 l 624 313 b 678 397 669 318 678 338 b 596 626 678 493 650 569 b 378 711 540 683 468 711 b 121 608 267 711 181 676 b 29 347 60 539 29 451 b 129 85 29 239 63 151 b 393 -17 194 17 283 -17 z m 364 531 b 478 447 424 531 465 497 l 228 418 b 364 531 243 493 289 531 z "},"Ė":{"ha":731,"x_min":0,"x_max":0,"o":"m 485 1071 b 524 1164 511 1097 524 1128 b 393 1294 524 1235 464 1294 b 263 1164 322 1294 263 1235 b 485 1071 257 1051 411 985 z m 633 0 b 688 54 669 0 688 18 l 688 139 b 632 194 688 176 669 194 l 268 194 l 275 363 l 578 383 b 632 438 614 386 632 404 l 632 522 b 576 578 632 563 614 581 l 281 558 l 288 736 l 633 736 b 688 790 669 736 688 754 l 688 875 b 632 931 688 913 669 931 l 153 931 b 97 875 117 931 99 913 l 69 56 b 125 0 68 18 88 0 z "},"ė":{"ha":700,"x_min":0,"x_max":0,"o":"m 446 821 b 485 914 472 847 485 878 b 354 1044 485 985 425 1044 b 224 914 283 1044 224 985 b 446 821 218 801 372 735 z m 393 -17 b 653 67 486 -17 586 15 b 658 125 674 90 671 92 l 631 197 b 579 222 621 224 600 235 b 419 164 510 183 457 164 b 236 268 329 164 268 199 l 624 313 b 678 397 669 318 678 338 b 596 626 678 493 650 569 b 378 711 540 683 468 711 b 121 608 267 711 181 676 b 29 347 60 539 29 451 b 129 85 29 239 63 151 b 393 -17 194 17 283 -17 z m 364 531 b 478 447 424 531 465 497 l 228 418 b 364 531 243 493 289 531 z "},"Ę":{"ha":731,"x_min":0,"x_max":0,"o":"m 692 -250 b 694 -215 699 -244 700 -233 l 674 -133 b 643 -118 669 -118 654 -112 b 572 -137 619 -131 596 -137 b 514 -87 543 -137 514 -119 b 633 0 514 -37 557 0 b 688 54 669 0 688 18 l 688 139 b 632 194 688 176 669 194 l 268 194 l 275 363 l 578 383 b 632 438 614 386 632 404 l 632 522 b 576 578 632 563 614 581 l 281 558 l 288 736 l 633 736 b 688 790 669 736 688 754 l 688 875 b 632 931 688 913 669 931 l 153 931 b 97 875 117 931 99 913 l 69 56 b 125 0 68 18 88 0 l 457 0 b 371 -144 400 -36 371 -85 b 535 -292 371 -244 450 -292 b 692 -250 600 -292 653 -278 z "},"ę":{"ha":700,"x_min":0,"x_max":0,"o":"m 438 -292 b 588 -253 497 -292 547 -279 b 594 -215 597 -246 599 -233 l 574 -133 b 542 -118 569 -118 554 -111 b 474 -137 518 -131 496 -137 b 414 -85 442 -137 414 -119 b 483 -7 414 -47 438 -22 b 653 67 551 6 608 29 b 658 125 674 90 671 92 l 631 197 b 579 222 621 224 600 235 b 419 164 510 183 457 164 b 236 268 329 164 268 199 l 624 313 b 678 397 669 318 678 338 b 596 626 678 493 650 569 b 378 711 540 683 468 711 b 121 608 267 711 181 676 b 29 347 60 539 29 451 b 335 -12 29 151 147 11 b 269 -144 292 -49 269 -93 b 438 -292 269 -239 344 -292 z m 364 531 b 478 447 424 531 465 497 l 228 418 b 364 531 243 493 289 531 z "},"Ě":{"ha":731,"x_min":0,"x_max":0,"o":"m 457 1039 b 533 1085 489 1039 514 1054 l 628 1232 b 600 1288 649 1264 638 1288 l 533 1288 b 465 1256 506 1288 483 1276 l 392 1163 l 319 1256 b 251 1288 301 1276 279 1288 l 186 1288 b 158 1232 149 1288 138 1264 l 253 1085 b 329 1039 272 1054 297 1039 z m 633 0 b 688 54 669 0 688 18 l 688 139 b 632 194 688 176 669 194 l 268 194 l 275 363 l 578 383 b 632 438 614 386 632 404 l 632 522 b 576 578 632 563 614 581 l 281 558 l 288 736 l 633 736 b 688 790 669 736 688 754 l 688 875 b 632 931 688 913 669 931 l 153 931 b 97 875 117 931 99 913 l 69 56 b 125 0 68 18 88 0 z "},"ě":{"ha":700,"x_min":0,"x_max":0,"o":"m 432 789 b 508 835 464 789 489 804 l 603 982 b 575 1038 624 1014 613 1038 l 508 1038 b 440 1006 481 1038 458 1026 l 367 913 l 294 1006 b 226 1038 276 1026 254 1038 l 161 1038 b 133 982 124 1038 113 1014 l 228 835 b 304 789 247 804 272 789 z m 393 -17 b 653 67 486 -17 586 15 b 658 125 674 90 671 92 l 631 197 b 579 222 621 224 600 235 b 419 164 510 183 457 164 b 236 268 329 164 268 199 l 624 313 b 678 397 669 318 678 338 b 596 626 678 493 650 569 b 378 711 540 683 468 711 b 121 608 267 711 181 676 b 29 347 60 539 29 451 b 129 85 29 239 63 151 b 393 -17 194 17 283 -17 z m 364 531 b 478 447 424 531 465 497 l 228 418 b 364 531 243 493 289 531 z "},"Ĝ":{"ha":924,"x_min":0,"x_max":0,"o":"m 440 1288 b 364 1242 408 1288 383 1272 l 269 1094 b 297 1039 249 1065 260 1039 l 364 1039 b 432 1071 392 1039 414 1050 l 506 1164 l 578 1071 b 646 1039 596 1050 618 1039 l 711 1039 b 739 1094 749 1039 760 1065 l 644 1242 b 568 1288 625 1272 600 1288 z m 849 488 b 793 543 849 525 831 544 l 503 529 b 447 474 465 528 447 510 l 447 382 b 501 328 447 344 467 326 l 647 335 l 647 214 b 524 194 611 201 569 194 b 240 479 339 194 240 307 b 507 739 240 633 336 739 b 717 689 571 739 640 722 b 776 710 746 676 767 683 l 818 813 b 810 864 828 836 825 854 b 507 947 719 919 619 947 b 167 819 365 947 251 904 b 39 479 82 733 39 619 b 161 131 39 333 79 217 b 488 0 242 43 350 0 b 647 36 546 0 599 13 l 647 -24 b 701 -81 647 -61 665 -81 l 792 -81 b 849 -28 829 -81 849 -62 z "},"ĝ":{"ha":772,"x_min":0,"x_max":0,"o":"m 294 1038 b 218 992 263 1038 238 1022 l 124 844 b 151 789 103 815 114 789 l 218 789 b 286 821 246 789 268 800 l 360 914 l 432 821 b 500 789 450 800 472 789 l 565 789 b 593 844 603 789 614 815 l 499 992 b 422 1038 479 1022 454 1038 z m 361 229 b 222 356 278 229 222 282 b 376 511 222 456 283 511 b 515 490 428 511 474 504 l 515 414 b 361 229 515 296 460 229 z m 385 -292 b 710 13 579 -292 710 -194 l 710 708 b 654 764 710 746 692 764 l 571 764 b 515 708 533 764 515 746 l 515 694 b 376 711 469 706 424 711 b 128 614 276 711 193 679 b 28 356 61 549 28 463 b 113 119 28 258 56 179 b 321 28 169 58 239 28 b 515 107 400 28 465 54 l 515 32 b 382 -90 515 -50 471 -90 b 186 -46 306 -90 240 -75 b 135 -71 165 -33 147 -42 l 101 -154 b 107 -212 89 -183 86 -189 b 385 -292 172 -265 265 -292 z "},"Ğ":{"ha":924,"x_min":0,"x_max":0,"o":"m 407 1240 b 346 1288 403 1272 382 1288 l 329 1288 b 261 1218 283 1288 261 1264 b 490 1039 261 1108 346 1039 b 719 1218 635 1039 719 1108 b 651 1288 719 1264 697 1288 l 635 1288 b 574 1240 599 1288 578 1272 b 490 1171 567 1194 539 1171 b 407 1240 442 1171 414 1194 z m 849 488 b 793 543 849 525 831 544 l 503 529 b 447 474 465 528 447 510 l 447 382 b 501 328 447 344 467 326 l 647 335 l 647 214 b 524 194 611 201 569 194 b 240 479 339 194 240 307 b 507 739 240 633 336 739 b 717 689 571 739 640 722 b 776 710 746 676 767 683 l 818 813 b 810 864 828 836 825 854 b 507 947 719 919 619 947 b 167 819 365 947 251 904 b 39 479 82 733 39 619 b 161 131 39 333 79 217 b 488 0 242 43 350 0 b 647 36 546 0 599 13 l 647 -24 b 701 -81 647 -61 665 -81 l 792 -81 b 849 -28 829 -81 849 -62 z "},"ğ":{"ha":772,"x_min":0,"x_max":0,"o":"m 297 990 b 236 1038 293 1022 272 1038 l 219 1038 b 151 968 174 1038 151 1014 b 381 789 151 858 236 789 b 610 968 525 789 610 858 b 542 1038 610 1014 588 1038 l 525 1038 b 464 990 489 1038 468 1022 b 381 921 457 944 429 921 b 297 990 332 921 304 944 z m 361 229 b 222 356 278 229 222 282 b 376 511 222 456 283 511 b 515 490 428 511 474 504 l 515 414 b 361 229 515 296 460 229 z m 385 -292 b 710 13 579 -292 710 -194 l 710 708 b 654 764 710 746 692 764 l 571 764 b 515 708 533 764 515 746 l 515 694 b 376 711 469 706 424 711 b 128 614 276 711 193 679 b 28 356 61 549 28 463 b 113 119 28 258 56 179 b 321 28 169 58 239 28 b 515 107 400 28 465 54 l 515 32 b 382 -90 515 -50 471 -90 b 186 -46 306 -90 240 -75 b 135 -71 165 -33 147 -42 l 101 -154 b 107 -212 89 -183 86 -189 b 385 -292 172 -265 265 -292 z "},"Ġ":{"ha":924,"x_min":0,"x_max":0,"o":"m 610 1071 b 649 1164 636 1097 649 1128 b 518 1294 649 1235 589 1294 b 388 1164 447 1294 388 1235 b 610 1071 382 1051 536 985 z m 849 488 b 793 543 849 525 831 544 l 503 529 b 447 474 465 528 447 510 l 447 382 b 501 328 447 344 467 326 l 647 335 l 647 214 b 524 194 611 201 569 194 b 240 479 339 194 240 307 b 507 739 240 633 336 739 b 717 689 571 739 640 722 b 776 710 746 676 767 683 l 818 813 b 810 864 828 836 825 854 b 507 947 719 919 619 947 b 167 819 365 947 251 904 b 39 479 82 733 39 619 b 161 131 39 333 79 217 b 488 0 242 43 350 0 b 647 36 546 0 599 13 l 647 -24 b 701 -81 647 -61 665 -81 l 792 -81 b 849 -28 829 -81 849 -62 z "},"ġ":{"ha":772,"x_min":0,"x_max":0,"o":"m 450 821 b 489 914 476 847 489 878 b 358 1044 489 985 429 1044 b 228 914 288 1044 228 985 b 450 821 222 801 376 735 z m 361 229 b 222 356 278 229 222 282 b 376 511 222 456 283 511 b 515 490 428 511 474 504 l 515 414 b 361 229 515 296 460 229 z m 385 -292 b 710 13 579 -292 710 -194 l 710 708 b 654 764 710 746 692 764 l 571 764 b 515 708 533 764 515 746 l 515 694 b 376 711 469 706 424 711 b 128 614 276 711 193 679 b 28 356 61 549 28 463 b 113 119 28 258 56 179 b 321 28 169 58 239 28 b 515 107 400 28 465 54 l 515 32 b 382 -90 515 -50 471 -90 b 186 -46 306 -90 240 -75 b 135 -71 165 -33 147 -42 l 101 -154 b 107 -212 89 -183 86 -189 b 385 -292 172 -265 265 -292 z "},"Ģ":{"ha":924,"x_min":0,"x_max":0,"o":"m 849 488 b 793 543 849 525 831 544 l 503 529 b 447 474 465 528 447 510 l 447 382 b 501 328 447 344 467 326 l 647 335 l 647 214 b 524 194 611 201 569 194 b 240 479 339 194 240 307 b 507 739 240 633 336 739 b 717 689 571 739 640 722 b 776 710 746 676 767 683 l 818 813 b 810 864 828 836 825 854 b 507 947 719 919 619 947 b 167 819 365 947 251 904 b 39 479 82 733 39 619 b 161 131 39 333 79 217 b 488 0 242 43 350 0 b 647 36 546 0 599 13 l 647 -24 b 701 -81 647 -61 665 -81 l 792 -81 b 849 -28 829 -81 849 -62 z m 529 -165 b 500 -110 550 -128 540 -110 l 381 -110 b 304 -156 331 -110 315 -118 l 264 -303 b 306 -358 253 -343 265 -358 l 378 -358 b 454 -303 415 -358 431 -346 z "},"ģ":{"ha":772,"x_min":0,"x_max":0,"o":"m 250 844 b 279 789 229 807 239 789 l 413 789 b 482 835 456 789 469 797 l 529 982 b 488 1038 542 1022 531 1038 l 408 1038 b 325 982 368 1038 349 1025 z m 361 229 b 222 356 278 229 222 282 b 376 511 222 456 283 511 b 515 490 428 511 474 504 l 515 414 b 361 229 515 296 460 229 z m 385 -292 b 710 13 579 -292 710 -194 l 710 708 b 654 764 710 746 692 764 l 571 764 b 515 708 533 764 515 746 l 515 694 b 376 711 469 706 424 711 b 128 614 276 711 193 679 b 28 356 61 549 28 463 b 113 119 28 258 56 179 b 321 28 169 58 239 28 b 515 107 400 28 465 54 l 515 32 b 382 -90 515 -50 471 -90 b 186 -46 306 -90 240 -75 b 135 -71 165 -33 147 -42 l 101 -154 b 107 -212 89 -183 86 -189 b 385 -292 172 -265 265 -292 z "},"Ĥ":{"ha":922,"x_min":0,"x_max":0,"o":"m 397 1288 b 321 1242 365 1288 340 1272 l 226 1094 b 254 1039 206 1065 217 1039 l 321 1039 b 389 1071 349 1039 371 1050 l 463 1164 l 535 1071 b 603 1039 553 1050 575 1039 l 668 1039 b 696 1094 706 1039 717 1065 l 601 1242 b 525 1288 582 1272 557 1288 z m 783 -28 b 839 28 821 -28 839 -10 l 839 875 b 783 931 839 913 821 931 l 693 931 b 638 875 656 931 638 913 l 638 581 l 285 556 l 285 903 b 229 958 285 940 267 958 l 139 958 b 83 903 101 958 83 940 l 83 56 b 139 0 83 18 101 0 l 229 0 b 285 56 267 0 285 18 l 285 354 l 638 379 l 638 28 b 693 -28 638 -10 656 -28 l 783 -28 z "},"ĥ":{"ha":763,"x_min":0,"x_max":0,"o":"m 96 1286 b 19 1240 64 1286 39 1271 l -75 1093 b -47 1038 -96 1061 -85 1038 l 19 1038 b 88 1069 47 1038 69 1049 l 161 1163 l 233 1069 b 301 1038 251 1049 274 1038 l 367 1038 b 394 1093 404 1038 415 1061 l 300 1240 b 224 1286 281 1271 256 1286 z m 654 -28 b 710 28 692 -28 710 -10 l 710 422 b 475 711 710 615 618 711 b 257 590 393 711 307 668 l 257 917 b 201 972 257 954 239 972 l 118 972 b 63 917 81 972 63 954 l 63 56 b 118 0 63 18 81 0 l 201 0 b 257 56 239 0 257 18 l 257 325 b 408 510 257 449 314 510 b 515 360 479 510 515 460 l 515 28 b 571 -28 515 -10 533 -28 l 654 -28 z "},"Ħ":{"ha":922,"x_min":0,"x_max":0,"o":"m 783 -28 b 839 28 821 -28 839 -10 l 839 683 l 867 685 b 922 740 904 688 922 706 l 922 789 b 867 844 922 829 904 847 l 839 843 l 839 875 b 783 931 839 913 821 931 l 693 931 b 638 875 656 931 638 913 l 638 829 l 285 804 l 285 903 b 229 958 285 940 267 958 l 139 958 b 83 903 101 958 83 940 l 83 790 l 56 789 b 0 733 18 786 0 768 l 0 685 b 56 629 0 644 18 626 l 83 631 l 83 56 b 139 0 83 18 101 0 l 229 0 b 285 56 267 0 285 18 l 285 354 l 638 379 l 638 28 b 693 -28 638 -10 656 -28 l 783 -28 z m 285 644 l 638 669 l 638 581 l 285 556 z "},"ħ":{"ha":763,"x_min":0,"x_max":0,"o":"m 710 422 b 475 711 710 615 618 711 b 257 590 393 711 307 668 l 257 771 l 410 771 b 465 826 447 771 465 789 l 465 875 b 410 931 465 913 447 931 l 257 931 l 257 982 b 201 1038 257 1019 239 1038 l 118 1038 b 63 982 81 1038 63 1019 l 63 931 l 35 931 b -21 875 -3 931 -21 913 l -21 826 b 35 771 -21 789 -3 771 l 63 771 l 63 56 b 118 0 63 18 81 0 l 201 0 b 257 56 239 0 257 18 l 257 325 b 408 510 257 449 314 510 b 515 360 479 510 515 460 l 515 28 b 571 -28 515 -10 533 -28 l 654 -28 b 710 28 692 -28 710 -10 z "},"Ĩ":{"ha":368,"x_min":0,"x_max":0,"o":"m 264 1039 b 358 1057 294 1039 326 1044 b 400 1117 386 1067 400 1088 l 400 1185 b 346 1218 400 1221 382 1232 b 254 1199 311 1206 281 1199 b 182 1211 239 1199 214 1203 b 103 1224 150 1219 124 1224 b 8 1206 72 1224 40 1218 b -33 1146 -19 1196 -33 1175 l -33 1078 b 21 1044 -33 1042 -15 1031 b 113 1064 56 1057 86 1064 b 189 1051 131 1064 156 1060 b 264 1039 221 1043 246 1039 z m 285 903 b 229 958 285 940 267 958 l 139 958 b 83 903 101 958 83 940 l 83 28 b 139 -28 83 -10 101 -28 l 229 -28 b 285 28 267 -28 285 -10 z "},"ĩ":{"ha":319,"x_min":0,"x_max":0,"o":"m 240 789 b 335 807 271 789 303 794 b 376 867 363 817 376 838 l 376 935 b 322 968 376 971 358 982 b 231 949 288 956 257 949 b 158 961 215 949 190 953 b 79 974 126 969 100 974 b -15 956 49 974 17 968 b -57 896 -43 946 -57 925 l -57 828 b -3 794 -57 792 -39 781 b 89 814 32 807 63 814 b 165 801 107 814 132 810 b 240 789 197 793 222 789 z m 257 611 b 201 667 257 649 239 667 l 118 667 b 63 611 81 667 63 649 l 63 56 b 118 0 63 18 81 0 l 201 0 b 257 56 239 0 257 18 z "},"Ī":{"ha":368,"x_min":0,"x_max":0,"o":"m 22 1199 b -33 1143 -15 1199 -33 1181 l -33 1094 b 22 1039 -33 1057 -15 1039 l 342 1039 b 397 1094 379 1039 397 1057 l 397 1143 b 342 1199 397 1181 379 1199 z m 285 903 b 229 958 285 940 267 958 l 139 958 b 83 903 101 958 83 940 l 83 28 b 139 -28 83 -10 101 -28 l 229 -28 b 285 28 267 -28 285 -10 z "},"ī":{"ha":319,"x_min":0,"x_max":0,"o":"m -56 949 b -111 893 -93 949 -111 931 l -111 844 b -56 789 -111 807 -93 789 l 264 789 b 319 844 301 789 319 807 l 319 893 b 264 949 319 931 301 949 z m 201 611 b 146 667 201 649 183 667 l 63 667 b 7 611 25 667 7 649 l 7 56 b 63 0 7 18 25 0 l 146 0 b 201 56 183 0 201 18 z "},"Ĭ":{"ha":368,"x_min":0,"x_max":0,"o":"m 100 1240 b 39 1288 96 1272 75 1288 l 22 1288 b -46 1218 -24 1288 -46 1264 b 183 1039 -46 1108 39 1039 b 413 1218 328 1039 413 1108 b 344 1288 413 1264 390 1288 l 328 1288 b 267 1240 292 1288 271 1272 b 183 1171 260 1194 232 1171 b 100 1240 135 1171 107 1194 z m 285 903 b 229 958 285 940 267 958 l 139 958 b 83 903 101 958 83 940 l 83 28 b 139 -28 83 -10 101 -28 l 229 -28 b 285 28 267 -28 285 -10 z "},"ĭ":{"ha":319,"x_min":0,"x_max":0,"o":"m 76 990 b 15 1038 72 1022 51 1038 l -1 1038 b -69 968 -47 1038 -69 1014 b 160 789 -69 858 15 789 b 389 968 304 789 389 858 b 321 1038 389 1014 367 1038 l 304 1038 b 243 990 268 1038 247 1022 b 160 921 236 944 208 921 b 76 990 111 921 83 944 z m 257 611 b 201 667 257 649 239 667 l 118 667 b 63 611 81 667 63 649 l 63 56 b 118 0 63 18 81 0 l 201 0 b 257 56 239 0 257 18 z "},"Į":{"ha":368,"x_min":0,"x_max":0,"o":"m 294 -278 b 297 -243 301 -272 303 -261 l 276 -161 b 246 -146 272 -146 257 -140 b 175 -165 222 -158 199 -165 b 117 -115 146 -165 117 -147 b 229 -28 117 -65 157 -28 b 285 28 267 -28 285 -10 l 285 903 b 229 958 285 940 267 958 l 139 958 b 83 903 101 958 83 940 l 83 28 b 90 -4 83 15 86 6 b -26 -172 19 -37 -26 -99 b 138 -319 -26 -272 53 -319 b 294 -278 203 -319 256 -306 z "},"į":{"ha":319,"x_min":0,"x_max":0,"o":"m 243 799 b 243 965 289 846 289 919 b 76 965 197 1011 122 1011 b 76 799 31 919 31 846 b 243 799 122 751 197 751 z m 260 -250 b 263 -215 267 -244 268 -233 l 242 -133 b 211 -118 238 -118 222 -112 b 140 -137 188 -131 164 -137 b 82 -87 111 -137 82 -119 b 201 0 82 -37 125 0 b 257 56 239 0 257 18 l 257 611 b 201 667 257 649 239 667 l 118 667 b 63 611 81 667 63 649 l 63 56 b 67 28 63 44 64 35 b -61 -144 -10 -4 -61 -67 b 103 -292 -61 -244 18 -292 b 260 -250 167 -292 219 -278 z "},"İ":{"ha":368,"x_min":0,"x_max":0,"o":"m 275 1071 b 314 1164 301 1097 314 1128 b 183 1294 314 1235 254 1294 b 53 1164 113 1294 53 1235 b 275 1071 47 1051 201 985 z m 285 903 b 229 958 285 940 267 958 l 139 958 b 83 903 101 958 83 940 l 83 28 b 139 -28 83 -10 101 -28 l 229 -28 b 285 28 267 -28 285 -10 z "},"ı":{"ha":317,"x_min":0,"x_max":0,"o":"m 256 611 b 200 667 256 649 238 667 l 117 667 b 61 611 79 667 61 649 l 61 56 b 117 0 61 18 79 0 l 200 0 b 256 56 238 0 256 18 z "},"Ĳ":{"ha":1164,"x_min":0,"x_max":0,"o":"m 285 903 b 229 958 285 940 267 958 l 139 958 b 83 903 101 958 83 940 l 83 28 b 139 -28 83 -10 101 -28 l 229 -28 b 285 28 267 -28 285 -10 z m 657 -17 b 983 281 853 -17 983 82 l 983 758 l 1093 764 b 1147 818 1129 765 1147 783 l 1147 903 b 1092 958 1147 940 1129 960 l 517 931 b 461 875 479 929 461 911 l 461 790 b 515 736 461 753 481 735 l 782 749 l 782 392 b 654 192 782 246 738 192 b 493 235 606 192 551 206 b 433 214 464 249 444 242 l 392 111 b 400 60 382 86 385 69 b 657 -17 489 8 575 -17 z "},"ĳ":{"ha":633,"x_min":0,"x_max":0,"o":"m 243 799 b 243 965 289 846 289 919 b 76 965 197 1011 122 1011 b 76 799 31 919 31 846 b 243 799 122 751 197 751 z m 557 771 b 557 938 603 818 603 892 b 390 938 511 983 436 983 b 390 771 344 892 344 818 b 557 771 436 724 511 724 z m 257 611 b 201 667 257 649 239 667 l 118 667 b 63 611 81 667 63 649 l 63 56 b 118 0 63 18 81 0 l 201 0 b 257 56 239 0 257 18 z m 292 -308 b 571 -4 481 -308 571 -197 l 571 597 b 529 639 571 625 557 639 l 418 639 b 376 597 390 639 376 625 l 376 29 b 293 -107 376 -75 350 -107 b 233 -99 283 -107 263 -104 b 189 -131 213 -94 197 -106 l 150 -233 b 188 -293 138 -267 149 -283 b 292 -308 225 -303 260 -308 z "},"Ĵ":{"ha":796,"x_min":0,"x_max":0,"o":"m 450 1288 b 374 1242 418 1288 393 1272 l 279 1094 b 307 1039 258 1065 269 1039 l 374 1039 b 442 1071 401 1039 424 1050 l 515 1164 l 588 1071 b 656 1039 606 1050 628 1039 l 721 1039 b 749 1094 758 1039 769 1065 l 654 1242 b 578 1288 635 1272 610 1288 z m 289 -17 b 615 281 485 -17 615 82 l 615 758 l 725 764 b 779 818 761 765 779 783 l 779 903 b 724 958 779 940 761 960 l 149 931 b 93 875 111 929 93 911 l 93 790 b 147 736 93 753 113 735 l 414 749 l 414 392 b 286 192 414 246 369 192 b 125 235 238 192 183 206 b 65 214 96 249 76 242 l 24 111 b 32 60 14 86 17 69 b 289 -17 121 8 207 -17 z "},"ĵ":{"ha":317,"x_min":0,"x_max":0,"o":"m 92 1038 b 15 992 60 1038 35 1022 l -79 844 b -51 789 -100 815 -89 789 l 15 789 b 83 821 43 789 65 800 l 157 914 l 229 821 b 297 789 247 800 269 789 l 363 789 b 390 844 400 789 411 815 l 296 992 b 219 1038 276 1022 251 1038 z m -25 -308 b 254 -4 164 -308 254 -197 l 254 653 b 213 694 254 681 240 694 l 101 694 b 60 653 74 694 60 681 l 60 29 b -24 -107 60 -75 33 -107 b -83 -99 -33 -107 -54 -104 b -128 -131 -104 -94 -119 -106 l -167 -233 b -129 -293 -179 -267 -168 -283 b -25 -308 -92 -303 -57 -308 z "},"Ķ":{"ha":857,"x_min":0,"x_max":0,"o":"m 782 1 b 821 82 836 14 849 40 l 551 497 b 532 528 544 508 538 518 l 803 796 b 794 874 828 819 825 846 l 733 929 b 654 924 707 953 681 950 l 285 558 l 285 847 b 229 903 285 885 267 903 l 139 903 b 83 847 101 903 83 885 l 83 56 b 139 0 83 18 101 0 l 229 0 b 285 56 267 0 285 18 l 285 285 l 393 392 l 626 43 b 665 -8 644 18 656 0 b 714 -12 675 -18 692 -17 z m 550 -165 b 521 -110 571 -128 561 -110 l 401 -110 b 325 -156 351 -110 336 -118 l 285 -303 b 326 -358 274 -343 286 -358 l 399 -358 b 475 -303 436 -358 451 -346 z "},"ķ":{"ha":700,"x_min":0,"x_max":0,"o":"m 635 -1 b 672 76 685 8 697 35 l 472 424 l 650 588 b 642 661 674 608 671 632 l 578 724 b 503 719 556 746 531 744 l 257 493 l 257 917 b 201 972 257 954 239 972 l 118 972 b 63 917 81 972 63 954 l 63 56 b 118 0 63 18 81 0 l 201 0 b 257 56 239 0 257 18 l 257 226 l 335 297 l 490 39 b 574 -14 524 -17 529 -24 z m 486 -165 b 457 -110 507 -128 497 -110 l 338 -110 b 261 -156 288 -110 272 -118 l 221 -303 b 263 -358 210 -343 222 -358 l 335 -358 b 411 -303 372 -358 388 -346 z "},"Ĺ":{"ha":679,"x_min":0,"x_max":0,"o":"m 415 1232 b 400 1288 439 1264 438 1288 l 260 1288 b 183 1242 222 1288 197 1272 l 117 1094 b 144 1039 101 1057 110 1039 l 224 1039 b 307 1094 250 1039 278 1057 z m 606 1 b 660 56 640 0 660 18 l 660 140 b 604 196 660 175 642 193 l 285 214 l 285 875 b 229 931 285 913 267 931 l 139 931 b 83 875 101 931 83 913 l 83 82 b 139 28 83 46 101 28 l 606 1 z "},"ĺ":{"ha":326,"x_min":0,"x_max":0,"o":"m 392 1258 b 376 1314 415 1288 414 1314 l 236 1314 b 160 1268 199 1314 174 1299 l 93 1121 b 121 1065 78 1083 86 1065 l 200 1065 b 283 1121 226 1065 254 1083 z m 264 944 b 208 1000 264 982 246 1000 l 118 1000 b 63 944 81 1000 63 982 l 63 56 b 118 0 63 18 81 0 l 208 0 b 264 56 246 0 264 18 z "},"Ļ":{"ha":679,"x_min":0,"x_max":0,"o":"m 606 1 b 660 56 640 0 660 18 l 660 140 b 604 196 660 175 642 193 l 285 214 l 285 875 b 229 931 285 913 267 931 l 139 931 b 83 875 101 931 83 913 l 83 82 b 139 28 83 46 101 28 l 606 1 z m 475 -165 b 446 -110 496 -128 486 -110 l 326 -110 b 250 -156 276 -110 261 -118 l 210 -303 b 251 -358 199 -343 211 -358 l 324 -358 b 400 -303 361 -358 376 -346 z "},"ļ":{"ha":326,"x_min":0,"x_max":0,"o":"m 264 944 b 208 1000 264 982 246 1000 l 118 1000 b 63 944 81 1000 63 982 l 63 56 b 118 0 63 18 81 0 l 208 0 b 264 56 246 0 264 18 z m 257 -165 b 228 -110 278 -128 268 -110 l 108 -110 b 32 -156 58 -110 43 -118 l -8 -303 b 33 -358 -19 -343 -7 -358 l 106 -358 b 182 -303 143 -358 158 -346 z "},"Ľ":{"ha":679,"x_min":0,"x_max":0,"o":"m 543 875 b 514 931 554 919 549 931 l 388 931 b 339 885 349 931 339 922 l 339 738 b 381 682 339 694 347 682 l 439 682 b 508 738 479 682 497 693 z m 606 1 b 660 56 640 0 660 18 l 660 140 b 604 196 660 175 642 193 l 285 214 l 285 875 b 229 931 285 913 267 931 l 139 931 b 83 875 101 931 83 913 l 83 82 b 139 28 83 46 101 28 l 606 1 z "},"ľ":{"ha":326,"x_min":0,"x_max":0,"o":"m 524 944 b 494 1000 535 989 529 1000 l 368 1000 b 319 954 329 1000 319 992 l 319 807 b 361 751 319 764 328 751 l 419 751 b 489 807 460 751 478 763 z m 264 944 b 208 1000 264 982 246 1000 l 118 1000 b 63 944 81 1000 63 982 l 63 56 b 118 0 63 18 81 0 l 208 0 b 264 56 246 0 264 18 z "},"Ŀ":{"ha":679,"x_min":0,"x_max":0,"o":"m 606 1 b 660 56 640 0 660 18 l 660 140 b 604 196 660 175 642 193 l 285 214 l 285 875 b 229 931 285 913 267 931 l 139 931 b 83 875 101 931 83 913 l 83 82 b 139 28 83 46 101 28 l 606 1 z m 614 399 b 653 492 640 425 653 456 b 522 622 653 563 593 622 b 392 492 451 622 392 563 b 614 399 386 379 540 313 z "},"ŀ":{"ha":574,"x_min":0,"x_max":0,"o":"m 264 944 b 208 1000 264 982 246 1000 l 118 1000 b 63 944 81 1000 63 982 l 63 56 b 118 0 63 18 81 0 l 208 0 b 264 56 246 0 264 18 z m 542 399 b 581 492 568 425 581 456 b 450 622 581 563 521 622 b 319 492 379 622 319 563 b 542 399 314 379 468 313 z "},"Ł":{"ha":765,"x_min":0,"x_max":0,"o":"m 692 1 b 746 56 726 0 746 18 l 746 140 b 690 196 746 176 728 194 l 375 210 l 382 415 l 543 439 b 597 493 581 444 597 458 l 597 578 b 542 633 597 617 579 639 l 389 611 l 399 875 b 343 931 400 913 381 931 l 253 931 b 197 875 217 931 199 913 l 188 581 l 76 564 b 21 508 38 558 21 543 l 21 424 b 75 369 21 386 40 364 l 181 385 l 169 82 b 225 28 168 44 186 28 l 692 1 z "},"ł":{"ha":535,"x_min":0,"x_max":0,"o":"m 313 0 b 368 56 350 0 368 18 l 368 422 l 461 439 b 515 493 500 446 515 458 l 515 578 b 460 633 515 617 497 640 l 368 617 l 368 944 b 313 1000 368 982 350 1000 l 222 1000 b 167 944 185 1000 167 982 l 167 581 l 75 564 b 19 508 35 557 19 543 l 19 424 b 74 369 19 386 39 363 l 167 386 l 167 56 b 222 0 167 18 185 0 l 313 0 z "},"Ń":{"ha":943,"x_min":0,"x_max":0,"o":"m 688 1232 b 672 1288 711 1264 710 1288 l 532 1288 b 456 1242 494 1288 469 1272 l 389 1094 b 417 1039 374 1057 382 1039 l 496 1039 b 579 1094 522 1039 550 1057 z m 285 546 l 635 24 b 642 15 636 22 640 17 b 686 0 651 6 667 0 l 776 0 b 832 56 811 0 829 18 l 888 875 b 832 931 890 913 872 931 l 742 931 b 686 875 707 931 689 913 l 649 326 l 278 881 l 276 883 l 272 888 l 267 893 l 265 894 l 263 894 l 261 896 l 260 897 b 229 903 253 901 243 903 l 139 903 b 83 847 101 903 83 885 l 83 28 b 139 -28 83 -10 101 -28 l 229 -28 b 285 28 267 -28 285 -10 z "},"ń":{"ha":763,"x_min":0,"x_max":0,"o":"m 653 982 b 638 1038 676 1014 675 1038 l 497 1038 b 421 992 460 1038 435 1022 l 354 844 b 382 789 339 807 347 789 l 461 789 b 544 844 488 789 515 807 z m 257 325 b 408 510 257 449 314 510 b 515 360 479 510 515 460 l 515 56 b 571 0 515 18 533 0 l 654 0 b 710 56 692 0 710 18 l 710 422 b 475 711 710 615 618 711 b 257 590 393 711 307 668 l 257 694 b 201 750 257 732 239 750 l 118 750 b 63 694 81 750 63 732 l 63 28 b 118 -28 63 -10 81 -28 l 201 -28 b 257 28 239 -28 257 -10 z "},"Ņ":{"ha":943,"x_min":0,"x_max":0,"o":"m 285 546 l 635 24 b 642 15 636 22 640 17 b 686 0 651 6 667 0 l 776 0 b 832 56 811 0 829 18 l 888 875 b 832 931 890 913 872 931 l 742 931 b 686 875 707 931 689 913 l 649 326 l 278 881 l 276 883 l 272 888 l 267 893 l 265 894 l 263 894 l 261 896 l 260 897 b 229 903 253 901 243 903 l 139 903 b 83 847 101 903 83 885 l 83 28 b 139 -28 83 -10 101 -28 l 229 -28 b 285 28 267 -28 285 -10 z m 581 -165 b 551 -110 601 -128 592 -110 l 432 -110 b 356 -156 382 -110 367 -118 l 315 -303 b 357 -358 304 -343 317 -358 l 429 -358 b 506 -303 467 -358 482 -346 z "},"ņ":{"ha":763,"x_min":0,"x_max":0,"o":"m 257 325 b 408 510 257 449 314 510 b 515 360 479 510 515 460 l 515 56 b 571 0 515 18 533 0 l 654 0 b 710 56 692 0 710 18 l 710 422 b 475 711 710 615 618 711 b 257 590 393 711 307 668 l 257 694 b 201 750 257 732 239 750 l 118 750 b 63 694 81 750 63 732 l 63 28 b 118 -28 63 -10 81 -28 l 201 -28 b 257 28 239 -28 257 -10 z m 504 -165 b 475 -110 525 -128 515 -110 l 356 -110 b 279 -156 306 -110 290 -118 l 239 -303 b 281 -358 228 -343 240 -358 l 353 -358 b 429 -303 390 -358 406 -346 z "},"Ň":{"ha":943,"x_min":0,"x_max":0,"o":"m 536 1039 b 613 1085 568 1039 593 1054 l 707 1232 b 679 1288 728 1264 717 1288 l 613 1288 b 544 1256 585 1288 563 1276 l 471 1163 l 399 1256 b 331 1288 381 1276 358 1288 l 265 1288 b 238 1232 228 1288 217 1264 l 332 1085 b 408 1039 351 1054 376 1039 z m 285 546 l 635 24 b 642 15 636 22 640 17 b 686 0 651 6 667 0 l 776 0 b 832 56 811 0 829 18 l 888 875 b 832 931 890 913 872 931 l 742 931 b 686 875 707 931 689 913 l 649 326 l 278 881 l 276 883 l 272 888 l 267 893 l 265 894 l 263 894 l 261 896 l 260 897 b 229 903 253 901 243 903 l 139 903 b 83 847 101 903 83 885 l 83 28 b 139 -28 83 -10 101 -28 l 229 -28 b 285 28 267 -28 285 -10 z "},"ň":{"ha":763,"x_min":0,"x_max":0,"o":"m 515 789 b 592 835 547 789 572 804 l 686 982 b 658 1038 707 1014 696 1038 l 592 1038 b 524 1006 564 1038 542 1026 l 450 913 l 378 1006 b 310 1038 360 1026 338 1038 l 244 1038 b 217 982 207 1038 196 1014 l 311 835 b 388 789 331 804 356 789 z m 257 325 b 408 510 257 449 314 510 b 515 360 479 510 515 460 l 515 56 b 571 0 515 18 533 0 l 654 0 b 710 56 692 0 710 18 l 710 422 b 475 711 710 615 618 711 b 257 590 393 711 307 668 l 257 694 b 201 750 257 732 239 750 l 118 750 b 63 694 81 750 63 732 l 63 28 b 118 -28 63 -10 81 -28 l 201 -28 b 257 28 239 -28 257 -10 z "},"Ō":{"ha":1025,"x_min":0,"x_max":0,"o":"m 346 1199 b 290 1143 308 1199 290 1181 l 290 1094 b 346 1039 290 1057 308 1039 l 665 1039 b 721 1094 703 1039 721 1057 l 721 1143 b 665 1199 721 1181 703 1199 z m 856 104 b 986 465 942 194 985 314 b 856 825 985 614 940 735 b 514 961 769 915 656 961 b 169 825 371 961 256 915 b 39 465 82 735 39 614 b 168 106 39 315 82 196 b 511 -31 254 15 368 -31 b 856 104 654 -31 768 14 z m 514 178 b 240 465 338 178 240 293 b 513 753 240 636 339 753 b 785 465 683 753 781 636 b 514 178 781 293 685 178 z "},"ō":{"ha":756,"x_min":0,"x_max":0,"o":"m 218 949 b 163 893 181 949 163 931 l 163 844 b 218 789 163 807 181 789 l 538 789 b 593 844 575 789 593 807 l 593 893 b 538 949 593 931 575 949 z m 632 86 b 726 347 694 154 726 240 b 632 610 726 454 694 542 b 378 711 569 678 485 711 b 124 610 271 711 186 678 b 29 347 61 542 29 454 b 124 86 29 240 61 154 b 378 -17 186 18 271 -17 b 632 86 485 -17 569 18 z m 267 225 b 224 347 238 251 224 292 b 267 471 224 403 238 444 b 378 510 294 497 332 510 b 490 471 424 510 461 497 b 532 347 518 444 532 403 b 490 225 532 292 518 251 b 378 185 461 199 424 185 b 267 225 332 185 294 199 z "},"Ŏ":{"ha":1025,"x_min":0,"x_max":0,"o":"m 429 1240 b 368 1288 425 1272 404 1288 l 351 1288 b 283 1218 306 1288 283 1264 b 513 1039 283 1108 368 1039 b 742 1218 657 1039 742 1108 b 674 1288 742 1264 719 1288 l 657 1288 b 596 1240 621 1288 600 1272 b 513 1171 589 1194 561 1171 b 429 1240 464 1171 436 1194 z m 856 104 b 986 465 942 194 985 314 b 856 825 985 614 940 735 b 514 961 769 915 656 961 b 169 825 371 961 256 915 b 39 465 82 735 39 614 b 168 106 39 315 82 196 b 511 -31 254 15 368 -31 b 856 104 654 -31 768 14 z m 514 178 b 240 465 338 178 240 293 b 513 753 240 636 339 753 b 785 465 683 753 781 636 b 514 178 781 293 685 178 z "},"ŏ":{"ha":756,"x_min":0,"x_max":0,"o":"m 294 990 b 233 1038 290 1022 269 1038 l 217 1038 b 149 968 171 1038 149 1014 b 378 789 149 858 233 789 b 607 968 522 789 607 858 b 539 1038 607 1014 585 1038 l 522 1038 b 461 990 486 1038 465 1022 b 378 921 454 944 426 921 b 294 990 329 921 301 944 z m 632 86 b 726 347 694 154 726 240 b 632 610 726 454 694 542 b 378 711 569 678 485 711 b 124 610 271 711 186 678 b 29 347 61 542 29 454 b 124 86 29 240 61 154 b 378 -17 186 18 271 -17 b 632 86 485 -17 569 18 z m 267 225 b 224 347 238 251 224 292 b 267 471 224 403 238 444 b 378 510 294 497 332 510 b 490 471 424 510 461 497 b 532 347 518 444 532 403 b 490 225 532 292 518 251 b 378 185 461 199 424 185 b 267 225 332 185 294 199 z "},"Ő":{"ha":1025,"x_min":0,"x_max":0,"o":"m 821 1232 b 792 1288 842 1275 832 1288 l 685 1288 b 617 1242 642 1288 626 1279 l 578 1094 b 619 1039 567 1054 579 1039 l 671 1039 b 754 1094 708 1039 736 1057 z m 560 1232 b 531 1288 581 1275 571 1288 l 425 1288 b 356 1242 381 1288 365 1279 l 317 1094 b 358 1039 306 1054 318 1039 l 410 1039 b 493 1094 447 1039 475 1057 z m 856 104 b 986 465 942 194 985 314 b 856 825 985 614 940 735 b 514 961 769 915 656 961 b 169 825 371 961 256 915 b 39 465 82 735 39 614 b 168 106 39 315 82 196 b 511 -31 254 15 368 -31 b 856 104 654 -31 768 14 z m 514 178 b 240 465 338 178 240 293 b 513 753 240 636 339 753 b 785 465 683 753 781 636 b 514 178 781 293 685 178 z "},"ő":{"ha":756,"x_min":0,"x_max":0,"o":"m 672 982 b 643 1038 693 1025 683 1038 l 536 1038 b 468 992 493 1038 478 1029 l 429 844 b 471 789 418 804 431 789 l 522 789 b 606 844 560 789 588 807 z m 411 982 b 382 1038 432 1025 422 1038 l 276 1038 b 207 992 232 1038 217 1029 l 168 844 b 210 789 157 804 169 789 l 261 789 b 344 844 299 789 326 807 z m 632 86 b 726 347 694 154 726 240 b 632 610 726 454 694 542 b 378 711 569 678 485 711 b 124 610 271 711 186 678 b 29 347 61 542 29 454 b 124 86 29 240 61 154 b 378 -17 186 18 271 -17 b 632 86 485 -17 569 18 z m 267 225 b 224 347 238 251 224 292 b 267 471 224 403 238 444 b 378 510 294 497 332 510 b 490 471 424 510 461 497 b 532 347 518 444 532 403 b 490 225 532 292 518 251 b 378 185 461 199 424 185 b 267 225 332 185 294 199 z "},"Œ":{"ha":1274,"x_min":0,"x_max":0,"o":"m 1175 0 b 1231 56 1213 0 1231 18 l 1231 140 b 1176 194 1231 176 1213 194 l 796 199 l 801 363 l 1118 383 b 1172 438 1154 386 1172 404 l 1172 522 b 1117 578 1172 563 1154 581 l 808 557 l 815 732 l 1175 736 b 1229 790 1211 736 1229 754 l 1229 875 b 1174 931 1229 913 1211 931 l 514 931 b 169 804 371 931 256 889 b 39 465 82 719 39 606 b 168 126 39 324 82 211 b 511 0 254 42 368 0 l 1175 0 z m 514 201 b 226 465 329 203 226 308 b 513 729 226 621 329 728 l 619 731 l 603 200 l 514 201 z "},"œ":{"ha":1203,"x_min":0,"x_max":0,"o":"m 896 -17 b 1156 67 989 -17 1089 15 b 1161 125 1176 90 1174 92 l 1133 197 b 1082 222 1124 224 1103 235 b 922 164 1013 183 960 164 b 739 268 832 164 771 199 l 1126 313 b 1181 397 1172 318 1181 338 b 1099 626 1181 493 1153 569 b 881 711 1043 683 971 711 b 628 611 774 711 690 678 b 378 711 564 678 481 711 b 124 610 271 711 186 678 b 29 347 61 542 29 454 b 124 86 29 240 61 154 b 378 -17 186 18 271 -17 b 631 86 482 -17 567 18 b 896 -17 696 18 785 -17 z m 867 531 b 981 447 926 531 968 497 l 731 418 b 867 531 746 493 792 531 z m 267 225 b 224 347 238 251 224 292 b 267 471 224 403 238 444 b 378 510 294 497 332 510 b 490 471 424 510 461 497 b 532 347 518 444 532 403 b 490 225 532 292 518 251 b 378 185 461 199 424 185 b 267 225 332 185 294 199 z "},"Ŕ":{"ha":825,"x_min":0,"x_max":0,"o":"m 628 1232 b 613 1288 651 1264 650 1288 l 472 1288 b 396 1242 435 1288 410 1272 l 329 1094 b 357 1039 314 1057 322 1039 l 436 1039 b 519 1094 463 1039 490 1057 z m 746 -26 b 785 54 794 -17 808 11 l 636 325 b 769 596 725 382 769 472 b 358 931 769 819 625 931 l 139 931 b 83 875 101 931 83 913 l 83 56 b 139 0 83 18 101 0 l 229 0 b 285 56 267 0 285 18 l 285 261 l 358 261 b 451 267 394 261 425 263 l 597 15 b 638 -40 615 -15 628 -33 b 685 -40 646 -46 661 -46 z m 364 722 b 568 596 500 722 568 681 b 364 469 568 511 500 469 l 285 469 l 285 722 l 364 722 z "},"ŕ":{"ha":546,"x_min":0,"x_max":0,"o":"m 390 1024 b 375 1079 414 1056 413 1079 l 235 1079 b 158 1033 197 1079 172 1064 l 92 886 b 119 831 76 849 85 831 l 199 831 b 282 886 225 831 253 849 z m 257 325 b 392 496 257 435 313 496 b 481 485 417 496 446 492 b 518 507 504 479 517 486 l 532 667 b 519 693 533 678 529 686 b 439 711 500 706 474 711 b 257 593 372 711 301 667 l 257 708 b 201 764 257 746 239 764 l 118 764 b 63 708 81 764 63 746 l 63 56 b 118 0 63 18 81 0 l 201 0 b 257 56 239 0 257 18 z "},"Ŗ":{"ha":825,"x_min":0,"x_max":0,"o":"m 746 -26 b 785 54 794 -17 808 11 l 636 325 b 769 596 725 382 769 472 b 358 931 769 819 625 931 l 139 931 b 83 875 101 931 83 913 l 83 56 b 139 0 83 18 101 0 l 229 0 b 285 56 267 0 285 18 l 285 261 l 358 261 b 451 267 394 261 425 263 l 597 15 b 638 -40 615 -15 628 -33 b 685 -40 646 -46 661 -46 z m 364 722 b 568 596 500 722 568 681 b 364 469 568 511 500 469 l 285 469 l 285 722 l 364 722 z m 549 -165 b 519 -110 569 -128 560 -110 l 400 -110 b 324 -156 350 -110 335 -118 l 283 -303 b 325 -358 272 -343 285 -358 l 397 -358 b 474 -303 435 -358 450 -346 z "},"ŗ":{"ha":546,"x_min":0,"x_max":0,"o":"m 257 325 b 392 496 257 435 313 496 b 481 485 417 496 446 492 b 518 507 504 479 517 486 l 532 667 b 519 693 533 678 529 686 b 439 711 500 706 474 711 b 257 593 372 711 301 667 l 257 708 b 201 764 257 746 239 764 l 118 764 b 63 708 81 764 63 746 l 63 56 b 118 0 63 18 81 0 l 201 0 b 257 56 239 0 257 18 z m 269 -165 b 240 -110 290 -128 281 -110 l 121 -110 b 44 -156 71 -110 56 -118 l 4 -303 b 46 -358 -7 -343 6 -358 l 118 -358 b 194 -303 156 -358 171 -346 z "},"Ř":{"ha":825,"x_min":0,"x_max":0,"o":"m 476 1039 b 553 1085 508 1039 533 1054 l 647 1232 b 619 1288 668 1264 657 1288 l 553 1288 b 485 1256 525 1288 503 1276 l 411 1163 l 339 1256 b 271 1288 321 1276 299 1288 l 206 1288 b 178 1232 168 1288 157 1264 l 272 1085 b 349 1039 292 1054 317 1039 z m 746 -26 b 785 54 794 -17 808 11 l 636 325 b 769 596 725 382 769 472 b 358 931 769 819 625 931 l 139 931 b 83 875 101 931 83 913 l 83 56 b 139 0 83 18 101 0 l 229 0 b 285 56 267 0 285 18 l 285 261 l 358 261 b 451 267 394 261 425 263 l 597 15 b 638 -40 615 -15 628 -33 b 685 -40 646 -46 661 -46 z m 364 722 b 568 596 500 722 568 681 b 364 469 568 511 500 469 l 285 469 l 285 722 l 364 722 z "},"ř":{"ha":546,"x_min":0,"x_max":0,"o":"m 406 789 b 482 835 438 789 463 804 l 576 982 b 549 1038 597 1014 586 1038 l 482 1038 b 414 1006 454 1038 432 1026 l 340 913 l 268 1006 b 200 1038 250 1026 228 1038 l 135 1038 b 107 982 97 1038 86 1014 l 201 835 b 278 789 221 804 246 789 z m 257 325 b 392 496 257 435 313 496 b 481 485 417 496 446 492 b 518 507 504 479 517 486 l 532 667 b 519 693 533 678 529 686 b 439 711 500 706 474 711 b 257 593 372 711 301 667 l 257 708 b 201 764 257 746 239 764 l 118 764 b 63 708 81 764 63 746 l 63 56 b 118 0 63 18 81 0 l 201 0 b 257 56 239 0 257 18 z "},"Ś":{"ha":703,"x_min":0,"x_max":0,"o":"m 567 1232 b 551 1288 590 1264 589 1288 l 411 1288 b 335 1242 374 1288 349 1272 l 268 1094 b 296 1039 253 1057 261 1039 l 375 1039 b 458 1094 401 1039 429 1057 z m 474 243 b 372 178 474 200 440 178 b 135 247 299 178 219 201 b 74 228 101 264 89 257 l 33 144 b 56 76 18 110 24 100 b 364 -17 135 19 258 -17 b 675 264 558 -17 675 88 b 263 694 675 526 263 564 b 356 753 263 733 293 753 b 518 708 397 753 451 738 b 579 728 547 696 567 703 l 618 813 b 596 881 631 844 628 860 b 356 947 535 919 435 947 b 61 681 172 947 61 842 b 474 243 61 407 474 382 z "},"ś":{"ha":594,"x_min":0,"x_max":0,"o":"m 526 982 b 511 1038 550 1014 549 1038 l 371 1038 b 294 992 333 1038 308 1022 l 228 844 b 256 789 213 807 221 789 l 335 789 b 418 844 361 789 389 807 z m 43 488 b 382 204 43 228 382 303 b 308 167 382 179 357 167 b 119 219 247 167 185 185 b 68 194 99 231 78 218 l 40 117 b 46 58 32 93 24 78 b 297 -17 108 8 192 -17 b 489 43 371 -17 435 3 b 569 228 543 83 569 144 b 231 497 569 479 231 397 b 285 535 231 522 249 535 b 458 492 328 535 386 521 b 510 517 482 482 499 490 l 539 589 b 533 647 551 615 549 635 b 304 711 476 690 400 711 b 43 488 143 711 43 619 z "},"Ŝ":{"ha":703,"x_min":0,"x_max":0,"o":"m 288 1288 b 211 1242 256 1288 231 1272 l 117 1094 b 144 1039 96 1065 107 1039 l 211 1039 b 279 1071 239 1039 261 1050 l 353 1164 l 425 1071 b 493 1039 443 1050 465 1039 l 558 1039 b 586 1094 596 1039 607 1065 l 492 1242 b 415 1288 472 1272 447 1288 z m 474 243 b 372 178 474 200 440 178 b 135 247 299 178 219 201 b 74 228 101 264 89 257 l 33 144 b 56 76 18 110 24 100 b 364 -17 135 19 258 -17 b 675 264 558 -17 675 88 b 263 694 675 526 263 564 b 356 753 263 733 293 753 b 518 708 397 753 451 738 b 579 728 547 696 567 703 l 618 813 b 596 881 631 844 628 860 b 356 947 535 919 435 947 b 61 681 172 947 61 842 b 474 243 61 407 474 382 z "},"ŝ":{"ha":594,"x_min":0,"x_max":0,"o":"m 233 1038 b 157 992 201 1038 176 1022 l 63 844 b 90 789 42 815 53 789 l 157 789 b 225 821 185 789 207 800 l 299 914 l 371 821 b 439 789 389 800 411 789 l 504 789 b 532 844 542 789 553 815 l 438 992 b 361 1038 418 1022 393 1038 z m 43 488 b 382 204 43 228 382 303 b 308 167 382 179 357 167 b 119 219 247 167 185 185 b 68 194 99 231 78 218 l 40 117 b 46 58 32 93 24 78 b 297 -17 108 8 192 -17 b 489 43 371 -17 435 3 b 569 228 543 83 569 144 b 231 497 569 479 231 397 b 285 535 231 522 249 535 b 458 492 328 535 386 521 b 510 517 482 482 499 490 l 539 589 b 533 647 551 615 549 635 b 304 711 476 690 400 711 b 43 488 143 711 43 619 z "},"Ş":{"ha":703,"x_min":0,"x_max":0,"o":"m 331 -382 b 544 -217 463 -382 544 -329 b 379 -54 544 -117 478 -54 b 344 -57 371 -54 360 -56 l 353 -17 l 364 -17 b 675 264 558 -17 675 88 b 263 694 675 526 263 564 b 356 753 263 733 293 753 b 518 708 397 753 451 738 b 579 728 547 696 567 703 l 618 813 b 596 881 631 844 628 860 b 356 947 535 919 435 947 b 61 681 172 947 61 842 b 474 243 61 407 474 382 b 372 178 474 200 440 178 b 135 247 299 178 219 201 b 74 228 101 264 89 257 l 33 144 b 56 76 18 110 24 100 b 281 -10 115 33 190 4 l 242 -165 b 268 -189 238 -181 246 -189 b 332 -183 279 -189 314 -183 b 403 -221 372 -183 403 -199 b 332 -256 403 -244 379 -256 b 246 -231 308 -256 279 -247 b 215 -246 233 -224 224 -228 l 186 -308 b 189 -343 179 -325 179 -336 b 331 -382 229 -369 276 -382 z "},"ş":{"ha":594,"x_min":0,"x_max":0,"o":"m 281 -374 b 492 -211 421 -374 492 -319 b 326 -61 492 -121 425 -61 b 290 -64 319 -61 307 -62 l 300 -17 b 569 228 426 -17 569 47 b 231 497 569 479 231 397 b 285 535 231 522 249 535 b 458 492 328 535 386 521 b 510 517 482 482 499 490 l 539 589 b 533 647 551 615 549 635 b 304 711 476 690 400 711 b 43 488 143 711 43 619 b 382 204 43 228 382 303 b 308 167 382 179 357 167 b 119 219 247 167 185 185 b 68 194 99 231 78 218 l 40 117 b 46 58 32 93 24 78 b 228 -12 92 22 151 -1 l 192 -151 b 218 -175 188 -167 196 -175 b 282 -169 229 -175 264 -169 b 353 -207 322 -169 353 -185 b 282 -242 353 -231 329 -242 b 196 -217 258 -242 229 -233 b 165 -232 183 -210 174 -214 l 136 -300 b 139 -335 129 -317 129 -328 b 281 -374 179 -361 226 -374 z "},"Š":{"ha":703,"x_min":0,"x_max":0,"o":"m 415 1039 b 492 1085 447 1039 472 1054 l 586 1232 b 558 1288 607 1264 596 1288 l 492 1288 b 424 1256 464 1288 442 1276 l 350 1163 l 278 1256 b 210 1288 260 1276 238 1288 l 144 1288 b 117 1232 107 1288 96 1264 l 211 1085 b 288 1039 231 1054 256 1039 z m 474 243 b 372 178 474 200 440 178 b 135 247 299 178 219 201 b 74 228 101 264 89 257 l 33 144 b 56 76 18 110 24 100 b 364 -17 135 19 258 -17 b 675 264 558 -17 675 88 b 263 694 675 526 263 564 b 356 753 263 733 293 753 b 518 708 397 753 451 738 b 579 728 547 696 567 703 l 618 813 b 596 881 631 844 628 860 b 356 947 535 919 435 947 b 61 681 172 947 61 842 b 474 243 61 407 474 382 z "},"š":{"ha":594,"x_min":0,"x_max":0,"o":"m 361 789 b 438 835 393 789 418 804 l 532 982 b 504 1038 553 1014 542 1038 l 438 1038 b 369 1006 410 1038 388 1026 l 296 913 l 224 1006 b 156 1038 206 1026 183 1038 l 90 1038 b 63 982 53 1038 42 1014 l 157 835 b 233 789 176 804 201 789 z m 43 488 b 382 204 43 228 382 303 b 308 167 382 179 357 167 b 119 219 247 167 185 185 b 68 194 99 231 78 218 l 40 117 b 46 58 32 93 24 78 b 297 -17 108 8 192 -17 b 489 43 371 -17 435 3 b 569 228 543 83 569 144 b 231 497 569 479 231 397 b 285 535 231 522 249 535 b 458 492 328 535 386 521 b 510 517 482 482 499 490 l 539 589 b 533 647 551 615 549 635 b 304 711 476 690 400 711 b 43 488 143 711 43 619 z "},"Ţ":{"ha":839,"x_min":0,"x_max":0,"o":"m 521 722 l 765 722 b 819 776 801 722 819 740 l 819 875 b 764 931 819 913 801 931 l 75 931 b 19 875 38 931 19 913 l 19 776 b 74 722 19 740 38 722 l 319 722 l 319 56 b 375 0 319 18 338 0 l 465 0 b 521 56 503 0 521 18 z m 528 -165 b 499 -110 549 -128 539 -110 l 379 -110 b 303 -156 329 -110 314 -118 l 263 -303 b 304 -358 251 -343 264 -358 l 376 -358 b 453 -303 414 -358 429 -346 z "},"ţ":{"ha":642,"x_min":0,"x_max":0,"o":"m 613 44 b 618 103 629 57 631 76 l 582 183 b 531 208 569 213 551 221 b 424 168 488 182 453 168 b 329 286 361 168 329 207 l 329 419 l 521 408 b 568 456 549 407 568 428 l 568 567 b 529 610 568 594 556 608 l 329 622 l 329 792 b 288 833 329 819 315 833 l 176 833 b 135 792 149 833 135 819 l 135 633 l 63 638 b 15 590 35 639 15 618 l 15 479 b 54 436 15 451 28 438 l 135 432 l 135 251 b 374 -31 135 67 219 -31 b 613 44 467 -31 547 -6 z m 469 -165 b 440 -110 490 -128 481 -110 l 321 -110 b 244 -156 271 -110 256 -118 l 204 -303 b 246 -358 193 -343 206 -358 l 318 -358 b 394 -303 356 -358 371 -346 z "},"Ť":{"ha":839,"x_min":0,"x_max":0,"o":"m 483 1039 b 560 1085 515 1039 540 1054 l 654 1232 b 626 1288 675 1264 664 1288 l 560 1288 b 492 1256 532 1288 510 1276 l 418 1163 l 346 1256 b 278 1288 328 1276 306 1288 l 213 1288 b 185 1232 175 1288 164 1264 l 279 1085 b 356 1039 299 1054 324 1039 z m 521 722 l 765 722 b 819 776 801 722 819 740 l 819 875 b 764 931 819 913 801 931 l 75 931 b 19 875 38 931 19 913 l 19 776 b 74 722 19 740 38 722 l 319 722 l 319 56 b 375 0 319 18 338 0 l 465 0 b 521 56 503 0 521 18 z "},"ť":{"ha":653,"x_min":0,"x_max":0,"o":"m 633 861 b 604 917 644 906 639 917 l 478 917 b 429 871 439 917 429 908 l 429 724 b 471 668 429 681 438 668 l 529 668 b 599 724 569 668 588 679 z m 613 44 b 618 103 629 57 631 76 l 582 183 b 531 208 569 213 551 221 b 424 168 488 182 453 168 b 329 286 361 168 329 207 l 329 419 l 521 408 b 568 456 549 407 568 428 l 568 567 b 529 610 568 594 556 608 l 329 622 l 329 792 b 288 833 329 819 315 833 l 176 833 b 135 792 149 833 135 819 l 135 633 l 63 638 b 15 590 35 639 15 618 l 15 479 b 54 436 15 451 28 438 l 135 432 l 135 251 b 374 -31 135 67 219 -31 b 613 44 467 -31 547 -6 z "},"Ŧ":{"ha":839,"x_min":0,"x_max":0,"o":"m 521 379 l 635 379 b 690 435 672 379 690 397 l 690 483 b 635 539 690 521 672 539 l 521 539 l 521 722 l 765 722 b 819 776 801 722 819 740 l 819 875 b 764 931 819 913 801 931 l 75 931 b 19 875 38 931 19 913 l 19 776 b 74 722 19 740 38 722 l 319 722 l 319 539 l 204 539 b 149 483 167 539 149 521 l 149 435 b 204 379 149 397 167 379 l 319 379 l 319 56 b 375 0 319 18 338 0 l 465 0 b 521 56 503 0 521 18 z "},"ŧ":{"ha":665,"x_min":0,"x_max":0,"o":"m 636 50 b 642 108 653 63 654 82 l 606 189 b 554 214 593 218 575 226 b 447 174 511 188 476 174 b 354 260 393 174 361 203 l 451 254 b 507 310 489 251 507 269 l 507 358 b 451 414 507 393 489 411 l 353 419 l 353 493 l 531 482 b 578 529 558 481 578 501 l 578 640 b 539 683 578 668 565 682 l 353 694 l 353 792 b 311 833 353 819 339 833 l 200 833 b 158 792 172 833 158 819 l 158 706 l 68 711 b 21 664 40 713 21 692 l 21 553 b 60 510 21 525 33 511 l 158 504 l 158 432 l 76 436 b 21 381 39 439 21 421 l 21 332 b 76 276 21 297 39 279 l 158 272 l 158 257 b 397 -25 158 72 243 -25 b 636 50 490 -25 571 0 z "},"Ũ":{"ha":914,"x_min":0,"x_max":0,"o":"m 538 1039 b 632 1057 568 1039 600 1044 b 674 1117 660 1067 674 1088 l 674 1185 b 619 1218 674 1221 656 1232 b 528 1199 585 1206 554 1199 b 456 1211 513 1199 488 1203 b 376 1224 424 1219 397 1224 b 282 1206 346 1224 314 1218 b 240 1146 254 1196 240 1175 l 240 1078 b 294 1044 240 1042 258 1031 b 386 1064 329 1057 360 1064 b 463 1051 404 1064 429 1060 b 538 1039 494 1043 519 1039 z m 629 83 b 685 28 629 46 647 28 l 775 28 b 831 83 813 28 831 46 l 831 847 b 775 903 831 885 813 903 l 685 903 b 629 847 647 903 629 885 l 629 392 b 567 240 629 329 608 278 b 418 183 525 203 475 183 b 276 378 324 183 276 239 l 276 875 b 221 931 276 913 258 931 l 131 931 b 75 875 93 931 75 913 l 75 294 b 351 -17 75 93 186 -17 b 629 128 475 -17 568 32 l 629 83 z "},"ũ":{"ha":763,"x_min":0,"x_max":0,"o":"m 461 789 b 556 807 492 789 524 794 b 597 867 583 817 597 838 l 597 935 b 543 968 597 971 579 982 b 451 949 508 956 478 949 b 379 961 436 949 411 953 b 300 974 347 969 321 974 b 206 956 269 974 238 968 b 164 896 178 946 164 925 l 164 828 b 218 794 164 792 182 781 b 310 814 253 807 283 814 b 386 801 328 814 353 810 b 461 789 418 793 443 789 z m 506 56 b 561 0 506 18 524 0 l 644 0 b 700 56 682 0 700 18 l 700 694 b 644 750 700 732 682 750 l 561 750 b 506 694 524 750 506 732 l 506 369 b 354 185 506 246 449 185 b 247 335 283 185 247 235 l 247 639 b 192 694 247 676 229 694 l 108 694 b 53 639 71 694 53 676 l 53 272 b 288 -17 53 79 144 -17 b 506 104 369 -17 456 26 l 506 56 z "},"Ū":{"ha":914,"x_min":0,"x_max":0,"o":"m 290 1199 b 235 1143 253 1199 235 1181 l 235 1094 b 290 1039 235 1057 253 1039 l 610 1039 b 665 1094 647 1039 665 1057 l 665 1143 b 610 1199 665 1181 647 1199 z m 629 83 b 685 28 629 46 647 28 l 775 28 b 831 83 813 28 831 46 l 831 847 b 775 903 831 885 813 903 l 685 903 b 629 847 647 903 629 885 l 629 392 b 567 240 629 329 608 278 b 418 183 525 203 475 183 b 276 378 324 183 276 239 l 276 875 b 221 931 276 913 258 931 l 131 931 b 75 875 93 931 75 913 l 75 294 b 351 -17 75 93 186 -17 b 629 128 475 -17 568 32 l 629 83 z "},"ū":{"ha":763,"x_min":0,"x_max":0,"o":"m 214 949 b 158 893 176 949 158 931 l 158 844 b 214 789 158 807 176 789 l 533 789 b 589 844 571 789 589 807 l 589 893 b 533 949 589 931 571 949 z m 506 56 b 561 0 506 18 524 0 l 644 0 b 700 56 682 0 700 18 l 700 694 b 644 750 700 732 682 750 l 561 750 b 506 694 524 750 506 732 l 506 369 b 354 185 506 246 449 185 b 247 335 283 185 247 235 l 247 639 b 192 694 247 676 229 694 l 108 694 b 53 639 71 694 53 676 l 53 272 b 288 -17 53 79 144 -17 b 506 104 369 -17 456 26 l 506 56 z "},"Ŭ":{"ha":914,"x_min":0,"x_max":0,"o":"m 374 1240 b 313 1288 369 1272 349 1288 l 296 1288 b 228 1218 250 1288 228 1264 b 457 1039 228 1108 313 1039 b 686 1218 601 1039 686 1108 b 618 1288 686 1264 664 1288 l 601 1288 b 540 1240 565 1288 544 1272 b 457 1171 533 1194 506 1171 b 374 1240 408 1171 381 1194 z m 629 83 b 685 28 629 46 647 28 l 775 28 b 831 83 813 28 831 46 l 831 847 b 775 903 831 885 813 903 l 685 903 b 629 847 647 903 629 885 l 629 392 b 567 240 629 329 608 278 b 418 183 525 203 475 183 b 276 378 324 183 276 239 l 276 875 b 221 931 276 913 258 931 l 131 931 b 75 875 93 931 75 913 l 75 294 b 351 -17 75 93 186 -17 b 629 128 475 -17 568 32 l 629 83 z "},"ŭ":{"ha":763,"x_min":0,"x_max":0,"o":"m 297 990 b 236 1038 293 1022 272 1038 l 219 1038 b 151 968 174 1038 151 1014 b 381 789 151 858 236 789 b 610 968 525 789 610 858 b 542 1038 610 1014 588 1038 l 525 1038 b 464 990 489 1038 468 1022 b 381 921 457 944 429 921 b 297 990 332 921 304 944 z m 506 56 b 561 0 506 18 524 0 l 644 0 b 700 56 682 0 700 18 l 700 694 b 644 750 700 732 682 750 l 561 750 b 506 694 524 750 506 732 l 506 369 b 354 185 506 246 449 185 b 247 335 283 185 247 235 l 247 639 b 192 694 247 676 229 694 l 108 694 b 53 639 71 694 53 676 l 53 272 b 288 -17 53 79 144 -17 b 506 104 369 -17 456 26 l 506 56 z "},"Ů":{"ha":914,"x_min":0,"x_max":0,"o":"m 596 1063 b 650 1186 632 1093 650 1135 b 457 1356 650 1288 569 1356 b 264 1186 344 1356 264 1288 b 318 1063 264 1135 282 1093 b 457 1017 354 1032 400 1017 b 596 1063 514 1017 560 1032 z m 410 1146 b 392 1186 397 1156 392 1168 b 456 1239 392 1218 421 1239 b 522 1186 494 1239 522 1219 b 410 1146 529 1133 447 1118 z m 629 83 b 685 28 629 46 647 28 l 775 28 b 831 83 813 28 831 46 l 831 847 b 775 903 831 885 813 903 l 685 903 b 629 847 647 903 629 885 l 629 392 b 567 240 629 329 608 278 b 418 183 525 203 475 183 b 276 378 324 183 276 239 l 276 875 b 221 931 276 913 258 931 l 131 931 b 75 875 93 931 75 913 l 75 294 b 351 -17 75 93 186 -17 b 629 128 475 -17 568 32 l 629 83 z "},"ů":{"ha":763,"x_min":0,"x_max":0,"o":"m 492 813 b 546 936 528 843 546 885 b 353 1106 546 1038 465 1106 b 160 936 240 1106 160 1038 b 214 813 160 885 178 843 b 353 767 250 782 296 767 b 492 813 410 767 456 782 z m 307 896 b 288 936 294 906 288 918 b 351 989 288 968 317 989 b 418 936 390 989 418 969 b 307 896 418 885 347 865 z m 506 56 b 561 0 506 18 524 0 l 644 0 b 700 56 682 0 700 18 l 700 694 b 644 750 700 732 682 750 l 561 750 b 506 694 524 750 506 732 l 506 369 b 354 185 506 246 449 185 b 247 335 283 185 247 235 l 247 639 b 192 694 247 676 229 694 l 108 694 b 53 639 71 694 53 676 l 53 272 b 288 -17 53 79 144 -17 b 506 104 369 -17 456 26 l 506 56 z "},"Ű":{"ha":914,"x_min":0,"x_max":0,"o":"m 765 1232 b 736 1288 786 1275 776 1288 l 629 1288 b 561 1242 586 1288 571 1279 l 522 1094 b 564 1039 511 1054 524 1039 l 615 1039 b 699 1094 653 1039 681 1057 z m 504 1232 b 475 1288 525 1275 515 1288 l 369 1288 b 300 1242 325 1288 310 1279 l 261 1094 b 303 1039 250 1054 263 1039 l 354 1039 b 438 1094 392 1039 419 1057 z m 629 83 b 685 28 629 46 647 28 l 775 28 b 831 83 813 28 831 46 l 831 847 b 775 903 831 885 813 903 l 685 903 b 629 847 647 903 629 885 l 629 392 b 567 240 629 329 608 278 b 418 183 525 203 475 183 b 276 378 324 183 276 239 l 276 875 b 221 931 276 913 258 931 l 131 931 b 75 875 93 931 75 913 l 75 294 b 351 -17 75 93 186 -17 b 629 128 475 -17 568 32 l 629 83 z "},"ű":{"ha":763,"x_min":0,"x_max":0,"o":"m 633 982 b 604 1038 654 1025 644 1038 l 497 1038 b 429 992 454 1038 439 1029 l 390 844 b 432 789 379 804 392 789 l 483 789 b 567 844 521 789 549 807 z m 372 982 b 343 1038 393 1025 383 1038 l 238 1038 b 168 992 193 1038 178 1029 l 129 844 b 171 789 118 804 131 789 l 222 789 b 306 844 260 789 288 807 z m 506 56 b 561 0 506 18 524 0 l 644 0 b 700 56 682 0 700 18 l 700 694 b 644 750 700 732 682 750 l 561 750 b 506 694 524 750 506 732 l 506 369 b 354 185 506 246 449 185 b 247 335 283 185 247 235 l 247 639 b 192 694 247 676 229 694 l 108 694 b 53 639 71 694 53 676 l 53 272 b 288 -17 53 79 144 -17 b 506 104 369 -17 456 26 l 506 56 z "},"Ų":{"ha":914,"x_min":0,"x_max":0,"o":"m 833 -299 b 836 -264 840 -293 842 -282 l 815 -182 b 785 -167 811 -167 796 -161 b 714 -186 761 -179 738 -186 b 656 -136 685 -186 656 -168 b 775 -49 656 -86 699 -49 b 831 7 813 -49 831 -31 l 831 847 b 775 903 831 885 813 903 l 685 903 b 629 847 647 903 629 885 l 629 392 b 567 240 629 329 608 278 b 418 183 525 203 475 183 b 276 378 324 183 276 239 l 276 875 b 221 931 276 913 258 931 l 131 931 b 75 875 93 931 75 913 l 75 294 b 351 -17 75 93 186 -17 b 629 128 475 -17 568 32 l 629 7 b 633 -21 629 -6 631 -14 b 513 -193 557 -53 513 -114 b 676 -340 513 -293 592 -340 b 833 -299 742 -340 794 -326 z "},"ų":{"ha":763,"x_min":0,"x_max":0,"o":"m 703 -315 b 706 -281 710 -310 711 -299 l 685 -199 b 654 -183 681 -183 665 -178 b 583 -203 631 -196 607 -203 b 525 -153 554 -203 525 -185 b 644 -65 525 -103 568 -65 b 700 -10 682 -65 700 -47 l 700 694 b 644 750 700 732 682 750 l 561 750 b 506 694 524 750 506 732 l 506 369 b 354 185 506 246 449 185 b 247 335 283 185 247 235 l 247 639 b 192 694 247 676 229 694 l 108 694 b 53 639 71 694 53 676 l 53 272 b 288 -17 53 79 144 -17 b 506 104 369 -17 456 26 l 506 -10 b 510 -37 506 -21 507 -31 b 382 -210 433 -69 382 -132 b 546 -357 382 -310 461 -357 b 703 -315 611 -357 664 -343 z "},"Ŵ":{"ha":1313,"x_min":0,"x_max":0,"o":"m 579 1288 b 503 1242 547 1288 522 1272 l 408 1094 b 436 1039 388 1065 399 1039 l 503 1039 b 571 1071 531 1039 553 1050 l 644 1164 l 717 1071 b 785 1039 735 1050 757 1039 l 850 1039 b 878 1094 888 1039 899 1065 l 783 1242 b 707 1288 764 1272 739 1288 z m 488 0 b 554 56 526 0 543 10 l 664 489 l 801 56 b 868 0 817 10 829 0 l 967 0 b 1033 56 1006 0 1018 10 l 1288 874 b 1249 954 1304 924 1299 943 l 1174 971 b 1086 915 1124 982 1103 972 l 907 317 l 754 783 b 688 839 739 829 726 839 l 603 839 b 536 783 564 839 547 829 l 426 335 l 226 888 b 139 943 206 943 189 953 l 64 929 b 25 849 14 919 4 899 l 336 56 b 403 0 354 7 365 0 z "},"ŵ":{"ha":1043,"x_min":0,"x_max":0,"o":"m 461 1038 b 385 992 429 1038 404 1022 l 290 844 b 318 789 269 815 281 789 l 385 789 b 453 821 413 789 435 800 l 526 914 l 599 821 b 667 789 617 800 639 789 l 732 789 b 760 844 769 789 781 815 l 665 992 b 589 1038 646 1022 621 1038 z m 413 0 b 476 53 450 0 465 10 l 538 307 l 626 53 b 690 0 643 8 656 0 l 796 0 b 860 53 833 0 849 8 l 1022 635 b 985 711 1038 681 1031 699 l 906 735 b 824 681 860 750 836 736 l 719 260 l 615 569 b 549 625 599 615 586 625 l 485 625 b 418 569 446 625 429 615 l 351 256 l 201 632 b 118 686 178 692 164 703 l 53 658 b 15 582 1 636 -3 632 l 243 53 b 307 0 261 8 272 0 z "},"Ŷ":{"ha":789,"x_min":0,"x_max":0,"o":"m 317 1288 b 240 1242 285 1288 260 1272 l 146 1094 b 174 1039 125 1065 136 1039 l 240 1039 b 308 1071 268 1039 290 1050 l 382 1164 l 454 1071 b 522 1039 472 1050 494 1039 l 588 1039 b 615 1094 625 1039 636 1065 l 521 1242 b 444 1288 501 1272 476 1288 z m 457 0 b 513 56 494 0 513 18 l 513 304 l 765 874 b 726 954 788 924 778 943 l 651 971 b 564 915 603 982 590 971 l 403 563 l 219 888 b 181 942 201 917 189 935 b 132 943 172 947 156 947 l 64 929 b 25 849 13 918 -1 899 l 311 322 l 311 56 b 367 0 311 18 329 0 l 457 0 z "},"ŷ":{"ha":763,"x_min":0,"x_max":0,"o":"m 331 1038 b 254 992 299 1038 274 1022 l 160 844 b 188 789 139 815 150 789 l 254 789 b 322 821 282 789 304 800 l 396 914 l 468 821 b 536 789 486 800 508 789 l 601 789 b 629 844 639 789 650 815 l 535 992 b 458 1038 515 1022 490 1038 z m 375 -292 b 700 13 569 -292 700 -194 l 700 639 b 644 694 700 676 682 694 l 561 694 b 506 639 524 694 506 676 l 506 397 b 354 213 506 274 449 213 b 247 363 283 213 247 263 l 247 667 b 192 722 247 704 229 722 l 108 722 b 53 667 71 722 53 704 l 53 300 b 288 11 53 107 144 11 b 506 132 369 11 456 54 l 506 32 b 372 -90 506 -50 461 -90 b 176 -32 313 -90 247 -71 b 125 -71 150 -19 142 -28 l 92 -154 b 97 -212 79 -183 76 -189 b 375 -292 163 -265 256 -292 z "},"Ÿ":{"ha":789,"x_min":0,"x_max":0,"o":"m 311 1085 b 342 1160 332 1106 342 1131 b 235 1267 342 1217 292 1267 b 128 1160 178 1267 128 1217 b 311 1085 122 1068 250 1015 z m 603 1085 b 633 1160 624 1106 633 1131 b 526 1267 633 1217 583 1267 b 419 1160 469 1267 419 1217 b 603 1085 414 1068 542 1015 z m 457 0 b 513 56 494 0 513 18 l 513 304 l 765 874 b 726 954 788 924 778 943 l 651 971 b 564 915 603 982 590 971 l 403 563 l 219 888 b 181 942 201 917 189 935 b 132 943 172 947 156 947 l 64 929 b 25 849 13 918 -1 899 l 311 322 l 311 56 b 367 0 311 18 329 0 l 457 0 z "},"Ź":{"ha":750,"x_min":0,"x_max":0,"o":"m 547 1232 b 532 1288 571 1264 569 1288 l 392 1288 b 315 1242 354 1288 329 1272 l 249 1094 b 276 1039 233 1057 242 1039 l 356 1039 b 439 1094 382 1039 410 1057 z m 657 0 b 713 56 694 0 713 18 l 713 153 b 657 208 713 190 694 208 l 297 208 l 668 729 b 678 747 674 736 676 742 b 685 778 682 757 685 767 l 685 875 b 629 931 685 913 667 931 l 107 931 b 51 875 69 931 51 913 l 51 778 b 107 722 51 740 69 722 l 424 722 l 53 197 l 49 192 b 38 153 42 182 38 169 l 38 56 b 93 0 38 18 56 0 l 657 0 z "},"ź":{"ha":649,"x_min":0,"x_max":0,"o":"m 525 982 b 510 1038 549 1014 547 1038 l 369 1038 b 293 992 332 1038 307 1022 l 226 844 b 254 789 211 807 219 789 l 333 789 b 417 844 360 789 388 807 z m 563 0 b 618 56 600 0 618 18 l 618 139 b 563 194 618 176 600 194 l 285 194 l 585 507 b 593 517 586 508 592 515 b 599 528 596 521 597 524 b 600 529 600 528 600 528 l 600 531 b 603 539 601 532 603 538 b 604 556 604 542 604 547 l 604 639 b 549 694 604 676 586 694 l 97 694 b 42 639 60 694 42 676 l 42 556 b 97 500 42 518 60 500 l 336 500 l 50 197 b 35 147 35 182 31 165 l 35 56 b 90 0 35 18 53 0 l 563 0 z "},"Ż":{"ha":750,"x_min":0,"x_max":0,"o":"m 465 1071 b 504 1164 492 1097 504 1128 b 374 1294 504 1235 444 1294 b 243 1164 303 1294 243 1235 b 465 1071 238 1051 392 985 z m 657 0 b 713 56 694 0 713 18 l 713 153 b 657 208 713 190 694 208 l 297 208 l 668 729 b 678 747 674 736 676 742 b 685 778 682 757 685 767 l 685 875 b 629 931 685 913 667 931 l 107 931 b 51 875 69 931 51 913 l 51 778 b 107 722 51 740 69 722 l 424 722 l 53 197 l 49 192 b 38 153 42 182 38 169 l 38 56 b 93 0 38 18 56 0 l 657 0 z "},"ż":{"ha":649,"x_min":0,"x_max":0,"o":"m 417 821 b 456 914 443 847 456 878 b 325 1044 456 985 396 1044 b 194 914 254 1044 194 985 b 417 821 189 801 343 735 z m 563 0 b 618 56 600 0 618 18 l 618 139 b 563 194 618 176 600 194 l 285 194 l 585 507 b 593 517 586 508 592 515 b 599 528 596 521 597 524 b 600 529 600 528 600 528 l 600 531 b 603 539 601 532 603 538 b 604 556 604 542 604 547 l 604 639 b 549 694 604 676 586 694 l 97 694 b 42 639 60 694 42 676 l 42 556 b 97 500 42 518 60 500 l 336 500 l 50 197 b 35 147 35 182 31 165 l 35 56 b 90 0 35 18 53 0 l 563 0 z "},"Ž":{"ha":750,"x_min":0,"x_max":0,"o":"m 438 1039 b 514 1085 469 1039 494 1054 l 608 1232 b 581 1288 629 1264 618 1288 l 514 1288 b 446 1256 486 1288 464 1276 l 372 1163 l 300 1256 b 232 1288 282 1276 260 1288 l 167 1288 b 139 1232 129 1288 118 1264 l 233 1085 b 310 1039 253 1054 278 1039 z m 657 0 b 713 56 694 0 713 18 l 713 153 b 657 208 713 190 694 208 l 297 208 l 668 729 b 678 747 674 736 676 742 b 685 778 682 757 685 767 l 685 875 b 629 931 685 913 667 931 l 107 931 b 51 875 69 931 51 913 l 51 778 b 107 722 51 740 69 722 l 424 722 l 53 197 l 49 192 b 38 153 42 182 38 169 l 38 56 b 93 0 38 18 56 0 l 657 0 z "},"ž":{"ha":649,"x_min":0,"x_max":0,"o":"m 389 789 b 465 835 421 789 446 804 l 560 982 b 532 1038 581 1014 569 1038 l 465 1038 b 397 1006 438 1038 415 1026 l 324 913 l 251 1006 b 183 1038 233 1026 211 1038 l 118 1038 b 90 982 81 1038 69 1014 l 185 835 b 261 789 204 804 229 789 z m 563 0 b 618 56 600 0 618 18 l 618 139 b 563 194 618 176 600 194 l 285 194 l 585 507 b 593 517 586 508 592 515 b 599 528 596 521 597 524 b 600 529 600 528 600 528 l 600 531 b 603 539 601 532 603 538 b 604 556 604 542 604 547 l 604 639 b 549 694 604 676 586 694 l 97 694 b 42 639 60 694 42 676 l 42 556 b 97 500 42 518 60 500 l 336 500 l 50 197 b 35 147 35 182 31 165 l 35 56 b 90 0 35 18 53 0 l 563 0 z "},"ƒ":{"ha":638,"x_min":0,"x_max":0,"o":"m 404 363 l 524 363 b 579 411 563 363 579 374 l 579 508 b 524 557 579 546 563 557 l 413 557 l 415 614 b 508 758 421 724 432 764 l 549 756 b 593 788 575 754 589 765 l 611 881 b 563 943 618 925 603 939 l 522 946 b 221 647 344 958 231 842 l 217 557 l 76 557 b 21 508 38 557 21 546 l 21 411 b 76 363 21 374 38 363 l 208 363 l 193 25 b 100 -119 188 -85 176 -125 l 60 -117 b 15 -149 33 -115 19 -126 l -3 -242 b 46 -304 -10 -286 6 -300 l 86 -307 b 388 -8 264 -319 378 -203 z "},"Ș":{"ha":703,"x_min":0,"x_max":0,"o":"m 474 243 b 372 178 474 200 440 178 b 135 247 299 178 219 201 b 74 228 101 264 89 257 l 33 144 b 56 76 18 110 24 100 b 364 -17 135 19 258 -17 b 675 264 558 -17 675 88 b 263 694 675 526 263 564 b 356 753 263 733 293 753 b 518 708 397 753 451 738 b 579 728 547 696 567 703 l 618 813 b 596 881 631 844 628 860 b 356 947 535 919 435 947 b 61 681 172 947 61 842 b 474 243 61 407 474 382 z m 488 -165 b 458 -110 508 -128 499 -110 l 339 -110 b 263 -156 289 -110 274 -118 l 222 -303 b 264 -358 211 -343 224 -358 l 336 -358 b 413 -303 374 -358 389 -346 z "},"ș":{"ha":594,"x_min":0,"x_max":0,"o":"m 43 488 b 382 204 43 228 382 303 b 308 167 382 179 357 167 b 119 219 247 167 185 185 b 68 194 99 231 78 218 l 40 117 b 46 58 32 93 24 78 b 297 -17 108 8 192 -17 b 489 43 371 -17 435 3 b 569 228 543 83 569 144 b 231 497 569 479 231 397 b 285 535 231 522 249 535 b 458 492 328 535 386 521 b 510 517 482 482 499 490 l 539 589 b 533 647 551 615 549 635 b 304 711 476 690 400 711 b 43 488 143 711 43 619 z m 406 -165 b 376 -110 426 -128 417 -110 l 257 -110 b 181 -156 207 -110 192 -118 l 140 -303 b 182 -358 129 -343 142 -358 l 254 -358 b 331 -303 292 -358 307 -346 z "},"Ț":{"ha":839,"x_min":0,"x_max":0,"o":"m 521 722 l 765 722 b 819 776 801 722 819 740 l 819 875 b 764 931 819 913 801 931 l 75 931 b 19 875 38 931 19 913 l 19 776 b 74 722 19 740 38 722 l 319 722 l 319 56 b 375 0 319 18 338 0 l 465 0 b 521 56 503 0 521 18 z m 528 -165 b 499 -110 549 -128 539 -110 l 379 -110 b 303 -156 329 -110 314 -118 l 263 -303 b 304 -358 251 -343 264 -358 l 376 -358 b 453 -303 414 -358 429 -346 z "},"ț":{"ha":642,"x_min":0,"x_max":0,"o":"m 613 44 b 618 103 629 57 631 76 l 582 183 b 531 208 569 213 551 221 b 424 168 488 182 453 168 b 329 286 361 168 329 207 l 329 419 l 521 408 b 568 456 549 407 568 428 l 568 567 b 529 610 568 594 556 608 l 329 622 l 329 792 b 288 833 329 819 315 833 l 176 833 b 135 792 149 833 135 819 l 135 633 l 63 638 b 15 590 35 639 15 618 l 15 479 b 54 436 15 451 28 438 l 135 432 l 135 251 b 374 -31 135 67 219 -31 b 613 44 467 -31 547 -6 z m 469 -165 b 440 -110 490 -128 481 -110 l 321 -110 b 244 -156 271 -110 256 -118 l 204 -303 b 246 -358 193 -343 206 -358 l 318 -358 b 394 -303 356 -358 371 -346 z "},"ȷ":{"ha":313,"x_min":0,"x_max":0,"o":"m -25 -308 b 254 -4 164 -308 254 -197 l 254 653 b 213 694 254 681 240 694 l 101 694 b 60 653 74 694 60 681 l 60 29 b -24 -107 60 -75 33 -107 b -83 -99 -33 -107 -54 -104 b -128 -131 -104 -94 -119 -106 l -167 -233 b -129 -293 -179 -267 -168 -283 b -25 -308 -92 -303 -57 -308 z "},"ˆ":{"ha":694,"x_min":0,"x_max":0,"o":"m 283 1038 b 207 992 251 1038 226 1022 l 113 844 b 140 789 92 815 103 789 l 207 789 b 275 821 235 789 257 800 l 349 914 l 421 821 b 489 789 439 800 461 789 l 554 789 b 582 844 592 789 603 815 l 488 992 b 411 1038 468 1022 443 1038 z "},"ˇ":{"ha":694,"x_min":0,"x_max":0,"o":"m 411 789 b 488 835 443 789 468 804 l 582 982 b 554 1038 603 1014 592 1038 l 488 1038 b 419 1006 460 1038 438 1026 l 346 913 l 274 1006 b 206 1038 256 1026 233 1038 l 140 1038 b 113 982 103 1038 92 1014 l 207 835 b 283 789 226 804 251 789 z "},"˘":{"ha":694,"x_min":0,"x_max":0,"o":"m 264 990 b 203 1038 260 1022 239 1038 l 186 1038 b 118 968 140 1038 118 1014 b 347 789 118 858 203 789 b 576 968 492 789 576 858 b 508 1038 576 1014 554 1038 l 492 1038 b 431 990 456 1038 435 1022 b 347 921 424 944 396 921 b 264 990 299 921 271 944 z "},"˙":{"ha":694,"x_min":0,"x_max":0,"o":"m 439 821 b 478 914 465 847 478 878 b 347 1044 478 985 418 1044 b 217 914 276 1044 217 985 b 439 821 211 801 365 735 z "},"˚":{"ha":694,"x_min":0,"x_max":0,"o":"m 486 813 b 540 936 522 843 540 885 b 347 1106 540 1038 460 1106 b 154 936 235 1106 154 1038 b 208 813 154 885 172 843 b 347 767 244 782 290 767 b 486 813 404 767 450 782 z m 301 896 b 282 936 289 906 282 918 b 346 989 282 968 311 989 b 413 936 385 989 413 969 b 301 896 413 885 342 865 z "},"˛":{"ha":694,"x_min":0,"x_max":0,"o":"m 371 -87 b 490 0 371 -37 414 0 l 469 50 b 301 -4 406 50 350 32 b 228 -144 253 -40 228 -87 b 392 -292 228 -244 307 -292 b 549 -250 457 -292 510 -278 b 551 -215 556 -244 557 -233 l 531 -133 b 500 -118 526 -118 511 -112 b 429 -137 476 -131 453 -137 b 371 -87 400 -137 371 -119 z "},"˜":{"ha":694,"x_min":0,"x_max":0,"o":"m 428 789 b 522 807 458 789 490 794 b 564 867 550 817 564 838 l 564 935 b 510 968 564 971 546 982 b 418 949 475 956 444 949 b 346 961 403 949 378 953 b 267 974 314 969 288 974 b 172 956 236 974 204 968 b 131 896 144 946 131 925 l 131 828 b 185 794 131 792 149 781 b 276 814 219 807 250 814 b 353 801 294 814 319 810 b 428 789 385 793 410 789 z "},"˝":{"ha":694,"x_min":0,"x_max":0,"o":"m 600 982 b 571 1038 621 1025 611 1038 l 464 1038 b 396 992 421 1038 406 1029 l 357 844 b 399 789 346 804 358 789 l 450 789 b 533 844 488 789 515 807 z m 339 982 b 310 1038 360 1025 350 1038 l 204 1038 b 135 992 160 1038 144 1029 l 96 844 b 138 789 85 804 97 789 l 189 789 b 272 844 226 789 254 807 z "},"Δ":{"ha":933,"x_min":0,"x_max":0,"o":"m 868 0 b 907 81 919 0 932 26 l 526 875 b 460 931 503 925 494 931 l 354 931 b 288 875 315 931 303 921 l 26 81 b 65 0 6 31 15 0 l 868 0 z m 268 174 l 424 629 l 647 174 z "},"Ω":{"ha":1000,"x_min":0,"x_max":0,"o":"m 167 838 b 39 525 82 756 39 651 b 193 218 39 392 99 275 b 188 194 210 207 206 194 l 81 194 b 39 153 53 194 39 181 l 39 42 b 81 0 39 14 53 0 l 358 0 b 436 75 410 0 436 25 l 436 168 b 397 222 436 186 424 204 b 240 497 303 285 240 397 b 500 753 240 649 344 753 b 760 497 656 753 760 649 b 603 222 760 397 697 285 b 564 168 576 204 564 186 l 564 75 b 642 0 564 25 590 0 l 919 0 b 961 42 947 0 961 14 l 961 153 b 919 194 961 181 947 194 l 813 194 b 807 218 794 194 790 207 b 961 525 901 275 961 392 b 833 838 961 651 918 756 b 500 961 749 919 638 961 b 167 838 363 961 251 919 z "},"π":{"ha":981,"x_min":0,"x_max":0,"o":"m 358 493 l 575 493 l 575 232 b 813 -17 575 72 653 -17 b 903 -6 844 -17 875 -12 b 940 54 942 4 953 21 l 901 157 b 857 189 893 182 878 193 b 811 185 840 186 825 185 b 769 265 782 185 769 204 l 769 493 l 844 493 b 899 547 881 493 899 511 l 899 639 b 843 694 899 676 881 694 l 90 694 b 35 639 53 694 35 676 l 35 547 b 89 493 35 511 53 493 l 164 493 l 164 28 b 219 -28 164 -10 182 -28 l 303 -28 b 358 28 340 -28 358 -10 z "},"Ẁ":{"ha":1313,"x_min":0,"x_max":0,"o":"m 697 1039 b 725 1094 732 1039 740 1057 l 658 1242 b 582 1288 644 1272 619 1288 l 442 1288 b 426 1232 404 1288 403 1264 l 535 1094 b 618 1039 564 1057 592 1039 z m 488 0 b 554 56 526 0 543 10 l 664 489 l 801 56 b 868 0 817 10 829 0 l 967 0 b 1033 56 1006 0 1018 10 l 1288 874 b 1249 954 1304 924 1299 943 l 1174 971 b 1086 915 1124 982 1103 972 l 907 317 l 754 783 b 688 839 739 829 726 839 l 603 839 b 536 783 564 839 547 829 l 426 335 l 226 888 b 139 943 206 943 189 953 l 64 929 b 25 849 14 919 4 899 l 336 56 b 403 0 354 7 365 0 z "},"ẁ":{"ha":1043,"x_min":0,"x_max":0,"o":"m 565 789 b 593 844 600 789 608 807 l 526 992 b 450 1038 513 1022 488 1038 l 310 1038 b 294 982 272 1038 271 1014 l 403 844 b 486 789 432 807 460 789 z m 413 0 b 476 53 450 0 465 10 l 538 307 l 626 53 b 690 0 643 8 656 0 l 796 0 b 860 53 833 0 849 8 l 1022 635 b 985 711 1038 681 1031 699 l 906 735 b 824 681 860 750 836 736 l 719 260 l 615 569 b 549 625 599 615 586 625 l 485 625 b 418 569 446 625 429 615 l 351 256 l 201 632 b 118 686 178 692 164 703 l 53 658 b 15 582 1 636 -3 632 l 243 53 b 307 0 261 8 272 0 z "},"Ẃ":{"ha":1313,"x_min":0,"x_max":0,"o":"m 858 1232 b 843 1288 882 1264 881 1288 l 703 1288 b 626 1242 665 1288 640 1272 l 560 1094 b 588 1039 544 1057 553 1039 l 667 1039 b 750 1094 693 1039 721 1057 z m 488 0 b 554 56 526 0 543 10 l 664 489 l 801 56 b 868 0 817 10 829 0 l 967 0 b 1033 56 1006 0 1018 10 l 1288 874 b 1249 954 1304 924 1299 943 l 1174 971 b 1086 915 1124 982 1103 972 l 907 317 l 754 783 b 688 839 739 829 726 839 l 603 839 b 536 783 564 839 547 829 l 426 335 l 226 888 b 139 943 206 943 189 953 l 64 929 b 25 849 14 919 4 899 l 336 56 b 403 0 354 7 365 0 z "},"ẃ":{"ha":1043,"x_min":0,"x_max":0,"o":"m 740 982 b 725 1038 764 1014 763 1038 l 585 1038 b 508 992 547 1038 522 1022 l 442 844 b 469 789 426 807 435 789 l 549 789 b 632 844 575 789 603 807 z m 413 0 b 476 53 450 0 465 10 l 538 307 l 626 53 b 690 0 643 8 656 0 l 796 0 b 860 53 833 0 849 8 l 1022 635 b 985 711 1038 681 1031 699 l 906 735 b 824 681 860 750 836 736 l 719 260 l 615 569 b 549 625 599 615 586 625 l 485 625 b 418 569 446 625 429 615 l 351 256 l 201 632 b 118 686 178 692 164 703 l 53 658 b 15 582 1 636 -3 632 l 243 53 b 307 0 261 8 272 0 z "},"Ẅ":{"ha":1313,"x_min":0,"x_max":0,"o":"m 574 1085 b 604 1160 594 1106 604 1131 b 497 1267 604 1217 557 1267 b 390 1160 438 1267 390 1217 b 574 1085 385 1068 513 1015 z m 865 1085 b 896 1160 886 1106 896 1131 b 789 1267 896 1217 849 1267 b 682 1160 729 1267 682 1217 b 865 1085 676 1068 804 1015 z m 488 0 b 554 56 526 0 543 10 l 664 489 l 801 56 b 868 0 817 10 829 0 l 967 0 b 1033 56 1006 0 1018 10 l 1288 874 b 1249 954 1304 924 1299 943 l 1174 971 b 1086 915 1124 982 1103 972 l 907 317 l 754 783 b 688 839 739 829 726 839 l 603 839 b 536 783 564 839 547 829 l 426 335 l 226 888 b 139 943 206 943 189 953 l 64 929 b 25 849 14 919 4 899 l 336 56 b 403 0 354 7 365 0 z "},"ẅ":{"ha":1043,"x_min":0,"x_max":0,"o":"m 456 835 b 486 910 476 856 486 881 b 379 1017 486 967 436 1017 b 272 910 322 1017 272 967 b 456 835 267 818 394 765 z m 747 835 b 778 910 768 856 778 881 b 671 1017 778 967 728 1017 b 564 910 614 1017 564 967 b 747 835 558 818 686 765 z m 413 0 b 476 53 450 0 465 10 l 538 307 l 626 53 b 690 0 643 8 656 0 l 796 0 b 860 53 833 0 849 8 l 1022 635 b 985 711 1038 681 1031 699 l 906 735 b 824 681 860 750 836 736 l 719 260 l 615 569 b 549 625 599 615 586 625 l 485 625 b 418 569 446 625 429 615 l 351 256 l 201 632 b 118 686 178 692 164 703 l 53 658 b 15 582 1 636 -3 632 l 243 53 b 307 0 261 8 272 0 z "},"Ỳ":{"ha":789,"x_min":0,"x_max":0,"o":"m 435 1039 b 463 1094 469 1039 478 1057 l 396 1242 b 319 1288 382 1272 357 1288 l 179 1288 b 164 1232 142 1288 140 1264 l 272 1094 b 356 1039 301 1057 329 1039 z m 457 0 b 513 56 494 0 513 18 l 513 304 l 765 874 b 726 954 788 924 778 943 l 651 971 b 564 915 603 982 590 971 l 403 563 l 219 888 b 181 942 201 917 189 935 b 132 943 172 947 156 947 l 64 929 b 25 849 13 918 -1 899 l 311 322 l 311 56 b 367 0 311 18 329 0 l 457 0 z "},"ỳ":{"ha":763,"x_min":0,"x_max":0,"o":"m 435 789 b 463 844 469 789 478 807 l 396 992 b 319 1038 382 1022 357 1038 l 179 1038 b 164 982 142 1038 140 1014 l 272 844 b 356 789 301 807 329 789 z m 375 -292 b 700 13 569 -292 700 -194 l 700 639 b 644 694 700 676 682 694 l 561 694 b 506 639 524 694 506 676 l 506 397 b 354 213 506 274 449 213 b 247 363 283 213 247 263 l 247 667 b 192 722 247 704 229 722 l 108 722 b 53 667 71 722 53 704 l 53 300 b 288 11 53 107 144 11 b 506 132 369 11 456 54 l 506 32 b 372 -90 506 -50 461 -90 b 176 -32 313 -90 247 -71 b 125 -71 150 -19 142 -28 l 92 -154 b 97 -212 79 -183 76 -189 b 375 -292 163 -265 256 -292 z "},"–":{"ha":736,"x_min":0,"x_max":0,"o":"m 76 467 b 21 411 39 467 21 449 l 21 342 b 76 286 21 304 39 286 l 660 286 b 715 342 697 286 715 304 l 715 411 b 660 467 715 449 697 467 z "},"—":{"ha":1431,"x_min":0,"x_max":0,"o":"m 76 467 b 21 411 39 467 21 449 l 21 342 b 76 286 21 304 39 286 l 1354 286 b 1410 342 1392 286 1410 304 l 1410 411 b 1354 467 1410 449 1392 467 z "},"‘":{"ha":294,"x_min":0,"x_max":0,"o":"m 28 700 b 151 540 28 596 79 540 b 267 656 214 540 267 593 b 154 768 267 721 225 768 l 156 776 b 240 842 161 815 181 835 b 275 882 264 844 275 858 l 275 914 b 240 947 275 936 264 947 b 28 700 107 947 28 857 z "},"’":{"ha":294,"x_min":0,"x_max":0,"o":"m 267 788 b 143 947 267 892 215 947 b 28 832 81 947 28 894 b 140 719 28 767 69 719 l 139 711 b 54 646 133 672 114 653 b 19 606 31 643 19 629 l 19 574 b 54 540 19 551 31 540 b 267 788 188 540 267 631 z "},"‚":{"ha":294,"x_min":0,"x_max":0,"o":"m 267 51 b 143 211 267 156 215 211 b 28 96 81 211 28 158 b 140 -17 28 31 69 -17 l 139 -25 b 54 -90 133 -64 114 -83 b 19 -131 31 -93 19 -107 l 19 -162 b 54 -196 19 -185 31 -196 b 267 51 188 -196 267 -106 z "},"“":{"ha":586,"x_min":0,"x_max":0,"o":"m 319 700 b 443 540 319 596 371 540 b 558 656 506 540 558 593 b 446 768 558 721 517 768 l 447 776 b 532 842 453 815 472 835 b 567 882 556 844 567 858 l 567 914 b 532 947 567 936 556 947 b 319 700 399 947 319 857 z m 28 686 b 151 526 28 582 79 526 b 267 642 214 526 267 579 b 154 754 267 707 225 754 l 156 763 b 240 828 161 801 181 821 b 275 868 264 831 275 844 l 275 900 b 240 933 275 922 264 933 b 28 686 107 933 28 843 z "},"”":{"ha":586,"x_min":0,"x_max":0,"o":"m 558 801 b 435 961 558 906 507 961 b 319 846 372 961 319 908 b 432 733 319 781 361 733 l 431 725 b 346 660 425 686 406 667 b 311 619 322 657 311 643 l 311 588 b 346 554 311 565 322 554 b 558 801 479 554 558 644 z m 267 788 b 143 947 267 892 215 947 b 28 832 81 947 28 894 b 140 719 28 767 69 719 l 139 711 b 54 646 133 672 114 653 b 19 606 31 643 19 629 l 19 574 b 54 540 19 551 31 540 b 267 788 188 540 267 631 z "},"„":{"ha":592,"x_min":0,"x_max":0,"o":"m 564 65 b 440 225 564 169 513 225 b 325 110 378 225 325 172 b 438 -3 325 44 367 -3 l 436 -11 b 351 -76 431 -50 411 -69 b 317 -117 328 -79 317 -93 l 317 -149 b 351 -182 317 -171 328 -182 b 564 65 485 -182 564 -92 z m 267 51 b 143 211 267 156 215 211 b 28 96 81 211 28 158 b 140 -17 28 31 69 -17 l 139 -25 b 54 -90 133 -64 114 -83 b 19 -131 31 -93 19 -107 l 19 -162 b 54 -196 19 -185 31 -196 b 267 51 188 -196 267 -106 z "},"†":{"ha":772,"x_min":0,"x_max":0,"o":"m 428 -139 b 483 -83 465 -139 483 -121 l 483 504 l 682 514 b 738 563 721 515 738 528 l 738 674 b 682 722 738 711 721 724 l 483 713 l 483 982 b 428 1038 483 1019 465 1038 l 344 1038 b 289 982 307 1038 289 1019 l 289 704 l 90 694 b 35 646 51 693 35 681 l 35 535 b 90 486 35 497 51 485 l 289 496 l 289 -83 b 344 -139 289 -121 307 -139 l 428 -139 z "},"‡":{"ha":772,"x_min":0,"x_max":0,"o":"m 483 149 l 682 149 b 738 197 721 149 738 160 l 738 308 b 682 357 738 346 721 357 l 483 357 l 483 532 l 682 542 b 738 590 721 543 738 556 l 738 701 b 682 750 738 739 721 751 l 483 740 l 483 982 b 428 1038 483 1019 465 1038 l 344 1038 b 289 982 307 1038 289 1019 l 289 732 l 90 722 b 35 674 51 721 35 708 l 35 563 b 90 514 35 525 51 513 l 289 524 l 289 357 l 90 357 b 35 308 51 357 35 346 l 35 197 b 90 149 35 160 51 149 l 289 149 l 289 -83 b 344 -139 289 -121 307 -139 l 428 -139 b 483 -83 465 -139 483 -121 z "},"•":{"ha":550,"x_min":0,"x_max":0,"o":"m 275 401 b 425 551 356 401 425 471 b 275 701 425 635 357 701 b 125 551 192 701 125 635 b 275 401 125 469 192 401 z "},"…":{"ha":983,"x_min":0,"x_max":0,"o":"m 576 36 b 492 238 654 104 593 243 b 374 119 429 238 374 182 b 576 36 368 18 507 -43 z m 229 19 b 144 221 307 88 246 226 b 26 103 82 221 26 165 b 229 19 21 1 160 -60 z m 924 6 b 839 207 1001 74 940 213 b 721 89 776 207 721 151 b 924 6 715 -12 854 -74 z "},"‰":{"ha":1782,"x_min":0,"x_max":0,"o":"m 1042 878 b 1021 954 1061 911 1054 936 l 960 986 b 883 965 928 1003 901 996 l 317 0 b 338 -76 297 -33 304 -58 l 399 -108 b 475 -87 431 -125 457 -118 z m 526 481 b 600 676 575 532 600 597 b 526 872 600 756 575 821 b 328 949 478 924 411 949 b 129 872 244 949 178 924 b 56 676 81 821 56 756 b 129 481 56 597 81 532 b 328 403 178 429 244 403 b 526 481 411 403 478 429 z m 328 561 b 247 590 294 561 268 571 b 215 676 226 608 215 638 b 247 763 215 715 226 744 b 328 790 268 781 294 790 b 442 676 394 790 442 754 b 328 561 442 597 396 561 z m 1454 -17 b 1653 61 1538 -17 1604 10 b 1726 257 1701 113 1726 178 b 1653 453 1726 336 1701 401 b 1454 529 1604 504 1538 529 b 1258 454 1372 529 1307 504 b 1061 529 1208 504 1143 529 b 863 453 978 529 911 504 b 789 257 814 401 789 336 b 863 61 789 178 814 113 b 1061 -17 911 10 978 -17 b 1257 58 1143 -17 1208 8 b 1454 -17 1307 8 1372 -17 z m 1454 142 b 1374 171 1421 142 1394 151 b 1342 257 1353 189 1342 218 b 1374 343 1342 296 1353 325 b 1454 371 1394 361 1421 371 b 1568 257 1521 371 1568 335 b 1454 142 1568 178 1522 142 z m 1061 142 b 981 171 1028 142 1001 151 b 949 257 960 189 949 218 b 981 343 949 296 960 325 b 1061 371 1001 361 1028 371 b 1175 257 1128 371 1175 335 b 1061 142 1175 178 1129 142 z "},"‹":{"ha":479,"x_min":0,"x_max":0,"o":"m 53 440 b 29 388 32 424 29 415 l 29 308 b 53 256 29 281 32 274 l 292 60 b 357 64 319 38 335 38 l 410 125 b 401 183 425 144 422 164 l 204 349 l 451 556 b 460 614 474 574 476 593 l 407 675 b 342 679 388 699 365 700 l 53 440 z "},"›":{"ha":479,"x_min":0,"x_max":0,"o":"m 138 679 b 72 675 114 700 92 699 l 19 614 b 28 556 3 593 6 574 l 275 349 l 78 183 b 69 125 57 164 54 144 l 122 64 b 188 60 144 38 160 38 l 426 256 b 450 308 447 274 450 281 l 450 388 b 426 440 450 415 447 424 z "},"⁄":{"ha":290,"x_min":0,"x_max":0,"o":"m 449 840 b 428 917 468 872 461 897 l 407 929 b 331 908 375 949 350 942 l -160 82 b -139 6 -178 53 -171 26 l -118 -8 b -42 13 -87 -29 -62 -22 z "},"⁰":{"ha":586,"x_min":0,"x_max":0,"o":"m 465 492 b 529 682 508 540 529 603 b 294 947 529 842 435 947 b 57 682 151 947 57 843 b 122 490 57 603 79 539 b 293 418 165 442 222 418 b 465 492 364 418 422 443 z m 214 592 b 185 682 194 614 185 644 b 293 808 185 760 225 808 b 403 682 364 808 403 758 b 375 592 403 644 393 614 b 294 557 357 568 329 557 b 214 592 260 557 232 568 z "},"⁴":{"ha":510,"x_min":0,"x_max":0,"o":"m 390 517 l 439 517 b 468 546 458 517 468 526 l 468 618 b 438 649 468 639 458 649 l 390 649 l 390 900 b 360 931 390 921 381 931 l 268 931 b 242 918 256 931 246 926 l 46 629 b 31 586 36 614 31 599 l 31 546 b 60 517 31 526 40 517 l 269 517 l 269 463 b 300 432 269 442 279 432 l 360 432 b 390 463 381 432 390 442 z m 269 776 l 269 649 l 186 649 z "},"€":{"ha":917,"x_min":0,"x_max":0,"o":"m 872 60 b 881 111 888 69 890 88 l 839 214 b 779 235 829 240 808 247 b 597 192 719 206 660 192 b 406 288 511 192 447 224 l 565 288 b 621 336 604 288 621 299 l 621 378 b 565 426 621 415 604 426 l 360 426 b 358 465 358 435 358 447 b 360 496 358 479 358 489 l 565 496 b 621 544 604 496 621 507 l 621 586 b 565 635 621 624 604 635 l 401 635 b 597 739 444 704 510 739 b 779 696 660 739 719 725 b 839 717 808 683 829 690 l 881 819 b 872 871 890 843 888 861 b 597 947 788 922 696 947 b 179 635 388 947 235 829 l 86 635 b 31 586 47 635 31 624 l 31 544 b 86 496 31 507 47 496 l 157 496 l 157 465 b 158 426 157 447 157 435 l 86 426 b 31 378 47 426 31 415 l 31 336 b 86 288 31 299 47 288 l 182 288 b 594 -17 238 97 390 -17 b 872 60 693 -17 786 8 z "},"₹":{"ha":742,"x_min":0,"x_max":0,"o":"m 576 1 b 615 82 625 11 639 39 l 468 351 b 594 544 539 394 581 460 l 682 544 b 738 593 721 544 738 556 l 738 635 b 682 683 738 672 721 683 l 593 683 b 550 792 586 724 572 760 l 682 792 b 738 840 721 792 738 803 l 738 882 b 682 931 738 919 721 931 l 126 931 b 92 896 103 931 92 919 l 92 785 b 126 750 92 761 103 750 l 194 750 b 379 683 288 750 349 728 l 147 683 b 92 635 108 683 92 672 l 92 593 b 147 544 92 556 108 544 l 379 544 b 194 483 350 504 289 483 l 126 483 b 92 449 103 483 92 472 l 92 324 b 126 289 92 300 103 289 l 189 289 b 282 294 225 289 256 290 l 428 43 b 468 -12 446 13 458 -6 b 515 -12 476 -18 492 -18 z "},"ℓ":{"ha":538,"x_min":0,"x_max":0,"o":"m 274 -21 b 510 89 347 -21 447 11 b 524 175 540 126 544 154 l 461 235 b 388 236 436 260 411 260 l 365 214 b 301 188 347 196 326 188 b 254 264 269 188 254 213 l 254 376 b 517 724 429 456 517 572 b 300 950 517 875 444 950 b 60 704 156 950 60 869 l 60 197 b 274 -21 60 63 142 -21 z m 254 729 b 294 781 254 764 268 781 b 339 717 324 781 339 760 b 254 557 339 654 311 601 z "},"™":{"ha":1019,"x_min":0,"x_max":0,"o":"m 614 700 l 661 594 b 679 583 665 588 671 583 l 742 583 b 760 594 750 583 756 588 l 804 696 l 804 479 b 832 451 804 461 814 451 l 929 451 b 957 479 947 451 957 461 l 957 903 b 929 931 957 921 947 931 l 832 931 b 806 914 821 931 813 925 l 714 753 l 610 935 b 586 944 607 942 599 944 l 489 944 b 461 917 471 944 461 935 l 461 493 b 489 465 461 475 471 465 l 586 465 b 614 493 604 465 614 475 z m 296 771 l 392 771 b 419 799 410 771 419 781 l 419 903 b 392 931 419 921 410 931 l 47 931 b 19 903 29 931 19 921 l 19 799 b 46 771 19 781 28 771 l 143 771 l 143 493 b 171 465 143 475 153 465 l 268 465 b 296 493 286 465 296 475 z "},"Ω":{"ha":1000,"x_min":0,"x_max":0,"o":"m 167 838 b 39 525 82 756 39 651 b 193 218 39 392 99 275 b 188 194 210 207 206 194 l 81 194 b 39 153 53 194 39 181 l 39 42 b 81 0 39 14 53 0 l 358 0 b 436 75 410 0 436 25 l 436 168 b 397 222 436 186 424 204 b 240 497 303 285 240 397 b 500 753 240 649 344 753 b 760 497 656 753 760 649 b 603 222 760 397 697 285 b 564 168 576 204 564 186 l 564 75 b 642 0 564 25 590 0 l 919 0 b 961 42 947 0 961 14 l 961 153 b 919 194 961 181 947 194 l 813 194 b 807 218 794 194 790 207 b 961 525 901 275 961 392 b 833 838 961 651 918 756 b 500 961 749 919 638 961 b 167 838 363 961 251 919 z "},"℮":{"ha":989,"x_min":0,"x_max":0,"o":"m 919 367 b 796 639 919 474 878 564 b 494 751 713 714 613 751 b 194 639 376 751 276 714 b 69 367 111 564 69 474 b 194 97 69 261 111 171 b 494 -15 276 22 376 -15 b 831 133 629 -15 753 43 l 769 133 b 496 8 696 50 606 8 b 235 119 393 8 306 46 b 225 144 228 128 225 136 l 225 353 b 231 357 225 356 226 357 l 919 357 z m 764 383 b 760 378 764 379 763 378 l 231 378 b 225 383 226 378 225 379 l 225 589 b 236 615 225 601 229 610 b 496 728 307 690 393 728 b 753 619 597 728 682 692 b 764 593 760 613 764 603 l 764 383 z "},"∂":{"ha":756,"x_min":0,"x_max":0,"o":"m 379 -15 b 733 379 606 -15 733 136 b 415 997 733 622 628 828 b 338 997 382 1021 371 1019 l 279 957 b 279 890 251 938 251 915 b 475 628 363 815 428 728 b 354 644 433 639 393 644 b 117 554 254 644 175 614 b 29 318 58 493 29 414 b 128 79 29 222 63 142 b 379 -15 193 17 278 -15 z m 372 193 b 231 317 290 193 231 240 b 376 450 231 399 282 450 b 532 414 435 450 486 438 l 532 407 b 372 193 532 264 479 193 z "},"∆":{"ha":933,"x_min":0,"x_max":0,"o":"m 868 0 b 907 81 919 0 932 26 l 526 875 b 460 931 503 925 494 931 l 354 931 b 288 875 315 931 303 921 l 26 81 b 65 0 6 31 15 0 l 868 0 z m 268 174 l 424 629 l 647 174 z "},"∏":{"ha":922,"x_min":0,"x_max":0,"o":"m 811 729 l 868 729 b 922 783 904 729 922 747 l 922 875 b 867 931 922 913 904 931 l 56 931 b 0 875 18 931 0 913 l 0 783 b 54 729 0 747 18 729 l 111 729 l 111 56 b 167 0 111 18 129 0 l 257 0 b 313 56 294 0 313 18 l 313 729 l 610 729 l 610 28 b 665 -28 610 -10 628 -28 l 756 -28 b 811 28 793 -28 811 -10 z "},"∑":{"ha":801,"x_min":0,"x_max":0,"o":"m 758 -21 b 703 35 758 17 740 35 l 353 35 l 618 350 b 617 440 642 376 643 408 l 353 757 l 704 757 b 758 811 740 757 758 775 l 758 875 b 703 931 758 913 740 931 l 125 931 b 69 875 88 931 69 913 l 69 811 b 89 760 69 790 76 774 l 394 396 l 90 31 b 69 -21 76 17 69 0 l 69 -85 b 124 -139 69 -121 88 -139 l 704 -139 b 758 -85 740 -139 758 -121 z "},"−":{"ha":694,"x_min":0,"x_max":0,"o":"m 129 558 b 74 503 92 558 74 540 l 74 433 b 129 378 74 396 92 378 l 565 378 b 621 433 603 378 621 396 l 621 503 b 565 558 621 540 603 558 z "},"∕":{"ha":290,"x_min":0,"x_max":0,"o":"m 449 840 b 428 917 468 872 461 897 l 407 929 b 331 908 375 949 350 942 l -160 82 b -139 6 -178 53 -171 26 l -118 -8 b -42 13 -87 -29 -62 -22 z "},"√":{"ha":882,"x_min":0,"x_max":0,"o":"m 550 0 b 617 56 589 0 604 10 l 857 874 b 818 954 874 924 868 942 l 757 971 b 669 915 707 983 688 972 l 481 303 l 331 632 b 303 679 321 656 311 672 l 300 682 b 260 694 290 690 278 694 l 90 694 b 35 639 53 694 35 676 l 35 547 b 89 493 35 511 53 493 l 186 493 l 378 56 b 444 0 399 7 407 0 l 550 0 z "},"∞":{"ha":949,"x_min":0,"x_max":0,"o":"m 671 211 b 900 465 811 211 900 317 b 671 719 900 614 811 719 b 472 629 586 719 521 689 b 278 719 429 689 364 719 b 49 465 138 719 49 614 b 278 211 49 317 138 211 b 475 301 363 211 429 242 b 671 211 521 242 586 211 z m 650 372 b 544 465 579 372 544 403 b 650 558 544 528 579 558 b 751 465 718 558 751 528 b 650 372 751 403 718 372 z m 299 372 b 197 465 231 372 197 403 b 299 558 197 528 231 558 b 404 465 369 558 404 528 b 299 372 404 403 369 372 z "},"∫":{"ha":632,"x_min":0,"x_max":0,"o":"m 415 683 b 508 828 421 793 432 833 l 549 825 b 593 857 575 824 589 835 l 611 950 b 563 1013 618 994 603 1008 l 522 1015 b 221 717 344 1028 231 911 l 193 25 b 100 -119 188 -85 176 -125 l 60 -117 b 15 -149 33 -115 19 -126 l -3 -242 b 46 -304 -10 -286 6 -300 l 86 -307 b 388 -8 264 -319 378 -203 z "},"≈":{"ha":694,"x_min":0,"x_max":0,"o":"m 456 501 b 579 519 499 501 539 507 b 621 579 607 528 621 547 l 621 668 b 567 701 621 700 603 711 b 446 682 521 689 481 682 b 347 694 424 682 390 686 b 239 707 303 703 267 707 b 115 689 196 707 156 701 b 74 629 88 681 74 661 l 74 540 b 128 507 74 508 92 497 b 249 526 174 519 214 526 b 351 514 272 526 306 522 b 456 501 397 506 432 501 z m 456 224 b 579 242 499 224 539 229 b 621 301 607 250 621 269 l 621 390 b 567 424 621 422 603 433 b 446 404 521 411 481 404 b 347 417 424 404 390 408 b 239 429 303 425 267 429 b 115 411 196 429 156 424 b 74 351 88 403 74 383 l 74 263 b 128 229 74 231 92 219 b 249 249 174 242 214 249 b 351 236 272 249 306 244 b 456 224 397 228 432 224 z "},"≠":{"ha":694,"x_min":0,"x_max":0,"o":"m 308 236 l 579 236 b 635 292 617 236 635 254 l 635 361 b 579 417 635 399 617 417 l 404 417 l 457 514 l 579 514 b 635 569 617 514 635 532 l 635 639 b 579 694 635 676 617 694 l 553 694 l 588 760 b 565 836 606 793 599 818 l 535 853 b 460 833 501 871 476 864 l 386 694 l 115 694 b 60 639 78 694 60 676 l 60 569 b 115 514 60 532 78 514 l 290 514 l 238 417 l 115 417 b 60 361 78 417 60 399 l 60 292 b 115 236 60 254 78 236 l 142 236 l 107 171 b 128 94 89 138 96 113 l 158 78 b 235 99 193 60 218 67 z "},"≤":{"ha":694,"x_min":0,"x_max":0,"o":"m 565 128 b 621 183 603 128 621 146 l 621 363 b 565 418 615 394 603 401 l 308 536 l 565 654 b 621 724 603 671 621 694 l 621 807 b 565 849 621 846 599 865 l 143 640 b 88 585 104 622 94 618 l 88 493 b 89 489 89 490 89 489 l 89 485 l 89 482 l 90 481 b 92 478 90 479 90 479 b 93 475 92 476 92 475 b 94 472 93 474 93 474 l 94 471 l 94 469 b 143 432 101 457 118 444 l 393 308 l 143 308 b 88 253 106 308 88 290 l 88 183 b 143 128 88 146 106 128 l 565 128 z "},"≥":{"ha":694,"x_min":0,"x_max":0,"o":"m 551 128 b 607 183 589 128 607 146 l 607 253 b 551 308 607 290 589 308 l 301 308 l 551 432 b 600 469 576 444 593 457 l 600 471 l 600 472 b 601 475 601 474 601 474 b 603 478 603 475 603 476 b 604 481 604 479 604 479 l 606 483 l 606 485 l 606 489 b 607 493 606 490 607 494 l 607 585 b 551 640 600 618 590 622 l 129 849 b 74 807 96 865 74 846 l 74 724 b 129 654 74 694 92 671 l 386 536 l 129 418 b 74 363 92 401 79 394 l 74 183 b 129 128 74 146 92 128 l 551 128 z "},"◊":{"ha":694,"x_min":0,"x_max":0,"o":"m 400 0 b 460 42 426 0 447 14 l 663 454 b 663 482 667 464 667 472 l 460 889 b 400 931 447 917 426 931 l 303 931 b 243 889 276 931 256 917 l 40 482 b 40 454 36 472 36 464 l 243 42 b 303 0 256 14 276 0 z m 351 724 l 474 468 l 351 207 l 231 468 z "},"":{"ha":694,"x_min":0,"x_max":0,"o":"m 483 -165 b 454 -110 504 -128 494 -110 l 335 -110 b 258 -156 285 -110 269 -118 l 218 -303 b 260 -358 207 -343 219 -358 l 332 -358 b 408 -303 369 -358 385 -346 z "},"ﬁ":{"ha":886,"x_min":0,"x_max":0,"o":"m 813 799 b 813 965 858 846 858 919 b 646 965 767 1011 692 1011 b 646 799 600 919 600 846 b 813 799 692 751 767 751 z m 351 482 l 501 492 b 549 539 529 493 549 513 l 549 650 b 510 693 549 679 539 694 l 351 683 b 444 828 351 789 367 833 l 485 825 b 529 857 511 824 525 835 l 547 950 b 499 1013 554 994 539 1008 l 458 1015 b 240 943 368 1022 296 997 b 157 717 185 889 157 813 l 157 671 l 67 665 b 19 618 39 664 19 644 l 19 507 b 58 464 19 478 29 463 l 157 469 l 157 42 b 199 0 157 14 171 0 l 310 0 b 351 42 338 0 351 14 z m 826 611 b 771 667 826 649 808 667 l 688 667 b 632 611 650 667 632 649 l 632 56 b 688 0 632 18 650 0 l 771 0 b 826 56 808 0 826 18 z "},"ﬂ":{"ha":894,"x_min":0,"x_max":0,"o":"m 832 944 b 776 1000 832 982 814 1000 l 686 1000 b 631 944 649 1000 631 982 l 631 56 b 686 0 631 18 649 0 l 776 0 b 832 56 814 0 832 18 z m 351 482 l 501 492 b 549 539 529 493 549 513 l 549 650 b 510 693 549 679 539 694 l 351 683 b 444 828 351 789 367 833 l 485 825 b 529 857 511 824 525 835 l 547 950 b 499 1013 554 994 539 1008 l 458 1015 b 240 943 368 1022 296 997 b 157 717 185 889 157 813 l 157 671 l 67 665 b 19 618 39 664 19 644 l 19 507 b 58 464 19 478 29 463 l 157 469 l 157 42 b 199 0 157 14 171 0 l 310 0 b 351 42 338 0 351 14 z "}}}
